SplineFontDB: 3.0
FontName: ArchivoNarrowDevanagari-Regular
FullName: Archivo Narrow Devanagari
FamilyName: Archivo Narrow Devanagari
Weight: Book
Copyright: Copyright (c) 2012-2014, Omnibus-Type (www.omnibus-type.com omnibus.type@gmail.com) with Reserved Font Name 'Archivo'
Version: 1.004;PS 001.004;hotconv 1.0.70;makeotf.lib2.5.58329
ItalicAngle: 0
UnderlinePosition: -50
UnderlineWidth: 50
Ascent: 1638
Descent: 410
InvalidEm: 0
sfntRevision: 0x00010106
LayerCount: 2
Layer: 0 1 "Back" 1
Layer: 1 1 "Fore" 0
XUID: [1021 191 1600663927 9072833]
FSType: 8
OS2Version: 3
OS2_WeightWidthSlopeOnly: 0
OS2_UseTypoMetrics: 1
CreationTime: 1405074897
ModificationTime: 1413123407
PfmFamily: 17
TTFWeight: 400
TTFWidth: 5
LineGap: 0
VLineGap: 0
Panose: 2 11 5 6 2 2 2 2 11 4
OS2TypoAscent: 1823
OS2TypoAOffset: 0
OS2TypoDescent: -827
OS2TypoDOffset: 0
OS2TypoLinegap: 0
OS2WinAscent: 1823
OS2WinAOffset: 0
OS2WinDescent: 827
OS2WinDOffset: 0
HheadAscent: 1823
HheadAOffset: 0
HheadDescent: -827
HheadDOffset: 0
OS2SubXSize: 1331
OS2SubYSize: 1228
OS2SubXOff: 0
OS2SubYOff: 153
OS2SupXSize: 1331
OS2SupYSize: 1228
OS2SupXOff: 0
OS2SupYOff: 716
OS2StrikeYSize: 50
OS2StrikeYPos: 571
OS2CapHeight: 0
OS2XHeight: 0
OS2Vendor: 'OMNI'
OS2CodePages: 20000093.00000000
OS2UnicodeRanges: 00008007.00000000.00000000.00000000
Lookup: 1 0 0 "'aalt' Access All Alternates lookup 0" { "'aalt' Access All Alternates lookup 0 subtable"  } ['aalt' ('DFLT' <'dflt' > 'dev2' <'HIN ' 'MAR ' 'NEP ' 'dflt' > 'deva' <'HIN ' 'MAR ' 'NEP ' 'dflt' > 'grek' <'dflt' > 'latn' <'CAT ' 'MOL ' 'ROM ' 'dflt' > ) ]
Lookup: 3 0 0 "'aalt' Access All Alternates lookup 1" { "'aalt' Access All Alternates lookup 1 subtable"  } ['aalt' ('DFLT' <'dflt' > 'dev2' <'HIN ' 'MAR ' 'NEP ' 'dflt' > 'deva' <'HIN ' 'MAR ' 'NEP ' 'dflt' > 'grek' <'dflt' > 'latn' <'CAT ' 'MOL ' 'ROM ' 'dflt' > ) ]
Lookup: 4 0 0 "Ligature Substitution lookup 2" { "Ligature Substitution lookup 2 subtable"  } []

StartChar: .notdef
Encoding: 65536 -1 0
Width: 905
Flags: W
LayerCount: 2
Back
Fore
SplineSet
905 1268 m 1,0,-1
 905 0 l 1,1,-1
 0 0 l 1,2,-1
 0 1268 l 1,3,-1
 905 1268 l 1,0,-1
145 1178 m 1,4,-1
 453 715 l 1,5,-1
 760 1178 l 1,6,-1
 145 1178 l 1,4,-1
90 172 m 1,7,-1
 397 633 l 1,8,-1
 90 1096 l 1,9,-1
 90 172 l 1,7,-1
508 633 m 1,10,-1
 815 172 l 1,11,-1
 815 1096 l 1,12,-1
 508 633 l 1,10,-1
145 90 m 1,13,-1
 760 90 l 1,14,-1
 453 553 l 1,15,-1
 145 90 l 1,13,-1
EndSplineSet
EndChar

StartChar: A
Encoding: 65 65 4
Width: 991
GlyphClass: 2
Flags: W
AnchorPoint: "Anchor-1" 0 0 basechar 0
AnchorPoint: "Anchor-0" 496 1241 basechar 0
LayerCount: 2
Back
Fore
SplineSet
735 276 m 1,0,-1
 242 276 l 1,1,-1
 158 0 l 1,2,-1
 -2 0 l 1,3,-1
 393 1241 l 1,4,-1
 598 1241 l 1,5,-1
 991 0 l 1,6,-1
 819 0 l 1,7,-1
 735 276 l 1,0,-1
473 1047.5 m 128,-1,9
 464 999 464 999 457 975 c 2,10,-1
 287 422 l 1,11,-1
 690 422 l 1,12,-1
 522 975 l 2,13,14
 513 1001 513 1001 504 1048.5 c 128,-1,15
 495 1096 495 1096 492 1112 c 1,16,-1
 485 1112 l 1,17,8
 482 1096 482 1096 473 1047.5 c 128,-1,9
EndSplineSet
Substitution2: "Single Substitution lookup 36 subtable" ordfeminine
Substitution2: "'aalt' Access All Alternates lookup 0 subtable" ordfeminine
Position2: "'cpsp' Capital Spacing lookup 0 subtable" dx=5 dy=0 dh=10 dv=0
EndChar

StartChar: Aacute
Encoding: 193 193 5
Width: 991
GlyphClass: 2
Flags: W
LayerCount: 2
Back
Fore
SplineSet
387 1360 m 1,0,-1
 543 1599 l 1,1,-1
 707 1599 l 1,2,-1
 709 1593 l 1,3,-1
 512 1360 l 1,4,-1
 387 1360 l 1,0,-1
735 276 m 1,5,-1
 242 276 l 1,6,-1
 158 0 l 1,7,-1
 -2 0 l 1,8,-1
 393 1241 l 1,9,-1
 598 1241 l 1,10,-1
 991 0 l 1,11,-1
 819 0 l 1,12,-1
 735 276 l 1,5,-1
473 1047.5 m 128,-1,14
 464 999 464 999 457 975 c 2,15,-1
 287 422 l 1,16,-1
 690 422 l 1,17,-1
 522 975 l 2,18,19
 513 1001 513 1001 504 1048.5 c 128,-1,20
 495 1096 495 1096 492 1112 c 1,21,-1
 485 1112 l 1,22,13
 482 1096 482 1096 473 1047.5 c 128,-1,14
EndSplineSet
Position2: "'cpsp' Capital Spacing lookup 0 subtable" dx=5 dy=0 dh=10 dv=0
EndChar

StartChar: Abreve
Encoding: 258 258 6
Width: 991
GlyphClass: 2
Flags: W
LayerCount: 2
Back
Fore
SplineSet
691 1516.5 m 128,-1,1
 663 1476 663 1476 611.5 1449.5 c 128,-1,2
 560 1423 560 1423 494 1423 c 256,3,4
 428 1423 428 1423 377.5 1449.5 c 128,-1,5
 327 1476 327 1476 299.5 1516.5 c 128,-1,6
 272 1557 272 1557 272 1599 c 1,7,-1
 387 1599 l 1,8,9
 392 1577 392 1577 422 1557.5 c 128,-1,10
 452 1538 452 1538 494 1538 c 0,11,12
 523 1538 523 1538 547.5 1547.5 c 128,-1,13
 572 1557 572 1557 586.5 1571.5 c 128,-1,14
 601 1586 601 1586 602 1599 c 1,15,-1
 719 1599 l 1,16,0
 719 1557 719 1557 691 1516.5 c 128,-1,1
735 276 m 1,17,-1
 242 276 l 1,18,-1
 158 0 l 1,19,-1
 -2 0 l 1,20,-1
 393 1241 l 1,21,-1
 598 1241 l 1,22,-1
 991 0 l 1,23,-1
 819 0 l 1,24,-1
 735 276 l 1,17,-1
473 1047.5 m 128,-1,26
 464 999 464 999 457 975 c 2,27,-1
 287 422 l 1,28,-1
 690 422 l 1,29,-1
 522 975 l 2,30,31
 513 1001 513 1001 504 1048.5 c 128,-1,32
 495 1096 495 1096 492 1112 c 1,33,-1
 485 1112 l 1,34,25
 482 1096 482 1096 473 1047.5 c 128,-1,26
EndSplineSet
Position2: "'cpsp' Capital Spacing lookup 0 subtable" dx=5 dy=0 dh=10 dv=0
EndChar

StartChar: Acircumflex
Encoding: 194 194 7
Width: 991
GlyphClass: 2
Flags: W
LayerCount: 2
Back
Fore
SplineSet
496 1495 m 1,0,-1
 414 1352 l 1,1,-1
 270 1352 l 1,2,-1
 426 1597 l 1,3,-1
 567 1597 l 1,4,-1
 721 1352 l 1,5,-1
 575 1352 l 1,6,-1
 496 1495 l 1,0,-1
735 276 m 1,7,-1
 242 276 l 1,8,-1
 158 0 l 1,9,-1
 -2 0 l 1,10,-1
 393 1241 l 1,11,-1
 598 1241 l 1,12,-1
 991 0 l 1,13,-1
 819 0 l 1,14,-1
 735 276 l 1,7,-1
473 1047.5 m 128,-1,16
 464 999 464 999 457 975 c 2,17,-1
 287 422 l 1,18,-1
 690 422 l 1,19,-1
 522 975 l 2,20,21
 513 1001 513 1001 504 1048.5 c 128,-1,22
 495 1096 495 1096 492 1112 c 1,23,-1
 485 1112 l 1,24,15
 482 1096 482 1096 473 1047.5 c 128,-1,16
EndSplineSet
Position2: "'cpsp' Capital Spacing lookup 0 subtable" dx=5 dy=0 dh=10 dv=0
EndChar

StartChar: Adieresis
Encoding: 196 196 8
Width: 991
GlyphClass: 2
Flags: W
LayerCount: 2
Back
Fore
SplineSet
281 1599 m 1,0,-1
 438 1599 l 1,1,-1
 438 1427 l 1,2,-1
 281 1427 l 1,3,-1
 281 1599 l 1,0,-1
553 1599 m 1,4,-1
 711 1599 l 1,5,-1
 711 1427 l 1,6,-1
 553 1427 l 1,7,-1
 553 1599 l 1,4,-1
735 276 m 1,8,-1
 242 276 l 1,9,-1
 158 0 l 1,10,-1
 -2 0 l 1,11,-1
 393 1241 l 1,12,-1
 598 1241 l 1,13,-1
 991 0 l 1,14,-1
 819 0 l 1,15,-1
 735 276 l 1,8,-1
473 1047.5 m 128,-1,17
 464 999 464 999 457 975 c 2,18,-1
 287 422 l 1,19,-1
 690 422 l 1,20,-1
 522 975 l 2,21,22
 513 1001 513 1001 504 1048.5 c 128,-1,23
 495 1096 495 1096 492 1112 c 1,24,-1
 485 1112 l 1,25,16
 482 1096 482 1096 473 1047.5 c 128,-1,17
EndSplineSet
Position2: "'cpsp' Capital Spacing lookup 0 subtable" dx=5 dy=0 dh=10 dv=0
EndChar

StartChar: Agrave
Encoding: 192 192 9
Width: 991
GlyphClass: 2
Flags: W
LayerCount: 2
Back
Fore
SplineSet
283 1593 m 1,0,-1
 285 1599 l 1,1,-1
 446 1599 l 1,2,-1
 602 1360 l 1,3,-1
 477 1360 l 1,4,-1
 283 1593 l 1,0,-1
735 276 m 1,5,-1
 242 276 l 1,6,-1
 158 0 l 1,7,-1
 -2 0 l 1,8,-1
 393 1241 l 1,9,-1
 598 1241 l 1,10,-1
 991 0 l 1,11,-1
 819 0 l 1,12,-1
 735 276 l 1,5,-1
473 1047.5 m 128,-1,14
 464 999 464 999 457 975 c 2,15,-1
 287 422 l 1,16,-1
 690 422 l 1,17,-1
 522 975 l 2,18,19
 513 1001 513 1001 504 1048.5 c 128,-1,20
 495 1096 495 1096 492 1112 c 1,21,-1
 485 1112 l 1,22,13
 482 1096 482 1096 473 1047.5 c 128,-1,14
EndSplineSet
Position2: "'cpsp' Capital Spacing lookup 0 subtable" dx=5 dy=0 dh=10 dv=0
EndChar

StartChar: Amacron
Encoding: 256 256 10
Width: 991
GlyphClass: 2
Flags: W
LayerCount: 2
Back
Fore
SplineSet
268 1505 m 1,0,-1
 723 1505 l 1,1,-1
 723 1374 l 1,2,-1
 268 1374 l 1,3,-1
 268 1505 l 1,0,-1
735 276 m 1,4,-1
 242 276 l 1,5,-1
 158 0 l 1,6,-1
 -2 0 l 1,7,-1
 393 1241 l 1,8,-1
 598 1241 l 1,9,-1
 991 0 l 1,10,-1
 819 0 l 1,11,-1
 735 276 l 1,4,-1
473 1047.5 m 128,-1,13
 464 999 464 999 457 975 c 2,14,-1
 287 422 l 1,15,-1
 690 422 l 1,16,-1
 522 975 l 2,17,18
 513 1001 513 1001 504 1048.5 c 128,-1,19
 495 1096 495 1096 492 1112 c 1,20,-1
 485 1112 l 1,21,12
 482 1096 482 1096 473 1047.5 c 128,-1,13
EndSplineSet
Position2: "'cpsp' Capital Spacing lookup 0 subtable" dx=5 dy=0 dh=10 dv=0
EndChar

StartChar: Aogonek
Encoding: 260 260 11
Width: 991
GlyphClass: 2
Flags: W
LayerCount: 2
Back
Fore
SplineSet
1087 -305 m 1,0,1
 1023 -330 1023 -330 977 -330 c 0,2,3
 908 -330 908 -330 857.5 -291 c 128,-1,4
 807 -252 807 -252 807 -166 c 0,5,6
 807 -114 807 -114 824 -80 c 128,-1,7
 841 -46 841 -46 874 -6 c 2,8,-1
 879 0 l 1,9,-1
 819 0 l 1,10,-1
 735 276 l 1,11,-1
 242 276 l 1,12,-1
 158 0 l 1,13,-1
 -2 0 l 1,14,-1
 393 1241 l 1,15,-1
 598 1241 l 1,16,-1
 991 0 l 1,17,-1
 988 -5 l 2,18,19
 969 -32 969 -32 958.5 -56.5 c 128,-1,20
 948 -81 948 -81 948 -113 c 0,21,22
 948 -155 948 -155 968.5 -183 c 128,-1,23
 989 -211 989 -211 1032 -211 c 2,24,-1
 1087 -211 l 1,25,-1
 1087 -305 l 1,0,1
522 975 m 2,26,27
 513 1001 513 1001 504 1048.5 c 128,-1,28
 495 1096 495 1096 492 1112 c 1,29,-1
 485 1112 l 1,30,31
 482 1096 482 1096 473 1047.5 c 128,-1,32
 464 999 464 999 457 975 c 2,33,-1
 287 422 l 1,34,-1
 690 422 l 1,35,-1
 522 975 l 2,26,27
EndSplineSet
Position2: "'cpsp' Capital Spacing lookup 0 subtable" dx=5 dy=0 dh=10 dv=0
EndChar

StartChar: Aring
Encoding: 197 197 12
Width: 991
GlyphClass: 2
Flags: W
LayerCount: 2
Back
Fore
SplineSet
583 1633.5 m 128,-1,1
 623 1610 623 1610 645.5 1570 c 128,-1,2
 668 1530 668 1530 668 1483 c 0,3,4
 668 1435 668 1435 645 1395 c 128,-1,5
 622 1355 622 1355 582 1332 c 128,-1,6
 542 1309 542 1309 494 1309 c 0,7,8
 447 1309 447 1309 407 1332 c 128,-1,9
 367 1355 367 1355 343 1395 c 128,-1,10
 319 1435 319 1435 319 1483 c 0,11,12
 319 1530 319 1530 342.5 1570 c 128,-1,13
 366 1610 366 1610 406 1633.5 c 128,-1,14
 446 1657 446 1657 494 1657 c 0,15,0
 543 1657 543 1657 583 1633.5 c 128,-1,1
428.5 1548 m 128,-1,17
 401 1521 401 1521 401 1483 c 256,18,19
 401 1445 401 1445 428.5 1418 c 128,-1,20
 456 1391 456 1391 494 1391 c 0,21,22
 531 1391 531 1391 558.5 1418 c 128,-1,23
 586 1445 586 1445 586 1483 c 256,24,25
 586 1521 586 1521 558.5 1548 c 128,-1,26
 531 1575 531 1575 494 1575 c 0,27,16
 456 1575 456 1575 428.5 1548 c 128,-1,17
735 276 m 1,28,-1
 242 276 l 1,29,-1
 158 0 l 1,30,-1
 -2 0 l 1,31,-1
 393 1241 l 1,32,-1
 598 1241 l 1,33,-1
 991 0 l 1,34,-1
 819 0 l 1,35,-1
 735 276 l 1,28,-1
473 1047.5 m 128,-1,37
 464 999 464 999 457 975 c 2,38,-1
 287 422 l 1,39,-1
 690 422 l 1,40,-1
 522 975 l 2,41,42
 513 1001 513 1001 504 1048.5 c 128,-1,43
 495 1096 495 1096 492 1112 c 1,44,-1
 485 1112 l 1,45,36
 482 1096 482 1096 473 1047.5 c 128,-1,37
EndSplineSet
Position2: "'cpsp' Capital Spacing lookup 0 subtable" dx=5 dy=0 dh=10 dv=0
EndChar

StartChar: Aringacute
Encoding: 506 506 13
Width: 991
GlyphClass: 2
Flags: W
LayerCount: 2
Back
Fore
SplineSet
569 1733 m 1,0,-1
 731 1733 l 1,1,-1
 733 1724 l 1,2,-1
 565 1536 l 1,3,-1
 440 1536 l 1,4,-1
 569 1733 l 1,0,-1
584 1464.5 m 128,-1,6
 624 1442 624 1442 647 1403 c 128,-1,7
 670 1364 670 1364 670 1319 c 0,8,9
 670 1283 670 1283 654.5 1250.5 c 128,-1,10
 639 1218 639 1218 612 1194 c 1,11,-1
 991 0 l 1,12,-1
 819 0 l 1,13,-1
 735 276 l 1,14,-1
 242 276 l 1,15,-1
 158 0 l 1,16,-1
 -2 0 l 1,17,-1
 379 1196 l 1,18,19
 352 1218 352 1218 337 1250.5 c 128,-1,20
 322 1283 322 1283 322 1319 c 0,21,22
 322 1365 322 1365 345 1403.5 c 128,-1,23
 368 1442 368 1442 408 1464.5 c 128,-1,24
 448 1487 448 1487 496 1487 c 256,25,5
 544 1487 544 1487 584 1464.5 c 128,-1,6
430 1382.5 m 128,-1,27
 403 1356 403 1356 403 1319 c 0,28,29
 403 1283 403 1283 430 1257 c 128,-1,30
 457 1231 457 1231 496 1231 c 0,31,32
 533 1231 533 1231 560.5 1257.5 c 128,-1,33
 588 1284 588 1284 588 1319 c 0,34,35
 588 1356 588 1356 560.5 1382.5 c 128,-1,36
 533 1409 533 1409 496 1409 c 0,37,26
 457 1409 457 1409 430 1382.5 c 128,-1,27
473 1047.5 m 128,-1,39
 464 999 464 999 457 975 c 2,40,-1
 287 422 l 1,41,-1
 690 422 l 1,42,-1
 522 975 l 2,43,44
 513 1001 513 1001 504 1048.5 c 128,-1,45
 495 1096 495 1096 492 1112 c 1,46,-1
 485 1112 l 1,47,38
 482 1096 482 1096 473 1047.5 c 128,-1,39
EndSplineSet
Position2: "'cpsp' Capital Spacing lookup 0 subtable" dx=5 dy=0 dh=10 dv=0
EndChar

StartChar: Atilde
Encoding: 195 195 14
Width: 991
GlyphClass: 2
Flags: W
LayerCount: 2
Back
Fore
SplineSet
742 1511 m 128,-1,1
 726 1468 726 1468 691 1439.5 c 128,-1,2
 656 1411 656 1411 604 1411 c 0,3,4
 578 1411 578 1411 554.5 1418 c 128,-1,5
 531 1425 531 1425 495 1440 c 0,6,7
 463 1453 463 1453 441.5 1459.5 c 128,-1,8
 420 1466 420 1466 397 1466 c 0,9,10
 341 1466 341 1466 336 1411 c 1,11,-1
 229 1411 l 1,12,13
 229 1455 229 1455 245.5 1498.5 c 128,-1,14
 262 1542 262 1542 297 1570.5 c 128,-1,15
 332 1599 332 1599 383 1599 c 0,16,17
 410 1599 410 1599 434 1591.5 c 128,-1,18
 458 1584 458 1584 493 1570 c 0,19,20
 527 1557 527 1557 548 1550.5 c 128,-1,21
 569 1544 569 1544 592 1544 c 0,22,23
 619 1544 619 1544 634 1556 c 128,-1,24
 649 1568 649 1568 653 1599 c 1,25,-1
 758 1599 l 1,26,0
 758 1554 758 1554 742 1511 c 128,-1,1
735 276 m 1,27,-1
 242 276 l 1,28,-1
 158 0 l 1,29,-1
 -2 0 l 1,30,-1
 393 1241 l 1,31,-1
 598 1241 l 1,32,-1
 991 0 l 1,33,-1
 819 0 l 1,34,-1
 735 276 l 1,27,-1
473 1047.5 m 128,-1,36
 464 999 464 999 457 975 c 2,37,-1
 287 422 l 1,38,-1
 690 422 l 1,39,-1
 522 975 l 2,40,41
 513 1001 513 1001 504 1048.5 c 128,-1,42
 495 1096 495 1096 492 1112 c 1,43,-1
 485 1112 l 1,44,35
 482 1096 482 1096 473 1047.5 c 128,-1,36
EndSplineSet
Position2: "'cpsp' Capital Spacing lookup 0 subtable" dx=5 dy=0 dh=10 dv=0
EndChar

StartChar: AE
Encoding: 198 198 15
Width: 1485
GlyphClass: 2
Flags: W
AnchorPoint: "Anchor-1" 0 0 basechar 0
AnchorPoint: "Anchor-0" 741 1241 basechar 0
LayerCount: 2
Back
Fore
SplineSet
831 709 m 1,0,-1
 1327 709 l 1,1,-1
 1327 563 l 1,2,-1
 864 563 l 1,3,-1
 958 145 l 1,4,-1
 1417 145 l 1,5,-1
 1417 0 l 1,6,-1
 819 0 l 1,7,-1
 758 276 l 1,8,-1
 264 276 l 1,9,-1
 158 0 l 1,10,-1
 -2 0 l 1,11,-1
 506 1241 l 1,12,-1
 1407 1241 l 1,13,-1
 1407 1098 l 1,14,-1
 741 1098 l 1,15,-1
 831 709 l 1,0,-1
568 1066 m 2,16,17
 549 1008 549 1008 539 983 c 2,18,-1
 319 422 l 1,19,-1
 727 422 l 1,20,-1
 604 983 l 2,21,22
 601 997 601 997 591 1062 c 2,23,-1
 586 1096 l 1,24,-1
 578 1096 l 1,25,-1
 568 1066 l 2,16,17
EndSplineSet
Position2: "'cpsp' Capital Spacing lookup 0 subtable" dx=5 dy=0 dh=10 dv=0
EndChar

StartChar: AEacute
Encoding: 508 508 16
Width: 1485
GlyphClass: 2
Flags: W
LayerCount: 2
Back
Fore
SplineSet
811 1360 m 1,0,-1
 967 1599 l 1,1,-1
 1130 1599 l 1,2,-1
 1130 1593 l 1,3,-1
 936 1360 l 1,4,-1
 811 1360 l 1,0,-1
831 709 m 1,5,-1
 1327 709 l 1,6,-1
 1327 563 l 1,7,-1
 864 563 l 1,8,-1
 958 145 l 1,9,-1
 1417 145 l 1,10,-1
 1417 0 l 1,11,-1
 819 0 l 1,12,-1
 758 276 l 1,13,-1
 264 276 l 1,14,-1
 158 0 l 1,15,-1
 -2 0 l 1,16,-1
 506 1241 l 1,17,-1
 1407 1241 l 1,18,-1
 1407 1098 l 1,19,-1
 741 1098 l 1,20,-1
 831 709 l 1,5,-1
568 1066 m 2,21,22
 549 1008 549 1008 539 983 c 2,23,-1
 319 422 l 1,24,-1
 727 422 l 1,25,-1
 604 983 l 2,26,27
 601 997 601 997 591 1062 c 2,28,-1
 586 1096 l 1,29,-1
 578 1096 l 1,30,-1
 568 1066 l 2,21,22
EndSplineSet
Position2: "'cpsp' Capital Spacing lookup 0 subtable" dx=5 dy=0 dh=10 dv=0
EndChar

StartChar: B
Encoding: 66 66 17
Width: 991
GlyphClass: 2
Flags: W
LayerCount: 2
Back
Fore
SplineSet
752 1203 m 128,-1,1
 825 1165 825 1165 866.5 1096 c 128,-1,2
 908 1027 908 1027 908 938 c 0,3,4
 908 835 908 835 854.5 758.5 c 128,-1,5
 801 682 801 682 718 651 c 1,6,-1
 718 645 l 1,7,8
 780 625 780 625 830 580.5 c 128,-1,9
 880 536 880 536 908.5 471.5 c 128,-1,10
 937 407 937 407 937 330 c 0,11,12
 937 229 937 229 890 154 c 128,-1,13
 843 79 843 79 763 39.5 c 128,-1,14
 683 0 683 0 587 0 c 2,15,-1
 116 0 l 1,16,-1
 116 1241 l 1,17,-1
 587 1241 l 2,18,0
 679 1241 679 1241 752 1203 c 128,-1,1
645.5 735.5 m 128,-1,20
 691 762 691 762 715.5 806.5 c 128,-1,21
 740 851 740 851 740 903 c 0,22,23
 740 999 740 999 689.5 1048.5 c 128,-1,24
 639 1098 639 1098 552 1098 c 2,25,-1
 275 1098 l 1,26,-1
 275 709 l 1,27,-1
 540 709 l 2,28,19
 600 709 600 709 645.5 735.5 c 128,-1,20
714 199 m 128,-1,30
 771 253 771 253 771 350 c 0,31,32
 771 407 771 407 744 456 c 128,-1,33
 717 505 717 505 667.5 534 c 128,-1,34
 618 563 618 563 554 563 c 2,35,-1
 275 563 l 1,36,-1
 275 145 l 1,37,-1
 566 145 l 2,38,29
 657 145 657 145 714 199 c 128,-1,30
EndSplineSet
Position2: "'cpsp' Capital Spacing lookup 0 subtable" dx=5 dy=0 dh=10 dv=0
EndChar

StartChar: C
Encoding: 67 67 18
Width: 1071
GlyphClass: 2
Flags: W
AnchorPoint: "Anchor-1" 537 0 basechar 0
AnchorPoint: "Anchor-0" 537 1241 basechar 0
LayerCount: 2
Back
Fore
SplineSet
790.5 1211.5 m 128,-1,1
 888 1159 888 1159 942 1053.5 c 128,-1,2
 996 948 996 948 996 793 c 1,3,-1
 835 793 l 1,4,5
 835 951 835 951 762 1033.5 c 128,-1,6
 689 1116 689 1116 564 1116 c 0,7,8
 401 1116 401 1116 321 1004.5 c 128,-1,9
 241 893 241 893 241 666 c 2,10,-1
 241 575 l 2,11,12
 241 348 241 348 321 236.5 c 128,-1,13
 401 125 401 125 564 125 c 0,14,15
 692 125 692 125 765.5 206 c 128,-1,16
 839 287 839 287 839 444 c 1,17,-1
 996 444 l 1,18,19
 996 289 996 289 942 184 c 128,-1,20
 888 79 888 79 791 28 c 128,-1,21
 694 -23 694 -23 564 -23 c 0,22,23
 321 -23 321 -23 198 138 c 128,-1,24
 75 299 75 299 75 621 c 0,25,26
 75 1264 75 1264 564 1264 c 0,27,0
 693 1264 693 1264 790.5 1211.5 c 128,-1,1
EndSplineSet
Position2: "'cpsp' Capital Spacing lookup 0 subtable" dx=5 dy=0 dh=10 dv=0
EndChar

StartChar: Cacute
Encoding: 262 262 19
Width: 1071
GlyphClass: 2
Flags: W
LayerCount: 2
Back
Fore
SplineSet
454 1360 m 1,0,-1
 609 1599 l 1,1,-1
 771 1599 l 1,2,-1
 773 1593 l 1,3,-1
 579 1360 l 1,4,-1
 454 1360 l 1,0,-1
790.5 1211.5 m 128,-1,6
 888 1159 888 1159 942 1053.5 c 128,-1,7
 996 948 996 948 996 793 c 1,8,-1
 835 793 l 1,9,10
 835 951 835 951 762 1033.5 c 128,-1,11
 689 1116 689 1116 564 1116 c 0,12,13
 401 1116 401 1116 321 1004.5 c 128,-1,14
 241 893 241 893 241 666 c 2,15,-1
 241 575 l 2,16,17
 241 348 241 348 321 236.5 c 128,-1,18
 401 125 401 125 564 125 c 0,19,20
 692 125 692 125 765.5 206 c 128,-1,21
 839 287 839 287 839 444 c 1,22,-1
 996 444 l 1,23,24
 996 289 996 289 942 184 c 128,-1,25
 888 79 888 79 791 28 c 128,-1,26
 694 -23 694 -23 564 -23 c 0,27,28
 321 -23 321 -23 198 138 c 128,-1,29
 75 299 75 299 75 621 c 0,30,31
 75 1264 75 1264 564 1264 c 0,32,5
 693 1264 693 1264 790.5 1211.5 c 128,-1,6
EndSplineSet
Position2: "'cpsp' Capital Spacing lookup 0 subtable" dx=5 dy=0 dh=10 dv=0
EndChar

StartChar: Ccaron
Encoding: 268 268 20
Width: 1071
GlyphClass: 2
Flags: W
LayerCount: 2
Back
Fore
SplineSet
454 1599 m 1,0,-1
 536 1456 l 1,1,-1
 615 1599 l 1,2,-1
 761 1599 l 1,3,-1
 603 1354 l 1,4,-1
 462 1354 l 1,5,-1
 308 1599 l 1,6,-1
 454 1599 l 1,0,-1
790.5 1211.5 m 128,-1,8
 888 1159 888 1159 942 1053.5 c 128,-1,9
 996 948 996 948 996 793 c 1,10,-1
 835 793 l 1,11,12
 835 951 835 951 762 1033.5 c 128,-1,13
 689 1116 689 1116 564 1116 c 0,14,15
 401 1116 401 1116 321 1004.5 c 128,-1,16
 241 893 241 893 241 666 c 2,17,-1
 241 575 l 2,18,19
 241 348 241 348 321 236.5 c 128,-1,20
 401 125 401 125 564 125 c 0,21,22
 692 125 692 125 765.5 206 c 128,-1,23
 839 287 839 287 839 444 c 1,24,-1
 996 444 l 1,25,26
 996 289 996 289 942 184 c 128,-1,27
 888 79 888 79 791 28 c 128,-1,28
 694 -23 694 -23 564 -23 c 0,29,30
 321 -23 321 -23 198 138 c 128,-1,31
 75 299 75 299 75 621 c 0,32,33
 75 1264 75 1264 564 1264 c 0,34,7
 693 1264 693 1264 790.5 1211.5 c 128,-1,8
EndSplineSet
Position2: "'cpsp' Capital Spacing lookup 0 subtable" dx=5 dy=0 dh=10 dv=0
EndChar

StartChar: Ccedilla
Encoding: 199 199 21
Width: 1071
GlyphClass: 2
Flags: W
LayerCount: 2
Back
Fore
SplineSet
790.5 1211.5 m 128,-1,1
 888 1159 888 1159 942 1053.5 c 128,-1,2
 996 948 996 948 996 793 c 1,3,-1
 835 793 l 1,4,5
 835 951 835 951 762 1033.5 c 128,-1,6
 689 1116 689 1116 564 1116 c 0,7,8
 401 1116 401 1116 321 1004.5 c 128,-1,9
 241 893 241 893 241 666 c 2,10,-1
 241 575 l 2,11,12
 241 348 241 348 321 236.5 c 128,-1,13
 401 125 401 125 564 125 c 0,14,15
 692 125 692 125 765.5 206 c 128,-1,16
 839 287 839 287 839 444 c 1,17,-1
 996 444 l 1,18,19
 996 289 996 289 942 184 c 128,-1,20
 888 79 888 79 791 28 c 128,-1,21
 694 -23 694 -23 564 -23 c 1,22,-1
 558 -66 l 1,23,24
 623 -69 623 -69 664.5 -97 c 128,-1,25
 706 -125 706 -125 706 -182 c 0,26,27
 706 -264 706 -264 648 -297 c 128,-1,28
 590 -330 590 -330 517 -330 c 0,29,30
 438 -330 438 -330 366 -315 c 1,31,-1
 366 -227 l 1,32,-1
 503 -227 l 2,33,34
 535 -227 535 -227 551.5 -217 c 128,-1,35
 568 -207 568 -207 568 -182 c 0,36,37
 568 -160 568 -160 554.5 -149.5 c 128,-1,38
 541 -139 541 -139 507 -139 c 2,39,-1
 445 -139 l 1,40,-1
 466 -14 l 1,41,42
 272 15 272 15 173.5 174 c 128,-1,43
 75 333 75 333 75 621 c 0,44,45
 75 1264 75 1264 564 1264 c 0,46,0
 693 1264 693 1264 790.5 1211.5 c 128,-1,1
EndSplineSet
Position2: "'cpsp' Capital Spacing lookup 0 subtable" dx=5 dy=0 dh=10 dv=0
EndChar

StartChar: Ccircumflex
Encoding: 264 264 22
Width: 1071
GlyphClass: 2
Flags: W
LayerCount: 2
Back
Fore
SplineSet
454 1352 m 1,0,-1
 308 1352 l 1,1,-1
 464 1597 l 1,2,-1
 605 1597 l 1,3,-1
 761 1352 l 1,4,-1
 615 1352 l 1,5,-1
 538 1495 l 1,6,-1
 454 1352 l 1,0,-1
790.5 1211.5 m 128,-1,8
 888 1159 888 1159 942 1053.5 c 128,-1,9
 996 948 996 948 996 793 c 1,10,-1
 835 793 l 1,11,12
 835 951 835 951 762 1033.5 c 128,-1,13
 689 1116 689 1116 564 1116 c 0,14,15
 401 1116 401 1116 321 1004.5 c 128,-1,16
 241 893 241 893 241 666 c 2,17,-1
 241 575 l 2,18,19
 241 348 241 348 321 236.5 c 128,-1,20
 401 125 401 125 564 125 c 0,21,22
 692 125 692 125 765.5 206 c 128,-1,23
 839 287 839 287 839 444 c 1,24,-1
 996 444 l 1,25,26
 996 289 996 289 942 184 c 128,-1,27
 888 79 888 79 791 28 c 128,-1,28
 694 -23 694 -23 564 -23 c 0,29,30
 321 -23 321 -23 198 138 c 128,-1,31
 75 299 75 299 75 621 c 0,32,33
 75 1264 75 1264 564 1264 c 0,34,7
 693 1264 693 1264 790.5 1211.5 c 128,-1,8
EndSplineSet
Position2: "'cpsp' Capital Spacing lookup 0 subtable" dx=5 dy=0 dh=10 dv=0
EndChar

StartChar: Cdotaccent
Encoding: 266 266 23
Width: 1071
GlyphClass: 2
Flags: W
LayerCount: 2
Back
Fore
SplineSet
615 1599 m 1,0,-1
 615 1427 l 1,1,-1
 456 1427 l 1,2,-1
 456 1599 l 1,3,-1
 615 1599 l 1,0,-1
790.5 1211.5 m 128,-1,5
 888 1159 888 1159 942 1053.5 c 128,-1,6
 996 948 996 948 996 793 c 1,7,-1
 835 793 l 1,8,9
 835 951 835 951 762 1033.5 c 128,-1,10
 689 1116 689 1116 564 1116 c 0,11,12
 401 1116 401 1116 321 1004.5 c 128,-1,13
 241 893 241 893 241 666 c 2,14,-1
 241 575 l 2,15,16
 241 348 241 348 321 236.5 c 128,-1,17
 401 125 401 125 564 125 c 0,18,19
 692 125 692 125 765.5 206 c 128,-1,20
 839 287 839 287 839 444 c 1,21,-1
 996 444 l 1,22,23
 996 289 996 289 942 184 c 128,-1,24
 888 79 888 79 791 28 c 128,-1,25
 694 -23 694 -23 564 -23 c 0,26,27
 321 -23 321 -23 198 138 c 128,-1,28
 75 299 75 299 75 621 c 0,29,30
 75 1264 75 1264 564 1264 c 0,31,4
 693 1264 693 1264 790.5 1211.5 c 128,-1,5
EndSplineSet
Position2: "'cpsp' Capital Spacing lookup 0 subtable" dx=5 dy=0 dh=10 dv=0
EndChar

StartChar: D
Encoding: 68 68 24
Width: 1071
GlyphClass: 2
Flags: W
AnchorPoint: "Anchor-1" 0 0 basechar 0
AnchorPoint: "Anchor-0" 537 1241 basechar 0
LayerCount: 2
Back
Fore
SplineSet
764 1173 m 128,-1,1
 870 1105 870 1105 926 970.5 c 128,-1,2
 982 836 982 836 982 639 c 0,3,4
 982 429 982 429 926 286 c 128,-1,5
 870 143 870 143 764.5 71.5 c 128,-1,6
 659 0 659 0 511 0 c 2,7,-1
 126 0 l 1,8,-1
 126 1241 l 1,9,-1
 511 1241 l 2,10,0
 658 1241 658 1241 764 1173 c 128,-1,1
732 258.5 m 128,-1,12
 816 372 816 372 816 594 c 2,13,-1
 816 684 l 2,14,15
 816 888 816 888 731.5 993 c 128,-1,16
 647 1098 647 1098 497 1098 c 2,17,-1
 286 1098 l 1,18,-1
 286 145 l 1,19,-1
 497 145 l 2,20,11
 648 145 648 145 732 258.5 c 128,-1,12
EndSplineSet
Position2: "'cpsp' Capital Spacing lookup 0 subtable" dx=5 dy=0 dh=10 dv=0
EndChar

StartChar: Eth
Encoding: 208 208 25
Width: 1071
GlyphClass: 2
Flags: W
LayerCount: 2
Back
Fore
SplineSet
512 1241 m 2,0,1
 659 1241 659 1241 765 1173 c 128,-1,2
 871 1105 871 1105 927 970.5 c 128,-1,3
 983 836 983 836 983 639 c 0,4,5
 983 429 983 429 927 286 c 128,-1,6
 871 143 871 143 765.5 71.5 c 128,-1,7
 660 0 660 0 512 0 c 2,8,-1
 127 0 l 1,9,-1
 127 586 l 1,10,-1
 8 586 l 1,11,-1
 8 700 l 1,12,-1
 127 700 l 1,13,-1
 127 1241 l 1,14,-1
 512 1241 l 2,0,1
569 586 m 1,15,-1
 287 586 l 1,16,-1
 287 145 l 1,17,-1
 498 145 l 2,18,19
 649 145 649 145 733 258.5 c 128,-1,20
 817 372 817 372 817 594 c 2,21,-1
 817 684 l 2,22,23
 817 888 817 888 732.5 993 c 128,-1,24
 648 1098 648 1098 498 1098 c 2,25,-1
 287 1098 l 1,26,-1
 287 700 l 1,27,-1
 569 700 l 1,28,-1
 569 586 l 1,15,-1
EndSplineSet
Position2: "'cpsp' Capital Spacing lookup 0 subtable" dx=5 dy=0 dh=10 dv=0
EndChar

StartChar: Dcaron
Encoding: 270 270 26
Width: 1071
GlyphClass: 2
Flags: W
LayerCount: 2
Back
Fore
SplineSet
454 1599 m 1,0,-1
 536 1456 l 1,1,-1
 615 1599 l 1,2,-1
 761 1599 l 1,3,-1
 603 1354 l 1,4,-1
 462 1354 l 1,5,-1
 308 1599 l 1,6,-1
 454 1599 l 1,0,-1
764 1173 m 128,-1,8
 870 1105 870 1105 926 970.5 c 128,-1,9
 982 836 982 836 982 639 c 0,10,11
 982 429 982 429 926 286 c 128,-1,12
 870 143 870 143 764.5 71.5 c 128,-1,13
 659 0 659 0 511 0 c 2,14,-1
 126 0 l 1,15,-1
 126 1241 l 1,16,-1
 511 1241 l 2,17,7
 658 1241 658 1241 764 1173 c 128,-1,8
732 258.5 m 128,-1,19
 816 372 816 372 816 594 c 2,20,-1
 816 684 l 2,21,22
 816 888 816 888 731.5 993 c 128,-1,23
 647 1098 647 1098 497 1098 c 2,24,-1
 286 1098 l 1,25,-1
 286 145 l 1,26,-1
 497 145 l 2,27,18
 648 145 648 145 732 258.5 c 128,-1,19
EndSplineSet
Position2: "'cpsp' Capital Spacing lookup 0 subtable" dx=5 dy=0 dh=10 dv=0
EndChar

StartChar: Dcroat
Encoding: 272 272 27
Width: 1071
GlyphClass: 2
Flags: W
LayerCount: 2
Back
Fore
SplineSet
512 1241 m 2,0,1
 659 1241 659 1241 765 1173 c 128,-1,2
 871 1105 871 1105 927 970.5 c 128,-1,3
 983 836 983 836 983 639 c 0,4,5
 983 429 983 429 927 286 c 128,-1,6
 871 143 871 143 765.5 71.5 c 128,-1,7
 660 0 660 0 512 0 c 2,8,-1
 127 0 l 1,9,-1
 127 586 l 1,10,-1
 8 586 l 1,11,-1
 8 700 l 1,12,-1
 127 700 l 1,13,-1
 127 1241 l 1,14,-1
 512 1241 l 2,0,1
569 586 m 1,15,-1
 287 586 l 1,16,-1
 287 145 l 1,17,-1
 498 145 l 2,18,19
 649 145 649 145 733 258.5 c 128,-1,20
 817 372 817 372 817 594 c 2,21,-1
 817 684 l 2,22,23
 817 888 817 888 732.5 993 c 128,-1,24
 648 1098 648 1098 498 1098 c 2,25,-1
 287 1098 l 1,26,-1
 287 700 l 1,27,-1
 569 700 l 1,28,-1
 569 586 l 1,15,-1
EndSplineSet
Position2: "'cpsp' Capital Spacing lookup 0 subtable" dx=5 dy=0 dh=10 dv=0
EndChar

StartChar: E
Encoding: 69 69 28
Width: 991
GlyphClass: 2
Flags: W
AnchorPoint: "Anchor-1" 496 0 basechar 0
AnchorPoint: "Anchor-0" 496 1241 basechar 0
LayerCount: 2
Back
Fore
SplineSet
892 1098 m 1,0,-1
 286 1098 l 1,1,-1
 286 709 l 1,2,-1
 812 709 l 1,3,-1
 812 563 l 1,4,-1
 286 563 l 1,5,-1
 286 145 l 1,6,-1
 902 145 l 1,7,-1
 902 0 l 1,8,-1
 126 0 l 1,9,-1
 126 1241 l 1,10,-1
 892 1241 l 1,11,-1
 892 1098 l 1,0,-1
EndSplineSet
Position2: "'cpsp' Capital Spacing lookup 0 subtable" dx=5 dy=0 dh=10 dv=0
EndChar

StartChar: Eacute
Encoding: 201 201 29
Width: 991
GlyphClass: 2
Flags: W
LayerCount: 2
Back
Fore
SplineSet
386 1360 m 1,0,-1
 542 1599 l 1,1,-1
 706 1599 l 1,2,-1
 708 1593 l 1,3,-1
 511 1360 l 1,4,-1
 386 1360 l 1,0,-1
286 709 m 1,5,-1
 812 709 l 1,6,-1
 812 563 l 1,7,-1
 286 563 l 1,8,-1
 286 145 l 1,9,-1
 902 145 l 1,10,-1
 902 0 l 1,11,-1
 126 0 l 1,12,-1
 126 1241 l 1,13,-1
 892 1241 l 1,14,-1
 892 1098 l 1,15,-1
 286 1098 l 1,16,-1
 286 709 l 1,5,-1
EndSplineSet
Position2: "'cpsp' Capital Spacing lookup 0 subtable" dx=5 dy=0 dh=10 dv=0
EndChar

StartChar: Ebreve
Encoding: 276 276 30
Width: 991
GlyphClass: 2
Flags: W
LayerCount: 2
Back
Fore
SplineSet
690 1516.5 m 128,-1,1
 662 1476 662 1476 610.5 1449.5 c 128,-1,2
 559 1423 559 1423 493 1423 c 256,3,4
 427 1423 427 1423 376.5 1449.5 c 128,-1,5
 326 1476 326 1476 298.5 1516.5 c 128,-1,6
 271 1557 271 1557 271 1599 c 1,7,-1
 386 1599 l 1,8,9
 391 1577 391 1577 421 1557.5 c 128,-1,10
 451 1538 451 1538 493 1538 c 0,11,12
 522 1538 522 1538 546.5 1547.5 c 128,-1,13
 571 1557 571 1557 585.5 1571.5 c 128,-1,14
 600 1586 600 1586 601 1599 c 1,15,-1
 718 1599 l 1,16,0
 718 1557 718 1557 690 1516.5 c 128,-1,1
892 1098 m 1,17,-1
 286 1098 l 1,18,-1
 286 709 l 1,19,-1
 812 709 l 1,20,-1
 812 563 l 1,21,-1
 286 563 l 1,22,-1
 286 145 l 1,23,-1
 902 145 l 1,24,-1
 902 0 l 1,25,-1
 126 0 l 1,26,-1
 126 1241 l 1,27,-1
 892 1241 l 1,28,-1
 892 1098 l 1,17,-1
EndSplineSet
Position2: "'cpsp' Capital Spacing lookup 0 subtable" dx=5 dy=0 dh=10 dv=0
EndChar

StartChar: Ecaron
Encoding: 282 282 31
Width: 991
GlyphClass: 2
Flags: W
LayerCount: 2
Back
Fore
SplineSet
413 1599 m 1,0,-1
 493 1456 l 1,1,-1
 574 1599 l 1,2,-1
 720 1599 l 1,3,-1
 564 1354 l 1,4,-1
 423 1354 l 1,5,-1
 269 1599 l 1,6,-1
 413 1599 l 1,0,-1
892 1098 m 1,7,-1
 286 1098 l 1,8,-1
 286 709 l 1,9,-1
 812 709 l 1,10,-1
 812 563 l 1,11,-1
 286 563 l 1,12,-1
 286 145 l 1,13,-1
 902 145 l 1,14,-1
 902 0 l 1,15,-1
 126 0 l 1,16,-1
 126 1241 l 1,17,-1
 892 1241 l 1,18,-1
 892 1098 l 1,7,-1
EndSplineSet
Position2: "'cpsp' Capital Spacing lookup 0 subtable" dx=5 dy=0 dh=10 dv=0
EndChar

StartChar: Ecircumflex
Encoding: 202 202 32
Width: 991
GlyphClass: 2
Flags: W
LayerCount: 2
Back
Fore
SplineSet
413 1352 m 1,0,-1
 269 1352 l 1,1,-1
 425 1597 l 1,2,-1
 566 1597 l 1,3,-1
 720 1352 l 1,4,-1
 574 1352 l 1,5,-1
 495 1495 l 1,6,-1
 413 1352 l 1,0,-1
892 1098 m 1,7,-1
 286 1098 l 1,8,-1
 286 709 l 1,9,-1
 812 709 l 1,10,-1
 812 563 l 1,11,-1
 286 563 l 1,12,-1
 286 145 l 1,13,-1
 902 145 l 1,14,-1
 902 0 l 1,15,-1
 126 0 l 1,16,-1
 126 1241 l 1,17,-1
 892 1241 l 1,18,-1
 892 1098 l 1,7,-1
EndSplineSet
Position2: "'cpsp' Capital Spacing lookup 0 subtable" dx=5 dy=0 dh=10 dv=0
EndChar

StartChar: Edieresis
Encoding: 203 203 33
Width: 991
GlyphClass: 2
Flags: W
LayerCount: 2
Back
Fore
SplineSet
280 1599 m 1,0,-1
 437 1599 l 1,1,-1
 437 1427 l 1,2,-1
 280 1427 l 1,3,-1
 280 1599 l 1,0,-1
552 1599 m 1,4,-1
 710 1599 l 1,5,-1
 710 1427 l 1,6,-1
 552 1427 l 1,7,-1
 552 1599 l 1,4,-1
286 709 m 1,8,-1
 812 709 l 1,9,-1
 812 563 l 1,10,-1
 286 563 l 1,11,-1
 286 145 l 1,12,-1
 902 145 l 1,13,-1
 902 0 l 1,14,-1
 126 0 l 1,15,-1
 126 1241 l 1,16,-1
 892 1241 l 1,17,-1
 892 1098 l 1,18,-1
 286 1098 l 1,19,-1
 286 709 l 1,8,-1
EndSplineSet
Position2: "'cpsp' Capital Spacing lookup 0 subtable" dx=5 dy=0 dh=10 dv=0
EndChar

StartChar: Edotaccent
Encoding: 278 278 34
Width: 991
GlyphClass: 2
Flags: W
LayerCount: 2
Back
Fore
SplineSet
572 1599 m 1,0,-1
 572 1427 l 1,1,-1
 415 1427 l 1,2,-1
 415 1599 l 1,3,-1
 572 1599 l 1,0,-1
892 1098 m 1,4,-1
 286 1098 l 1,5,-1
 286 709 l 1,6,-1
 812 709 l 1,7,-1
 812 563 l 1,8,-1
 286 563 l 1,9,-1
 286 145 l 1,10,-1
 902 145 l 1,11,-1
 902 0 l 1,12,-1
 126 0 l 1,13,-1
 126 1241 l 1,14,-1
 892 1241 l 1,15,-1
 892 1098 l 1,4,-1
EndSplineSet
Position2: "'cpsp' Capital Spacing lookup 0 subtable" dx=5 dy=0 dh=10 dv=0
EndChar

StartChar: Egrave
Encoding: 200 200 35
Width: 991
GlyphClass: 2
Flags: W
LayerCount: 2
Back
Fore
SplineSet
282 1593 m 1,0,-1
 284 1599 l 1,1,-1
 445 1599 l 1,2,-1
 601 1360 l 1,3,-1
 476 1360 l 1,4,-1
 282 1593 l 1,0,-1
286 709 m 1,5,-1
 812 709 l 1,6,-1
 812 563 l 1,7,-1
 286 563 l 1,8,-1
 286 145 l 1,9,-1
 902 145 l 1,10,-1
 902 0 l 1,11,-1
 126 0 l 1,12,-1
 126 1241 l 1,13,-1
 892 1241 l 1,14,-1
 892 1098 l 1,15,-1
 286 1098 l 1,16,-1
 286 709 l 1,5,-1
EndSplineSet
Position2: "'cpsp' Capital Spacing lookup 0 subtable" dx=5 dy=0 dh=10 dv=0
EndChar

StartChar: Emacron
Encoding: 274 274 36
Width: 991
GlyphClass: 2
Flags: W
LayerCount: 2
Back
Fore
SplineSet
722 1505 m 1,0,-1
 722 1374 l 1,1,-1
 267 1374 l 1,2,-1
 267 1505 l 1,3,-1
 722 1505 l 1,0,-1
892 1098 m 1,4,-1
 286 1098 l 1,5,-1
 286 709 l 1,6,-1
 812 709 l 1,7,-1
 812 563 l 1,8,-1
 286 563 l 1,9,-1
 286 145 l 1,10,-1
 902 145 l 1,11,-1
 902 0 l 1,12,-1
 126 0 l 1,13,-1
 126 1241 l 1,14,-1
 892 1241 l 1,15,-1
 892 1098 l 1,4,-1
EndSplineSet
Position2: "'cpsp' Capital Spacing lookup 0 subtable" dx=5 dy=0 dh=10 dv=0
EndChar

StartChar: Eogonek
Encoding: 280 280 37
Width: 991
GlyphClass: 2
Flags: W
LayerCount: 2
Back
Fore
SplineSet
812 709 m 1,0,-1
 812 563 l 1,1,-1
 286 563 l 1,2,-1
 286 145 l 1,3,-1
 902 145 l 1,4,-1
 902 0 l 1,5,6
 884 -24 884 -24 871.5 -54 c 128,-1,7
 859 -84 859 -84 859 -113 c 0,8,9
 859 -155 859 -155 879.5 -183 c 128,-1,10
 900 -211 900 -211 943 -211 c 2,11,-1
 998 -211 l 1,12,-1
 998 -305 l 1,13,14
 965 -317 965 -317 939 -323.5 c 128,-1,15
 913 -330 913 -330 888 -330 c 0,16,17
 819 -330 819 -330 768.5 -291 c 128,-1,18
 718 -252 718 -252 718 -166 c 0,19,20
 718 -113 718 -113 735.5 -73.5 c 128,-1,21
 753 -34 753 -34 785 0 c 1,22,-1
 126 0 l 1,23,-1
 126 1241 l 1,24,-1
 892 1241 l 1,25,-1
 892 1098 l 1,26,-1
 286 1098 l 1,27,-1
 286 709 l 1,28,-1
 812 709 l 1,0,-1
EndSplineSet
Position2: "'cpsp' Capital Spacing lookup 0 subtable" dx=5 dy=0 dh=10 dv=0
EndChar

StartChar: F
Encoding: 70 70 38
Width: 907
GlyphClass: 2
Flags: W
LayerCount: 2
Back
Fore
SplineSet
843 1098 m 1,0,-1
 286 1098 l 1,1,-1
 286 694 l 1,2,-1
 777 694 l 1,3,-1
 777 551 l 1,4,-1
 286 551 l 1,5,-1
 286 0 l 1,6,-1
 126 0 l 1,7,-1
 126 1241 l 1,8,-1
 843 1241 l 1,9,-1
 843 1098 l 1,0,-1
EndSplineSet
Position2: "'cpsp' Capital Spacing lookup 0 subtable" dx=5 dy=0 dh=10 dv=0
EndChar

StartChar: G
Encoding: 71 71 39
Width: 1155
GlyphClass: 2
Flags: W
AnchorPoint: "Anchor-1" 578 0 basechar 0
AnchorPoint: "Anchor-0" 578 1241 basechar 0
LayerCount: 2
Back
Fore
SplineSet
1037 647 m 1,0,-1
 1037 0 l 1,1,-1
 931 0 l 1,2,-1
 896 137 l 1,3,4
 787 -23 787 -23 577 -23 c 0,5,6
 339 -23 339 -23 213 139 c 128,-1,7
 87 301 87 301 87 621 c 0,8,9
 87 834 87 834 146.5 977.5 c 128,-1,10
 206 1121 206 1121 317 1192.5 c 128,-1,11
 428 1264 428 1264 585 1264 c 0,12,13
 718 1264 718 1264 819.5 1214 c 128,-1,14
 921 1164 921 1164 979 1064 c 128,-1,15
 1037 964 1037 964 1037 819 c 1,16,-1
 873 819 l 1,17,18
 873 968 873 968 796 1042 c 128,-1,19
 719 1116 719 1116 585 1116 c 0,20,21
 429 1116 429 1116 342 1002.5 c 128,-1,22
 255 889 255 889 255 666 c 2,23,-1
 255 575 l 2,24,25
 255 350 255 350 337 237.5 c 128,-1,26
 419 125 419 125 577 125 c 0,27,28
 730 125 730 125 801.5 212 c 128,-1,29
 873 299 873 299 873 477 c 2,30,-1
 873 508 l 1,31,-1
 552 508 l 1,32,-1
 552 647 l 1,33,-1
 1037 647 l 1,0,-1
EndSplineSet
Position2: "'cpsp' Capital Spacing lookup 0 subtable" dx=5 dy=0 dh=10 dv=0
EndChar

StartChar: Gbreve
Encoding: 286 286 40
Width: 1155
GlyphClass: 2
Flags: W
LayerCount: 2
Back
Fore
SplineSet
460 1449.5 m 128,-1,1
 409 1476 409 1476 381 1516.5 c 128,-1,2
 353 1557 353 1557 353 1599 c 1,3,-1
 470 1599 l 1,4,5
 472 1586 472 1586 486.5 1571.5 c 128,-1,6
 501 1557 501 1557 525 1547.5 c 128,-1,7
 549 1538 549 1538 577 1538 c 0,8,9
 606 1538 606 1538 630 1547.5 c 128,-1,10
 654 1557 654 1557 668.5 1571 c 128,-1,11
 683 1585 683 1585 685 1599 c 1,12,-1
 802 1599 l 1,13,14
 802 1557 802 1557 774 1516.5 c 128,-1,15
 746 1476 746 1476 694.5 1449.5 c 128,-1,16
 643 1423 643 1423 577 1423 c 256,17,0
 511 1423 511 1423 460 1449.5 c 128,-1,1
1037 647 m 1,18,-1
 1037 0 l 1,19,-1
 931 0 l 1,20,-1
 896 137 l 1,21,22
 787 -23 787 -23 577 -23 c 0,23,24
 339 -23 339 -23 213 139 c 128,-1,25
 87 301 87 301 87 621 c 0,26,27
 87 834 87 834 146.5 977.5 c 128,-1,28
 206 1121 206 1121 317 1192.5 c 128,-1,29
 428 1264 428 1264 585 1264 c 0,30,31
 718 1264 718 1264 819.5 1214 c 128,-1,32
 921 1164 921 1164 979 1064 c 128,-1,33
 1037 964 1037 964 1037 819 c 1,34,-1
 873 819 l 1,35,36
 873 968 873 968 796 1042 c 128,-1,37
 719 1116 719 1116 585 1116 c 0,38,39
 429 1116 429 1116 342 1002.5 c 128,-1,40
 255 889 255 889 255 666 c 2,41,-1
 255 575 l 2,42,43
 255 350 255 350 337 237.5 c 128,-1,44
 419 125 419 125 577 125 c 0,45,46
 730 125 730 125 801.5 212 c 128,-1,47
 873 299 873 299 873 477 c 2,48,-1
 873 508 l 1,49,-1
 552 508 l 1,50,-1
 552 647 l 1,51,-1
 1037 647 l 1,18,-1
EndSplineSet
Position2: "'cpsp' Capital Spacing lookup 0 subtable" dx=5 dy=0 dh=10 dv=0
EndChar

StartChar: Gcircumflex
Encoding: 284 284 41
Width: 1155
GlyphClass: 2
Flags: W
LayerCount: 2
Back
Fore
SplineSet
351 1352 m 1,0,-1
 507 1597 l 1,1,-1
 648 1597 l 1,2,-1
 802 1352 l 1,3,-1
 658 1352 l 1,4,-1
 579 1495 l 1,5,-1
 497 1352 l 1,6,-1
 351 1352 l 1,0,-1
1037 647 m 1,7,-1
 1037 0 l 1,8,-1
 931 0 l 1,9,-1
 896 137 l 1,10,11
 787 -23 787 -23 577 -23 c 0,12,13
 339 -23 339 -23 213 139 c 128,-1,14
 87 301 87 301 87 621 c 0,15,16
 87 834 87 834 146.5 977.5 c 128,-1,17
 206 1121 206 1121 317 1192.5 c 128,-1,18
 428 1264 428 1264 585 1264 c 0,19,20
 718 1264 718 1264 819.5 1214 c 128,-1,21
 921 1164 921 1164 979 1064 c 128,-1,22
 1037 964 1037 964 1037 819 c 1,23,-1
 873 819 l 1,24,25
 873 968 873 968 796 1042 c 128,-1,26
 719 1116 719 1116 585 1116 c 0,27,28
 429 1116 429 1116 342 1002.5 c 128,-1,29
 255 889 255 889 255 666 c 2,30,-1
 255 575 l 2,31,32
 255 350 255 350 337 237.5 c 128,-1,33
 419 125 419 125 577 125 c 0,34,35
 730 125 730 125 801.5 212 c 128,-1,36
 873 299 873 299 873 477 c 2,37,-1
 873 508 l 1,38,-1
 552 508 l 1,39,-1
 552 647 l 1,40,-1
 1037 647 l 1,7,-1
EndSplineSet
Position2: "'cpsp' Capital Spacing lookup 0 subtable" dx=5 dy=0 dh=10 dv=0
EndChar

StartChar: Gcommaaccent
Encoding: 290 290 42
Width: 1155
GlyphClass: 2
Flags: W
LayerCount: 2
Back
Fore
SplineSet
1037 647 m 1,0,-1
 1037 0 l 1,1,-1
 931 0 l 1,2,-1
 896 137 l 1,3,4
 787 -23 787 -23 577 -23 c 0,5,6
 339 -23 339 -23 213 139 c 128,-1,7
 87 301 87 301 87 621 c 0,8,9
 87 834 87 834 146.5 977.5 c 128,-1,10
 206 1121 206 1121 317 1192.5 c 128,-1,11
 428 1264 428 1264 585 1264 c 0,12,13
 718 1264 718 1264 819.5 1214 c 128,-1,14
 921 1164 921 1164 979 1064 c 128,-1,15
 1037 964 1037 964 1037 819 c 1,16,-1
 873 819 l 1,17,18
 873 968 873 968 796 1042 c 128,-1,19
 719 1116 719 1116 585 1116 c 0,20,21
 429 1116 429 1116 342 1002.5 c 128,-1,22
 255 889 255 889 255 666 c 2,23,-1
 255 575 l 2,24,25
 255 350 255 350 337 237.5 c 128,-1,26
 419 125 419 125 577 125 c 0,27,28
 730 125 730 125 801.5 212 c 128,-1,29
 873 299 873 299 873 477 c 2,30,-1
 873 508 l 1,31,-1
 552 508 l 1,32,-1
 552 647 l 1,33,-1
 1037 647 l 1,0,-1
654 -109 m 1,34,-1
 654 -260 l 1,35,-1
 601 -401 l 1,36,-1
 521 -401 l 1,37,-1
 562 -272 l 1,38,-1
 501 -272 l 1,39,-1
 501 -109 l 1,40,-1
 654 -109 l 1,34,-1
EndSplineSet
Position2: "'cpsp' Capital Spacing lookup 0 subtable" dx=5 dy=0 dh=10 dv=0
EndChar

StartChar: Gdotaccent
Encoding: 288 288 43
Width: 1155
GlyphClass: 2
Flags: W
LayerCount: 2
Back
Fore
SplineSet
499 1427 m 1,0,-1
 499 1599 l 1,1,-1
 656 1599 l 1,2,-1
 656 1427 l 1,3,-1
 499 1427 l 1,0,-1
1037 647 m 1,4,-1
 1037 0 l 1,5,-1
 931 0 l 1,6,-1
 896 137 l 1,7,8
 787 -23 787 -23 577 -23 c 0,9,10
 339 -23 339 -23 213 139 c 128,-1,11
 87 301 87 301 87 621 c 0,12,13
 87 834 87 834 146.5 977.5 c 128,-1,14
 206 1121 206 1121 317 1192.5 c 128,-1,15
 428 1264 428 1264 585 1264 c 0,16,17
 718 1264 718 1264 819.5 1214 c 128,-1,18
 921 1164 921 1164 979 1064 c 128,-1,19
 1037 964 1037 964 1037 819 c 1,20,-1
 873 819 l 1,21,22
 873 968 873 968 796 1042 c 128,-1,23
 719 1116 719 1116 585 1116 c 0,24,25
 429 1116 429 1116 342 1002.5 c 128,-1,26
 255 889 255 889 255 666 c 2,27,-1
 255 575 l 2,28,29
 255 350 255 350 337 237.5 c 128,-1,30
 419 125 419 125 577 125 c 0,31,32
 730 125 730 125 801.5 212 c 128,-1,33
 873 299 873 299 873 477 c 2,34,-1
 873 508 l 1,35,-1
 552 508 l 1,36,-1
 552 647 l 1,37,-1
 1037 647 l 1,4,-1
EndSplineSet
Position2: "'cpsp' Capital Spacing lookup 0 subtable" dx=5 dy=0 dh=10 dv=0
EndChar

StartChar: H
Encoding: 72 72 44
Width: 1071
GlyphClass: 2
Flags: W
AnchorPoint: "Anchor-1" 0 0 basechar 0
AnchorPoint: "Anchor-0" 537 1241 basechar 0
LayerCount: 2
Back
Fore
SplineSet
785 563 m 1,0,-1
 286 563 l 1,1,-1
 286 0 l 1,2,-1
 126 0 l 1,3,-1
 126 1241 l 1,4,-1
 286 1241 l 1,5,-1
 286 709 l 1,6,-1
 785 709 l 1,7,-1
 785 1241 l 1,8,-1
 943 1241 l 1,9,-1
 943 0 l 1,10,-1
 785 0 l 1,11,-1
 785 563 l 1,0,-1
EndSplineSet
Position2: "'cpsp' Capital Spacing lookup 0 subtable" dx=5 dy=0 dh=10 dv=0
EndChar

StartChar: Hbar
Encoding: 294 294 45
Width: 1071
GlyphClass: 2
Flags: W
LayerCount: 2
Back
Fore
SplineSet
785 0 m 1,0,-1
 785 555 l 1,1,-1
 286 555 l 1,2,-1
 286 0 l 1,3,-1
 126 0 l 1,4,-1
 126 887 l 1,5,-1
 36 887 l 1,6,-1
 36 1018 l 1,7,-1
 126 1018 l 1,8,-1
 126 1241 l 1,9,-1
 286 1241 l 1,10,-1
 286 1018 l 1,11,-1
 785 1018 l 1,12,-1
 785 1241 l 1,13,-1
 943 1241 l 1,14,-1
 943 1018 l 1,15,-1
 1035 1018 l 1,16,-1
 1035 887 l 1,17,-1
 943 887 l 1,18,-1
 943 0 l 1,19,-1
 785 0 l 1,0,-1
286 698 m 1,20,-1
 785 698 l 1,21,-1
 785 887 l 1,22,-1
 286 887 l 1,23,-1
 286 698 l 1,20,-1
EndSplineSet
Position2: "'cpsp' Capital Spacing lookup 0 subtable" dx=5 dy=0 dh=10 dv=0
EndChar

StartChar: Hcircumflex
Encoding: 292 292 46
Width: 1071
GlyphClass: 2
Flags: W
LayerCount: 2
Back
Fore
SplineSet
538 1495 m 1,0,-1
 454 1352 l 1,1,-1
 308 1352 l 1,2,-1
 464 1597 l 1,3,-1
 605 1597 l 1,4,-1
 761 1352 l 1,5,-1
 615 1352 l 1,6,-1
 538 1495 l 1,0,-1
785 563 m 1,7,-1
 286 563 l 1,8,-1
 286 0 l 1,9,-1
 126 0 l 1,10,-1
 126 1241 l 1,11,-1
 286 1241 l 1,12,-1
 286 709 l 1,13,-1
 785 709 l 1,14,-1
 785 1241 l 1,15,-1
 943 1241 l 1,16,-1
 943 0 l 1,17,-1
 785 0 l 1,18,-1
 785 563 l 1,7,-1
EndSplineSet
Position2: "'cpsp' Capital Spacing lookup 0 subtable" dx=5 dy=0 dh=10 dv=0
EndChar

StartChar: I
Encoding: 73 73 47
Width: 414
GlyphClass: 2
Flags: W
AnchorPoint: "Anchor-1" 0 0 basechar 0
AnchorPoint: "Anchor-0" 207 1241 basechar 0
LayerCount: 2
Back
Fore
SplineSet
286 1241 m 1,0,-1
 286 0 l 1,1,-1
 126 0 l 1,2,-1
 126 1241 l 1,3,-1
 286 1241 l 1,0,-1
EndSplineSet
Position2: "'cpsp' Capital Spacing lookup 0 subtable" dx=5 dy=0 dh=10 dv=0
EndChar

StartChar: IJ
Encoding: 306 306 48
Width: 1155
GlyphClass: 2
Flags: W
LayerCount: 2
Back
Fore
SplineSet
126 1241 m 1,0,-1
 286 1241 l 1,1,-1
 286 0 l 1,2,-1
 126 0 l 1,3,-1
 126 1241 l 1,0,-1
958.5 59 m 128,-1,5
 880 -23 880 -23 736 -23 c 256,6,7
 592 -23 592 -23 513.5 59 c 128,-1,8
 435 141 435 141 435 295 c 2,9,-1
 435 377 l 1,10,-1
 595 377 l 1,11,-1
 595 287 l 2,12,13
 595 207 595 207 631.5 166 c 128,-1,14
 668 125 668 125 736 125 c 256,15,16
 804 125 804 125 841 166.5 c 128,-1,17
 878 208 878 208 878 287 c 2,18,-1
 878 1241 l 1,19,-1
 1037 1241 l 1,20,-1
 1037 295 l 2,21,4
 1037 141 1037 141 958.5 59 c 128,-1,5
EndSplineSet
Position2: "'cpsp' Capital Spacing lookup 0 subtable" dx=5 dy=0 dh=10 dv=0
EndChar

StartChar: Iacute
Encoding: 205 205 49
Width: 414
GlyphClass: 2
Flags: W
LayerCount: 2
Back
Fore
SplineSet
99 1360 m 1,0,-1
 255 1599 l 1,1,-1
 415 1599 l 1,2,-1
 417 1593 l 1,3,-1
 224 1360 l 1,4,-1
 99 1360 l 1,0,-1
126 1241 m 1,5,-1
 286 1241 l 1,6,-1
 286 0 l 1,7,-1
 126 0 l 1,8,-1
 126 1241 l 1,5,-1
EndSplineSet
Position2: "'cpsp' Capital Spacing lookup 0 subtable" dx=5 dy=0 dh=10 dv=0
EndChar

StartChar: Ibreve
Encoding: 300 300 50
Width: 414
GlyphClass: 2
Flags: W
LayerCount: 2
Back
Fore
SplineSet
402.5 1516.5 m 128,-1,1
 375 1476 375 1476 324 1449.5 c 128,-1,2
 273 1423 273 1423 207 1423 c 0,3,4
 142 1423 142 1423 90.5 1449.5 c 128,-1,5
 39 1476 39 1476 10.5 1517 c 128,-1,6
 -18 1558 -18 1558 -18 1599 c 1,7,-1
 100 1599 l 1,8,9
 102 1586 102 1586 116.5 1571.5 c 128,-1,10
 131 1557 131 1557 155 1547.5 c 128,-1,11
 179 1538 179 1538 207 1538 c 0,12,13
 236 1538 236 1538 260 1547.5 c 128,-1,14
 284 1557 284 1557 298.5 1571 c 128,-1,15
 313 1585 313 1585 315 1599 c 1,16,-1
 430 1599 l 1,17,0
 430 1557 430 1557 402.5 1516.5 c 128,-1,1
287 1241 m 1,18,-1
 287 0 l 1,19,-1
 127 0 l 1,20,-1
 127 1241 l 1,21,-1
 287 1241 l 1,18,-1
EndSplineSet
Position2: "'cpsp' Capital Spacing lookup 0 subtable" dx=5 dy=0 dh=10 dv=0
EndChar

StartChar: Icircumflex
Encoding: 206 206 51
Width: 414
GlyphClass: 2
Flags: W
LayerCount: 2
Back
Fore
SplineSet
127 1352 m 1,0,-1
 -20 1352 l 1,1,-1
 137 1597 l 1,2,-1
 279 1597 l 1,3,-1
 432 1352 l 1,4,-1
 289 1352 l 1,5,-1
 209 1495 l 1,6,-1
 127 1352 l 1,0,-1
287 1241 m 1,7,-1
 287 0 l 1,8,-1
 127 0 l 1,9,-1
 127 1241 l 1,10,-1
 287 1241 l 1,7,-1
EndSplineSet
Position2: "'cpsp' Capital Spacing lookup 0 subtable" dx=5 dy=0 dh=10 dv=0
EndChar

StartChar: Idieresis
Encoding: 207 207 52
Width: 414
GlyphClass: 2
Flags: W
LayerCount: 2
Back
Fore
SplineSet
-8 1599 m 1,0,-1
 150 1599 l 1,1,-1
 150 1427 l 1,2,-1
 -8 1427 l 1,3,-1
 -8 1599 l 1,0,-1
264 1599 m 1,4,-1
 422 1599 l 1,5,-1
 422 1427 l 1,6,-1
 264 1427 l 1,7,-1
 264 1599 l 1,4,-1
127 1241 m 1,8,-1
 287 1241 l 1,9,-1
 287 0 l 1,10,-1
 127 0 l 1,11,-1
 127 1241 l 1,8,-1
EndSplineSet
Position2: "'cpsp' Capital Spacing lookup 0 subtable" dx=5 dy=0 dh=10 dv=0
EndChar

StartChar: Idotaccent
Encoding: 304 304 53
Width: 414
GlyphClass: 2
Flags: W
LayerCount: 2
Back
Fore
SplineSet
286 1599 m 1,0,-1
 286 1427 l 1,1,-1
 128 1427 l 1,2,-1
 128 1599 l 1,3,-1
 286 1599 l 1,0,-1
286 1241 m 1,4,-1
 286 0 l 1,5,-1
 126 0 l 1,6,-1
 126 1241 l 1,7,-1
 286 1241 l 1,4,-1
EndSplineSet
Position2: "'cpsp' Capital Spacing lookup 0 subtable" dx=5 dy=0 dh=10 dv=0
EndChar

StartChar: Igrave
Encoding: 204 204 54
Width: 414
GlyphClass: 2
Flags: W
LayerCount: 2
Back
Fore
SplineSet
-6 1593 m 1,0,-1
 -4 1599 l 1,1,-1
 160 1599 l 1,2,-1
 315 1360 l 1,3,-1
 190 1360 l 1,4,-1
 -6 1593 l 1,0,-1
127 1241 m 1,5,-1
 287 1241 l 1,6,-1
 287 0 l 1,7,-1
 127 0 l 1,8,-1
 127 1241 l 1,5,-1
EndSplineSet
Position2: "'cpsp' Capital Spacing lookup 0 subtable" dx=5 dy=0 dh=10 dv=0
EndChar

StartChar: Imacron
Encoding: 298 298 55
Width: 414
GlyphClass: 2
Flags: W
LayerCount: 2
Back
Fore
SplineSet
434 1505 m 1,0,-1
 434 1374 l 1,1,-1
 -20 1374 l 1,2,-1
 -20 1505 l 1,3,-1
 434 1505 l 1,0,-1
287 1241 m 1,4,-1
 287 0 l 1,5,-1
 127 0 l 1,6,-1
 127 1241 l 1,7,-1
 287 1241 l 1,4,-1
EndSplineSet
Position2: "'cpsp' Capital Spacing lookup 0 subtable" dx=5 dy=0 dh=10 dv=0
EndChar

StartChar: Iogonek
Encoding: 302 302 56
Width: 414
GlyphClass: 2
Flags: W
LayerCount: 2
Back
Fore
SplineSet
283 -4 m 2,0,1
 264 -30 264 -30 252.5 -55 c 128,-1,2
 241 -80 241 -80 241 -113 c 0,3,4
 241 -155 241 -155 262 -183 c 128,-1,5
 283 -211 283 -211 325 -211 c 2,6,-1
 382 -211 l 1,7,-1
 382 -305 l 1,8,9
 316 -330 316 -330 271 -330 c 0,10,11
 203 -330 203 -330 152 -291 c 128,-1,12
 101 -252 101 -252 101 -166 c 0,13,14
 101 -112 101 -112 118 -73.5 c 128,-1,15
 135 -35 135 -35 167 0 c 1,16,-1
 126 0 l 1,17,-1
 126 1241 l 1,18,-1
 286 1241 l 1,19,-1
 286 0 l 1,20,-1
 283 -4 l 2,0,1
EndSplineSet
Position2: "'cpsp' Capital Spacing lookup 0 subtable" dx=5 dy=0 dh=10 dv=0
EndChar

StartChar: Itilde
Encoding: 296 296 57
Width: 414
GlyphClass: 2
Flags: W
LayerCount: 2
Back
Fore
SplineSet
454.5 1511 m 128,-1,1
 438 1468 438 1468 403 1439.5 c 128,-1,2
 368 1411 368 1411 317 1411 c 0,3,4
 291 1411 291 1411 266.5 1418 c 128,-1,5
 242 1425 242 1425 209 1439 c 0,6,7
 177 1452 177 1452 155 1459 c 128,-1,8
 133 1466 133 1466 109 1466 c 0,9,10
 55 1466 55 1466 47 1411 c 1,11,-1
 -57 1411 l 1,12,13
 -57 1455 -57 1455 -40.5 1498.5 c 128,-1,14
 -24 1542 -24 1542 10.5 1570.5 c 128,-1,15
 45 1599 45 1599 96 1599 c 0,16,17
 123 1599 123 1599 147.5 1592 c 128,-1,18
 172 1585 172 1585 205 1571 c 0,19,20
 237 1558 237 1558 259 1551 c 128,-1,21
 281 1544 281 1544 305 1544 c 0,22,23
 330 1544 330 1544 346 1556.5 c 128,-1,24
 362 1569 362 1569 367 1599 c 1,25,-1
 471 1599 l 1,26,0
 471 1554 471 1554 454.5 1511 c 128,-1,1
287 1241 m 1,27,-1
 287 0 l 1,28,-1
 127 0 l 1,29,-1
 127 1241 l 1,30,-1
 287 1241 l 1,27,-1
EndSplineSet
Position2: "'cpsp' Capital Spacing lookup 0 subtable" dx=5 dy=0 dh=10 dv=0
EndChar

StartChar: J
Encoding: 74 74 58
Width: 741
GlyphClass: 2
Flags: W
AnchorPoint: "Anchor-1" 0 0 basechar 0
AnchorPoint: "Anchor-0" 371 1241 basechar 0
LayerCount: 2
Back
Fore
SplineSet
545.5 59 m 128,-1,1
 467 -23 467 -23 323 -23 c 256,2,3
 179 -23 179 -23 100.5 59 c 128,-1,4
 22 141 22 141 22 295 c 2,5,-1
 22 377 l 1,6,-1
 181 377 l 1,7,-1
 181 287 l 2,8,9
 181 207 181 207 217.5 166 c 128,-1,10
 254 125 254 125 323 125 c 0,11,12
 391 125 391 125 427.5 166 c 128,-1,13
 464 207 464 207 464 287 c 2,14,-1
 464 1241 l 1,15,-1
 624 1241 l 1,16,-1
 624 295 l 2,17,0
 624 141 624 141 545.5 59 c 128,-1,1
EndSplineSet
Position2: "'cpsp' Capital Spacing lookup 0 subtable" dx=5 dy=0 dh=10 dv=0
EndChar

StartChar: Jcircumflex
Encoding: 308 308 59
Width: 741
GlyphClass: 2
Flags: W
LayerCount: 2
Back
Fore
SplineSet
548 1495 m 1,0,-1
 464 1352 l 1,1,-1
 318 1352 l 1,2,-1
 474 1597 l 1,3,-1
 615 1597 l 1,4,-1
 771 1352 l 1,5,-1
 628 1352 l 1,6,-1
 548 1495 l 1,0,-1
545.5 59 m 128,-1,8
 467 -23 467 -23 323 -23 c 256,9,10
 179 -23 179 -23 100.5 59 c 128,-1,11
 22 141 22 141 22 295 c 2,12,-1
 22 377 l 1,13,-1
 181 377 l 1,14,-1
 181 287 l 2,15,16
 181 207 181 207 217.5 166 c 128,-1,17
 254 125 254 125 323 125 c 0,18,19
 391 125 391 125 427.5 166 c 128,-1,20
 464 207 464 207 464 287 c 2,21,-1
 464 1241 l 1,22,-1
 624 1241 l 1,23,-1
 624 295 l 2,24,7
 624 141 624 141 545.5 59 c 128,-1,8
EndSplineSet
Position2: "'cpsp' Capital Spacing lookup 0 subtable" dx=5 dy=0 dh=10 dv=0
EndChar

StartChar: K
Encoding: 75 75 60
Width: 991
GlyphClass: 2
Flags: W
AnchorPoint: "Anchor-1" 496 0 basechar 0
AnchorPoint: "Anchor-0" 496 1241 basechar 0
LayerCount: 2
Back
Fore
SplineSet
583 741 m 1,0,-1
 968 0 l 1,1,-1
 787 0 l 1,2,-1
 484 606 l 1,3,-1
 286 385 l 1,4,-1
 286 0 l 1,5,-1
 126 0 l 1,6,-1
 126 1241 l 1,7,-1
 286 1241 l 1,8,-1
 286 586 l 1,9,-1
 777 1241 l 1,10,-1
 955 1241 l 1,11,-1
 583 741 l 1,0,-1
EndSplineSet
Position2: "'cpsp' Capital Spacing lookup 0 subtable" dx=5 dy=0 dh=10 dv=0
EndChar

StartChar: Kcommaaccent
Encoding: 310 310 61
Width: 991
GlyphClass: 2
Flags: W
LayerCount: 2
Back
Fore
SplineSet
583 741 m 1,0,-1
 968 0 l 1,1,-1
 787 0 l 1,2,-1
 484 606 l 1,3,-1
 286 385 l 1,4,-1
 286 0 l 1,5,-1
 126 0 l 1,6,-1
 126 1241 l 1,7,-1
 286 1241 l 1,8,-1
 286 586 l 1,9,-1
 777 1241 l 1,10,-1
 955 1241 l 1,11,-1
 583 741 l 1,0,-1
478 -272 m 1,12,-1
 417 -272 l 1,13,-1
 417 -109 l 1,14,-1
 570 -109 l 1,15,-1
 570 -260 l 1,16,-1
 519 -401 l 1,17,-1
 439 -401 l 1,18,-1
 478 -272 l 1,12,-1
EndSplineSet
Position2: "'cpsp' Capital Spacing lookup 0 subtable" dx=5 dy=0 dh=10 dv=0
EndChar

StartChar: L
Encoding: 76 76 62
Width: 825
GlyphClass: 2
Flags: W
AnchorPoint: "Anchor-1" 414 0 basechar 0
AnchorPoint: "Anchor-0" 414 1241 basechar 0
LayerCount: 2
Back
Fore
SplineSet
792 0 m 1,0,-1
 126 0 l 1,1,-1
 126 1241 l 1,2,-1
 286 1241 l 1,3,-1
 286 145 l 1,4,-1
 792 145 l 1,5,-1
 792 0 l 1,0,-1
EndSplineSet
Position2: "'cpsp' Capital Spacing lookup 0 subtable" dx=5 dy=0 dh=10 dv=0
EndChar

StartChar: Lacute
Encoding: 313 313 63
Width: 825
GlyphClass: 2
Flags: W
LayerCount: 2
Back
Fore
SplineSet
91 1360 m 1,0,-1
 247 1599 l 1,1,-1
 411 1599 l 1,2,-1
 413 1593 l 1,3,-1
 218 1360 l 1,4,-1
 91 1360 l 1,0,-1
792 0 m 1,5,-1
 126 0 l 1,6,-1
 126 1241 l 1,7,-1
 286 1241 l 1,8,-1
 286 145 l 1,9,-1
 792 145 l 1,10,-1
 792 0 l 1,5,-1
EndSplineSet
Position2: "'cpsp' Capital Spacing lookup 0 subtable" dx=5 dy=0 dh=10 dv=0
EndChar

StartChar: Lcaron
Encoding: 317 317 64
Width: 825
GlyphClass: 2
Flags: W
LayerCount: 2
Back
Fore
SplineSet
792 0 m 1,0,-1
 126 0 l 1,1,-1
 126 1241 l 1,2,-1
 286 1241 l 1,3,-1
 286 145 l 1,4,-1
 792 145 l 1,5,-1
 792 0 l 1,0,-1
577 821 m 1,6,-1
 648 1047 l 1,7,-1
 577 1047 l 1,8,-1
 577 1241 l 1,9,-1
 757 1241 l 1,10,-1
 757 1063 l 1,11,-1
 671 821 l 1,12,-1
 577 821 l 1,6,-1
EndSplineSet
Position2: "'cpsp' Capital Spacing lookup 0 subtable" dx=5 dy=0 dh=10 dv=0
EndChar

StartChar: Lcommaaccent
Encoding: 315 315 65
Width: 825
GlyphClass: 2
Flags: W
LayerCount: 2
Back
Fore
SplineSet
792 0 m 1,0,-1
 126 0 l 1,1,-1
 126 1241 l 1,2,-1
 286 1241 l 1,3,-1
 286 145 l 1,4,-1
 792 145 l 1,5,-1
 792 0 l 1,0,-1
355 -401 m 1,6,-1
 396 -272 l 1,7,-1
 335 -272 l 1,8,-1
 335 -109 l 1,9,-1
 491 -109 l 1,10,-1
 491 -260 l 1,11,-1
 437 -401 l 1,12,-1
 355 -401 l 1,6,-1
EndSplineSet
Position2: "'cpsp' Capital Spacing lookup 0 subtable" dx=5 dy=0 dh=10 dv=0
EndChar

StartChar: Ldot
Encoding: 319 319 66
Width: 825
GlyphClass: 2
Flags: W
LayerCount: 2
Back
Fore
SplineSet
792 0 m 1,0,-1
 126 0 l 1,1,-1
 126 1241 l 1,2,-1
 286 1241 l 1,3,-1
 286 145 l 1,4,-1
 792 145 l 1,5,-1
 792 0 l 1,0,-1
534 950 m 1,6,-1
 716 950 l 1,7,-1
 716 750 l 1,8,-1
 534 750 l 1,9,-1
 534 950 l 1,6,-1
EndSplineSet
Ligature2: "Ligature Substitution lookup 35 subtable" L periodcentered
Position2: "'cpsp' Capital Spacing lookup 0 subtable" dx=5 dy=0 dh=10 dv=0
EndChar

StartChar: Lslash
Encoding: 321 321 67
Width: 825
GlyphClass: 2
Flags: W
LayerCount: 2
Back
Fore
SplineSet
535 803 m 1,0,-1
 287 586 l 1,1,-1
 287 145 l 1,2,-1
 793 145 l 1,3,-1
 793 0 l 1,4,-1
 127 0 l 1,5,-1
 127 444 l 1,6,-1
 0 334 l 1,7,-1
 0 461 l 1,8,-1
 127 573 l 1,9,-1
 127 1241 l 1,10,-1
 287 1241 l 1,11,-1
 287 715 l 1,12,-1
 535 936 l 1,13,-1
 535 803 l 1,0,-1
EndSplineSet
Position2: "'cpsp' Capital Spacing lookup 0 subtable" dx=5 dy=0 dh=10 dv=0
EndChar

StartChar: M
Encoding: 77 77 68
Width: 1237
GlyphClass: 2
Flags: W
LayerCount: 2
Back
Fore
SplineSet
964 901 m 2,0,1
 964 928 964 928 969 999 c 128,-1,2
 974 1070 974 1070 976 1094 c 1,3,-1
 970 1094 l 1,4,5
 964 1069 964 1069 954 1019 c 0,6,7
 937 937 937 937 927 901 c 2,8,-1
 679 0 l 1,9,-1
 538 0 l 1,10,-1
 288 901 l 2,11,12
 276 945 276 945 262 1033 c 2,13,-1
 251 1094 l 1,14,-1
 243 1094 l 1,15,16
 245 1069 245 1069 250 996.5 c 128,-1,17
 255 924 255 924 255 901 c 2,18,-1
 255 0 l 1,19,-1
 112 0 l 1,20,-1
 112 1241 l 1,21,-1
 353 1241 l 1,22,-1
 572 428 l 2,23,24
 583 387 583 387 592.5 324.5 c 128,-1,25
 602 262 602 262 608 211.5 c 128,-1,26
 614 161 614 161 615 147 c 1,27,-1
 622 147 l 1,28,29
 623 162 623 162 628.5 213 c 128,-1,30
 634 264 634 264 643 326.5 c 128,-1,31
 652 389 652 389 663 428 c 2,32,-1
 882 1241 l 1,33,-1
 1123 1241 l 1,34,-1
 1123 0 l 1,35,-1
 964 0 l 1,36,-1
 964 901 l 2,0,1
EndSplineSet
Position2: "'cpsp' Capital Spacing lookup 0 subtable" dx=5 dy=0 dh=10 dv=0
EndChar

StartChar: N
Encoding: 78 78 69
Width: 1071
GlyphClass: 2
Flags: W
AnchorPoint: "Anchor-1" 537 0 basechar 0
AnchorPoint: "Anchor-0" 537 1241 basechar 0
LayerCount: 2
Back
Fore
SplineSet
347 791 m 2,0,1
 328 824 328 824 301.5 881.5 c 128,-1,2
 275 939 275 939 267 958 c 1,3,-1
 261 956 l 1,4,5
 262 937 262 937 265.5 880 c 128,-1,6
 269 823 269 823 269 791 c 2,7,-1
 269 0 l 1,8,-1
 126 0 l 1,9,-1
 126 1241 l 1,10,-1
 263 1241 l 1,11,-1
 724 461 l 2,12,13
 742 432 742 432 768 373 c 128,-1,14
 794 314 794 314 802 295 c 1,15,-1
 806 297 l 1,16,17
 805 317 805 317 803.5 368 c 128,-1,18
 802 419 802 419 802 461 c 2,19,-1
 802 1241 l 1,20,-1
 943 1241 l 1,21,-1
 943 0 l 1,22,-1
 812 0 l 1,23,-1
 347 791 l 2,0,1
EndSplineSet
Position2: "'cpsp' Capital Spacing lookup 0 subtable" dx=5 dy=0 dh=10 dv=0
EndChar

StartChar: Nacute
Encoding: 323 323 70
Width: 1071
GlyphClass: 2
Flags: W
LayerCount: 2
Back
Fore
SplineSet
427 1360 m 1,0,-1
 583 1599 l 1,1,-1
 744 1599 l 1,2,-1
 747 1593 l 1,3,-1
 554 1360 l 1,4,-1
 427 1360 l 1,0,-1
347 791 m 2,5,6
 328 824 328 824 301.5 881.5 c 128,-1,7
 275 939 275 939 267 958 c 1,8,-1
 261 956 l 1,9,10
 262 937 262 937 265.5 880 c 128,-1,11
 269 823 269 823 269 791 c 2,12,-1
 269 0 l 1,13,-1
 126 0 l 1,14,-1
 126 1241 l 1,15,-1
 263 1241 l 1,16,-1
 724 461 l 2,17,18
 742 432 742 432 768 373 c 128,-1,19
 794 314 794 314 802 295 c 1,20,-1
 806 297 l 1,21,22
 805 317 805 317 803.5 368 c 128,-1,23
 802 419 802 419 802 461 c 2,24,-1
 802 1241 l 1,25,-1
 943 1241 l 1,26,-1
 943 0 l 1,27,-1
 812 0 l 1,28,-1
 347 791 l 2,5,6
EndSplineSet
Position2: "'cpsp' Capital Spacing lookup 0 subtable" dx=5 dy=0 dh=10 dv=0
EndChar

StartChar: Ncaron
Encoding: 327 327 71
Width: 1071
GlyphClass: 2
Flags: W
LayerCount: 2
Back
Fore
SplineSet
308 1599 m 1,0,-1
 454 1599 l 1,1,-1
 536 1456 l 1,2,-1
 615 1599 l 1,3,-1
 761 1599 l 1,4,-1
 603 1354 l 1,5,-1
 462 1354 l 1,6,-1
 308 1599 l 1,0,-1
347 791 m 2,7,8
 328 824 328 824 301.5 881.5 c 128,-1,9
 275 939 275 939 267 958 c 1,10,-1
 261 956 l 1,11,12
 262 937 262 937 265.5 880 c 128,-1,13
 269 823 269 823 269 791 c 2,14,-1
 269 0 l 1,15,-1
 126 0 l 1,16,-1
 126 1241 l 1,17,-1
 263 1241 l 1,18,-1
 724 461 l 2,19,20
 742 432 742 432 768 373 c 128,-1,21
 794 314 794 314 802 295 c 1,22,-1
 806 297 l 1,23,24
 805 317 805 317 803.5 368 c 128,-1,25
 802 419 802 419 802 461 c 2,26,-1
 802 1241 l 1,27,-1
 943 1241 l 1,28,-1
 943 0 l 1,29,-1
 812 0 l 1,30,-1
 347 791 l 2,7,8
EndSplineSet
Position2: "'cpsp' Capital Spacing lookup 0 subtable" dx=5 dy=0 dh=10 dv=0
EndChar

StartChar: Ncommaaccent
Encoding: 325 325 72
Width: 1071
GlyphClass: 2
Flags: W
LayerCount: 2
Back
Fore
SplineSet
347 791 m 2,0,1
 328 824 328 824 301.5 881.5 c 128,-1,2
 275 939 275 939 267 958 c 1,3,-1
 261 956 l 1,4,5
 262 937 262 937 265.5 880 c 128,-1,6
 269 823 269 823 269 791 c 2,7,-1
 269 0 l 1,8,-1
 126 0 l 1,9,-1
 126 1241 l 1,10,-1
 263 1241 l 1,11,-1
 724 461 l 2,12,13
 742 432 742 432 768 373 c 128,-1,14
 794 314 794 314 802 295 c 1,15,-1
 806 297 l 1,16,17
 805 317 805 317 803.5 368 c 128,-1,18
 802 419 802 419 802 461 c 2,19,-1
 802 1241 l 1,20,-1
 943 1241 l 1,21,-1
 943 0 l 1,22,-1
 812 0 l 1,23,-1
 347 791 l 2,0,1
478 -401 m 1,24,-1
 521 -272 l 1,25,-1
 458 -272 l 1,26,-1
 458 -109 l 1,27,-1
 613 -109 l 1,28,-1
 613 -260 l 1,29,-1
 560 -401 l 1,30,-1
 478 -401 l 1,24,-1
EndSplineSet
Position2: "'cpsp' Capital Spacing lookup 0 subtable" dx=5 dy=0 dh=10 dv=0
EndChar

StartChar: Eng
Encoding: 330 330 73
Width: 1071
GlyphClass: 2
Flags: W
LayerCount: 2
Back
Fore
SplineSet
899.5 -267 m 128,-1,1
 856 -330 856 -330 757 -330 c 0,2,3
 725 -330 725 -330 691 -323.5 c 128,-1,4
 657 -317 657 -317 632 -307 c 1,5,-1
 632 -205 l 1,6,-1
 710 -205 l 2,7,8
 753 -205 753 -205 774.5 -182.5 c 128,-1,9
 796 -160 796 -160 796 -117 c 2,10,-1
 796 27 l 1,11,-1
 347 791 l 2,12,13
 328 824 328 824 301.5 881.5 c 128,-1,14
 275 939 275 939 267 958 c 1,15,-1
 261 956 l 1,16,17
 262 937 262 937 265.5 880 c 128,-1,18
 269 823 269 823 269 791 c 2,19,-1
 269 0 l 1,20,-1
 126 0 l 1,21,-1
 126 1241 l 1,22,-1
 263 1241 l 1,23,-1
 724 461 l 2,24,25
 742 432 742 432 768 373 c 128,-1,26
 794 314 794 314 802 295 c 1,27,-1
 806 297 l 1,28,29
 805 317 805 317 803.5 368 c 128,-1,30
 802 419 802 419 802 461 c 2,31,-1
 796 1241 l 1,32,-1
 943 1241 l 1,33,-1
 943 -111 l 2,34,0
 943 -204 943 -204 899.5 -267 c 128,-1,1
EndSplineSet
Position2: "'cpsp' Capital Spacing lookup 0 subtable" dx=5 dy=0 dh=10 dv=0
EndChar

StartChar: Ntilde
Encoding: 209 209 74
Width: 1071
GlyphClass: 2
Flags: W
LayerCount: 2
Back
Fore
SplineSet
783.5 1511 m 128,-1,1
 767 1468 767 1468 732 1439.5 c 128,-1,2
 697 1411 697 1411 646 1411 c 0,3,4
 619 1411 619 1411 595 1418 c 128,-1,5
 571 1425 571 1425 534 1440 c 0,6,7
 501 1453 501 1453 480.5 1459.5 c 128,-1,8
 460 1466 460 1466 437 1466 c 0,9,10
 384 1466 384 1466 376 1411 c 1,11,-1
 271 1411 l 1,12,13
 271 1455 271 1455 287.5 1498.5 c 128,-1,14
 304 1542 304 1542 339 1570.5 c 128,-1,15
 374 1599 374 1599 425 1599 c 0,16,17
 451 1599 451 1599 474.5 1592 c 128,-1,18
 498 1585 498 1585 534 1570 c 0,19,20
 566 1557 566 1557 587.5 1550.5 c 128,-1,21
 609 1544 609 1544 632 1544 c 0,22,23
 659 1544 659 1544 674.5 1556.5 c 128,-1,24
 690 1569 690 1569 693 1599 c 1,25,-1
 800 1599 l 1,26,0
 800 1554 800 1554 783.5 1511 c 128,-1,1
347 791 m 2,27,28
 328 824 328 824 301.5 881.5 c 128,-1,29
 275 939 275 939 267 958 c 1,30,-1
 261 956 l 1,31,32
 262 937 262 937 265.5 880 c 128,-1,33
 269 823 269 823 269 791 c 2,34,-1
 269 0 l 1,35,-1
 126 0 l 1,36,-1
 126 1241 l 1,37,-1
 263 1241 l 1,38,-1
 724 461 l 2,39,40
 742 432 742 432 768 373 c 128,-1,41
 794 314 794 314 802 295 c 1,42,-1
 806 297 l 1,43,44
 805 317 805 317 803.5 368 c 128,-1,45
 802 419 802 419 802 461 c 2,46,-1
 802 1241 l 1,47,-1
 943 1241 l 1,48,-1
 943 0 l 1,49,-1
 812 0 l 1,50,-1
 347 791 l 2,27,28
EndSplineSet
Position2: "'cpsp' Capital Spacing lookup 0 subtable" dx=5 dy=0 dh=10 dv=0
EndChar

StartChar: O
Encoding: 79 79 75
Width: 1155
GlyphClass: 2
Flags: W
AnchorPoint: "Anchor-1" 0 0 basechar 0
AnchorPoint: "Anchor-0" 578 1241 basechar 0
LayerCount: 2
Back
Fore
SplineSet
938 1101.5 m 128,-1,1
 1066 939 1066 939 1066 621 c 0,2,3
 1066 408 1066 408 1008 264.5 c 128,-1,4
 950 121 950 121 840.5 49 c 128,-1,5
 731 -23 731 -23 577 -23 c 256,6,7
 423 -23 423 -23 313 49 c 128,-1,8
 203 121 203 121 145 264.5 c 128,-1,9
 87 408 87 408 87 621 c 0,10,11
 87 939 87 939 215 1101.5 c 128,-1,12
 343 1264 343 1264 577 1264 c 0,13,0
 810 1264 810 1264 938 1101.5 c 128,-1,1
339.5 1002.5 m 128,-1,15
 255 889 255 889 255 666 c 2,16,-1
 255 575 l 2,17,18
 255 352 255 352 339.5 238.5 c 128,-1,19
 424 125 424 125 577 125 c 0,20,21
 729 125 729 125 813.5 238.5 c 128,-1,22
 898 352 898 352 898 575 c 2,23,-1
 898 666 l 2,24,25
 898 889 898 889 813.5 1002.5 c 128,-1,26
 729 1116 729 1116 577 1116 c 0,27,14
 424 1116 424 1116 339.5 1002.5 c 128,-1,15
EndSplineSet
Substitution2: "Single Substitution lookup 36 subtable" ordmasculine
Substitution2: "'aalt' Access All Alternates lookup 0 subtable" ordmasculine
Position2: "'cpsp' Capital Spacing lookup 0 subtable" dx=5 dy=0 dh=10 dv=0
EndChar

StartChar: Oacute
Encoding: 211 211 76
Width: 1155
GlyphClass: 2
Flags: W
LayerCount: 2
Back
Fore
SplineSet
470 1360 m 1,0,-1
 626 1599 l 1,1,-1
 787 1599 l 1,2,-1
 790 1593 l 1,3,-1
 595 1360 l 1,4,-1
 470 1360 l 1,0,-1
938 1101.5 m 128,-1,6
 1066 939 1066 939 1066 621 c 0,7,8
 1066 408 1066 408 1008 264.5 c 128,-1,9
 950 121 950 121 840.5 49 c 128,-1,10
 731 -23 731 -23 577 -23 c 256,11,12
 423 -23 423 -23 313 49 c 128,-1,13
 203 121 203 121 145 264.5 c 128,-1,14
 87 408 87 408 87 621 c 0,15,16
 87 939 87 939 215 1101.5 c 128,-1,17
 343 1264 343 1264 577 1264 c 0,18,5
 810 1264 810 1264 938 1101.5 c 128,-1,6
339.5 1002.5 m 128,-1,20
 255 889 255 889 255 666 c 2,21,-1
 255 575 l 2,22,23
 255 352 255 352 339.5 238.5 c 128,-1,24
 424 125 424 125 577 125 c 0,25,26
 729 125 729 125 813.5 238.5 c 128,-1,27
 898 352 898 352 898 575 c 2,28,-1
 898 666 l 2,29,30
 898 889 898 889 813.5 1002.5 c 128,-1,31
 729 1116 729 1116 577 1116 c 0,32,19
 424 1116 424 1116 339.5 1002.5 c 128,-1,20
EndSplineSet
Position2: "'cpsp' Capital Spacing lookup 0 subtable" dx=5 dy=0 dh=10 dv=0
EndChar

StartChar: Obreve
Encoding: 334 334 77
Width: 1155
GlyphClass: 2
Flags: W
LayerCount: 2
Back
Fore
SplineSet
774 1516.5 m 128,-1,1
 746 1476 746 1476 694.5 1449.5 c 128,-1,2
 643 1423 643 1423 577 1423 c 256,3,4
 511 1423 511 1423 460 1449.5 c 128,-1,5
 409 1476 409 1476 381 1516.5 c 128,-1,6
 353 1557 353 1557 353 1599 c 1,7,-1
 470 1599 l 1,8,9
 472 1586 472 1586 486.5 1571.5 c 128,-1,10
 501 1557 501 1557 525 1547.5 c 128,-1,11
 549 1538 549 1538 577 1538 c 0,12,13
 606 1538 606 1538 630 1547.5 c 128,-1,14
 654 1557 654 1557 668.5 1571 c 128,-1,15
 683 1585 683 1585 685 1599 c 1,16,-1
 802 1599 l 1,17,0
 802 1557 802 1557 774 1516.5 c 128,-1,1
938 1101.5 m 128,-1,19
 1066 939 1066 939 1066 621 c 0,20,21
 1066 408 1066 408 1008 264.5 c 128,-1,22
 950 121 950 121 840.5 49 c 128,-1,23
 731 -23 731 -23 577 -23 c 256,24,25
 423 -23 423 -23 313 49 c 128,-1,26
 203 121 203 121 145 264.5 c 128,-1,27
 87 408 87 408 87 621 c 0,28,29
 87 939 87 939 215 1101.5 c 128,-1,30
 343 1264 343 1264 577 1264 c 0,31,18
 810 1264 810 1264 938 1101.5 c 128,-1,19
339.5 1002.5 m 128,-1,33
 255 889 255 889 255 666 c 2,34,-1
 255 575 l 2,35,36
 255 352 255 352 339.5 238.5 c 128,-1,37
 424 125 424 125 577 125 c 0,38,39
 729 125 729 125 813.5 238.5 c 128,-1,40
 898 352 898 352 898 575 c 2,41,-1
 898 666 l 2,42,43
 898 889 898 889 813.5 1002.5 c 128,-1,44
 729 1116 729 1116 577 1116 c 0,45,32
 424 1116 424 1116 339.5 1002.5 c 128,-1,33
EndSplineSet
Position2: "'cpsp' Capital Spacing lookup 0 subtable" dx=5 dy=0 dh=10 dv=0
EndChar

StartChar: Ocircumflex
Encoding: 212 212 78
Width: 1155
GlyphClass: 2
Flags: W
LayerCount: 2
Back
Fore
SplineSet
497 1352 m 1,0,-1
 351 1352 l 1,1,-1
 507 1597 l 1,2,-1
 648 1597 l 1,3,-1
 802 1352 l 1,4,-1
 658 1352 l 1,5,-1
 579 1495 l 1,6,-1
 497 1352 l 1,0,-1
938 1101.5 m 128,-1,8
 1066 939 1066 939 1066 621 c 0,9,10
 1066 408 1066 408 1008 264.5 c 128,-1,11
 950 121 950 121 840.5 49 c 128,-1,12
 731 -23 731 -23 577 -23 c 256,13,14
 423 -23 423 -23 313 49 c 128,-1,15
 203 121 203 121 145 264.5 c 128,-1,16
 87 408 87 408 87 621 c 0,17,18
 87 939 87 939 215 1101.5 c 128,-1,19
 343 1264 343 1264 577 1264 c 0,20,7
 810 1264 810 1264 938 1101.5 c 128,-1,8
339.5 1002.5 m 128,-1,22
 255 889 255 889 255 666 c 2,23,-1
 255 575 l 2,24,25
 255 352 255 352 339.5 238.5 c 128,-1,26
 424 125 424 125 577 125 c 0,27,28
 729 125 729 125 813.5 238.5 c 128,-1,29
 898 352 898 352 898 575 c 2,30,-1
 898 666 l 2,31,32
 898 889 898 889 813.5 1002.5 c 128,-1,33
 729 1116 729 1116 577 1116 c 0,34,21
 424 1116 424 1116 339.5 1002.5 c 128,-1,22
EndSplineSet
Position2: "'cpsp' Capital Spacing lookup 0 subtable" dx=5 dy=0 dh=10 dv=0
EndChar

StartChar: Odieresis
Encoding: 214 214 79
Width: 1155
GlyphClass: 2
Flags: W
LayerCount: 2
Back
Fore
SplineSet
364 1599 m 1,0,-1
 521 1599 l 1,1,-1
 521 1427 l 1,2,-1
 364 1427 l 1,3,-1
 364 1599 l 1,0,-1
634 1599 m 1,4,-1
 792 1599 l 1,5,-1
 792 1427 l 1,6,-1
 634 1427 l 1,7,-1
 634 1599 l 1,4,-1
938 1101.5 m 128,-1,9
 1066 939 1066 939 1066 621 c 0,10,11
 1066 408 1066 408 1008 264.5 c 128,-1,12
 950 121 950 121 840.5 49 c 128,-1,13
 731 -23 731 -23 577 -23 c 256,14,15
 423 -23 423 -23 313 49 c 128,-1,16
 203 121 203 121 145 264.5 c 128,-1,17
 87 408 87 408 87 621 c 0,18,19
 87 939 87 939 215 1101.5 c 128,-1,20
 343 1264 343 1264 577 1264 c 0,21,8
 810 1264 810 1264 938 1101.5 c 128,-1,9
339.5 1002.5 m 128,-1,23
 255 889 255 889 255 666 c 2,24,-1
 255 575 l 2,25,26
 255 352 255 352 339.5 238.5 c 128,-1,27
 424 125 424 125 577 125 c 0,28,29
 729 125 729 125 813.5 238.5 c 128,-1,30
 898 352 898 352 898 575 c 2,31,-1
 898 666 l 2,32,33
 898 889 898 889 813.5 1002.5 c 128,-1,34
 729 1116 729 1116 577 1116 c 0,35,22
 424 1116 424 1116 339.5 1002.5 c 128,-1,23
EndSplineSet
Position2: "'cpsp' Capital Spacing lookup 0 subtable" dx=5 dy=0 dh=10 dv=0
EndChar

StartChar: Ograve
Encoding: 210 210 80
Width: 1155
GlyphClass: 2
Flags: W
LayerCount: 2
Back
Fore
SplineSet
366 1593 m 1,0,-1
 366 1599 l 1,1,-1
 529 1599 l 1,2,-1
 685 1360 l 1,3,-1
 560 1360 l 1,4,-1
 366 1593 l 1,0,-1
938 1101.5 m 128,-1,6
 1066 939 1066 939 1066 621 c 0,7,8
 1066 408 1066 408 1008 264.5 c 128,-1,9
 950 121 950 121 840.5 49 c 128,-1,10
 731 -23 731 -23 577 -23 c 256,11,12
 423 -23 423 -23 313 49 c 128,-1,13
 203 121 203 121 145 264.5 c 128,-1,14
 87 408 87 408 87 621 c 0,15,16
 87 939 87 939 215 1101.5 c 128,-1,17
 343 1264 343 1264 577 1264 c 0,18,5
 810 1264 810 1264 938 1101.5 c 128,-1,6
339.5 1002.5 m 128,-1,20
 255 889 255 889 255 666 c 2,21,-1
 255 575 l 2,22,23
 255 352 255 352 339.5 238.5 c 128,-1,24
 424 125 424 125 577 125 c 0,25,26
 729 125 729 125 813.5 238.5 c 128,-1,27
 898 352 898 352 898 575 c 2,28,-1
 898 666 l 2,29,30
 898 889 898 889 813.5 1002.5 c 128,-1,31
 729 1116 729 1116 577 1116 c 0,32,19
 424 1116 424 1116 339.5 1002.5 c 128,-1,20
EndSplineSet
Position2: "'cpsp' Capital Spacing lookup 0 subtable" dx=5 dy=0 dh=10 dv=0
EndChar

StartChar: Ohungarumlaut
Encoding: 336 336 81
Width: 1155
GlyphClass: 2
Flags: W
LayerCount: 2
Back
Fore
SplineSet
405 1360 m 1,0,-1
 517 1599 l 1,1,-1
 677 1599 l 1,2,-1
 679 1593 l 1,3,-1
 527 1360 l 1,4,-1
 405 1360 l 1,0,-1
640 1360 m 1,5,-1
 753 1599 l 1,6,-1
 914 1599 l 1,7,-1
 917 1593 l 1,8,-1
 765 1360 l 1,9,-1
 640 1360 l 1,5,-1
938 1101.5 m 128,-1,11
 1066 939 1066 939 1066 621 c 0,12,13
 1066 408 1066 408 1008 264.5 c 128,-1,14
 950 121 950 121 840.5 49 c 128,-1,15
 731 -23 731 -23 577 -23 c 256,16,17
 423 -23 423 -23 313 49 c 128,-1,18
 203 121 203 121 145 264.5 c 128,-1,19
 87 408 87 408 87 621 c 0,20,21
 87 939 87 939 215 1101.5 c 128,-1,22
 343 1264 343 1264 577 1264 c 0,23,10
 810 1264 810 1264 938 1101.5 c 128,-1,11
339.5 1002.5 m 128,-1,25
 255 889 255 889 255 666 c 2,26,-1
 255 575 l 2,27,28
 255 352 255 352 339.5 238.5 c 128,-1,29
 424 125 424 125 577 125 c 0,30,31
 729 125 729 125 813.5 238.5 c 128,-1,32
 898 352 898 352 898 575 c 2,33,-1
 898 666 l 2,34,35
 898 889 898 889 813.5 1002.5 c 128,-1,36
 729 1116 729 1116 577 1116 c 0,37,24
 424 1116 424 1116 339.5 1002.5 c 128,-1,25
EndSplineSet
Position2: "'cpsp' Capital Spacing lookup 0 subtable" dx=5 dy=0 dh=10 dv=0
EndChar

StartChar: Omacron
Encoding: 332 332 82
Width: 1155
GlyphClass: 2
Flags: W
LayerCount: 2
Back
Fore
SplineSet
804 1505 m 1,0,-1
 804 1374 l 1,1,-1
 349 1374 l 1,2,-1
 349 1505 l 1,3,-1
 804 1505 l 1,0,-1
938 1101.5 m 128,-1,5
 1066 939 1066 939 1066 621 c 0,6,7
 1066 408 1066 408 1008 264.5 c 128,-1,8
 950 121 950 121 840.5 49 c 128,-1,9
 731 -23 731 -23 577 -23 c 256,10,11
 423 -23 423 -23 313 49 c 128,-1,12
 203 121 203 121 145 264.5 c 128,-1,13
 87 408 87 408 87 621 c 0,14,15
 87 939 87 939 215 1101.5 c 128,-1,16
 343 1264 343 1264 577 1264 c 0,17,4
 810 1264 810 1264 938 1101.5 c 128,-1,5
339.5 1002.5 m 128,-1,19
 255 889 255 889 255 666 c 2,20,-1
 255 575 l 2,21,22
 255 352 255 352 339.5 238.5 c 128,-1,23
 424 125 424 125 577 125 c 0,24,25
 729 125 729 125 813.5 238.5 c 128,-1,26
 898 352 898 352 898 575 c 2,27,-1
 898 666 l 2,28,29
 898 889 898 889 813.5 1002.5 c 128,-1,30
 729 1116 729 1116 577 1116 c 0,31,18
 424 1116 424 1116 339.5 1002.5 c 128,-1,19
EndSplineSet
Position2: "'cpsp' Capital Spacing lookup 0 subtable" dx=5 dy=0 dh=10 dv=0
EndChar

StartChar: Oslash
Encoding: 216 216 83
Width: 1155
GlyphClass: 2
Flags: W
AnchorPoint: "Anchor-1" 0 0 basechar 0
AnchorPoint: "Anchor-0" 578 1241 basechar 0
LayerCount: 2
Back
Fore
SplineSet
1066 621 m 0,1,2
 1066 408 1066 408 1008 264.5 c 128,-1,3
 950 121 950 121 840.5 49 c 128,-1,4
 731 -23 731 -23 577 -23 c 0,5,6
 406 -23 406 -23 288 68 c 1,7,-1
 206 -68 l 1,8,-1
 89 -68 l 1,9,-1
 218 137 l 1,10,11
 87 300 87 300 87 621 c 0,12,13
 87 939 87 939 215 1101.5 c 128,-1,14
 343 1264 343 1264 577 1264 c 0,15,16
 746 1264 746 1264 865 1174 c 1,17,-1
 949 1309 l 1,18,-1
 1066 1309 l 1,19,-1
 935 1102 l 1,20,0
 1066 935 1066 935 1066 621 c 0,1,2
339.5 1002.5 m 128,-1,22
 255 889 255 889 255 666 c 2,23,-1
 255 575 l 2,24,25
 255 393 255 393 310 287 c 1,26,-1
 781 1038 l 1,27,28
 702 1116 702 1116 577 1116 c 0,29,21
 424 1116 424 1116 339.5 1002.5 c 128,-1,22
577 125 m 0,31,32
 729 125 729 125 813.5 238.5 c 128,-1,33
 898 352 898 352 898 575 c 2,34,-1
 898 666 l 2,35,36
 898 848 898 848 843 954 c 1,37,-1
 372 201 l 1,38,30
 451 125 451 125 577 125 c 0,31,32
EndSplineSet
Position2: "'cpsp' Capital Spacing lookup 0 subtable" dx=5 dy=0 dh=10 dv=0
EndChar

StartChar: Oslashacute
Encoding: 510 510 84
Width: 1155
GlyphClass: 2
Flags: W
LayerCount: 2
Back
Fore
SplineSet
470 1360 m 1,0,-1
 626 1599 l 1,1,-1
 787 1599 l 1,2,-1
 790 1593 l 1,3,-1
 595 1360 l 1,4,-1
 470 1360 l 1,0,-1
1066 621 m 0,6,7
 1066 408 1066 408 1008 264.5 c 128,-1,8
 950 121 950 121 840.5 49 c 128,-1,9
 731 -23 731 -23 577 -23 c 0,10,11
 406 -23 406 -23 288 68 c 1,12,-1
 206 -68 l 1,13,-1
 89 -68 l 1,14,-1
 218 137 l 1,15,16
 87 300 87 300 87 621 c 0,17,18
 87 939 87 939 215 1101.5 c 128,-1,19
 343 1264 343 1264 577 1264 c 0,20,21
 746 1264 746 1264 865 1174 c 1,22,-1
 949 1309 l 1,23,-1
 1066 1309 l 1,24,-1
 935 1102 l 1,25,5
 1066 935 1066 935 1066 621 c 0,6,7
339.5 1002.5 m 128,-1,27
 255 889 255 889 255 666 c 2,28,-1
 255 575 l 2,29,30
 255 393 255 393 310 287 c 1,31,-1
 781 1038 l 1,32,33
 702 1116 702 1116 577 1116 c 0,34,26
 424 1116 424 1116 339.5 1002.5 c 128,-1,27
577 125 m 0,36,37
 729 125 729 125 813.5 238.5 c 128,-1,38
 898 352 898 352 898 575 c 2,39,-1
 898 666 l 2,40,41
 898 848 898 848 843 954 c 1,42,-1
 372 201 l 1,43,35
 451 125 451 125 577 125 c 0,36,37
EndSplineSet
Position2: "'cpsp' Capital Spacing lookup 0 subtable" dx=5 dy=0 dh=10 dv=0
EndChar

StartChar: Otilde
Encoding: 213 213 85
Width: 1155
GlyphClass: 2
Flags: W
LayerCount: 2
Back
Fore
SplineSet
824.5 1511 m 128,-1,1
 808 1468 808 1468 773 1439.5 c 128,-1,2
 738 1411 738 1411 687 1411 c 0,3,4
 660 1411 660 1411 635.5 1418 c 128,-1,5
 611 1425 611 1425 578 1439 c 0,6,7
 546 1452 546 1452 524 1459 c 128,-1,8
 502 1466 502 1466 478 1466 c 0,9,10
 452 1466 452 1466 436.5 1453.5 c 128,-1,11
 421 1441 421 1441 417 1411 c 1,12,-1
 312 1411 l 1,13,14
 312 1455 312 1455 328.5 1498.5 c 128,-1,15
 345 1542 345 1542 380 1570.5 c 128,-1,16
 415 1599 415 1599 466 1599 c 0,17,18
 493 1599 493 1599 517.5 1592 c 128,-1,19
 542 1585 542 1585 575 1571 c 0,20,21
 607 1558 607 1558 629 1551 c 128,-1,22
 651 1544 651 1544 675 1544 c 0,23,24
 702 1544 702 1544 717 1556 c 128,-1,25
 732 1568 732 1568 736 1599 c 1,26,-1
 841 1599 l 1,27,0
 841 1554 841 1554 824.5 1511 c 128,-1,1
938 1101.5 m 128,-1,29
 1066 939 1066 939 1066 621 c 0,30,31
 1066 408 1066 408 1008 264.5 c 128,-1,32
 950 121 950 121 840.5 49 c 128,-1,33
 731 -23 731 -23 577 -23 c 256,34,35
 423 -23 423 -23 313 49 c 128,-1,36
 203 121 203 121 145 264.5 c 128,-1,37
 87 408 87 408 87 621 c 0,38,39
 87 939 87 939 215 1101.5 c 128,-1,40
 343 1264 343 1264 577 1264 c 0,41,28
 810 1264 810 1264 938 1101.5 c 128,-1,29
339.5 1002.5 m 128,-1,43
 255 889 255 889 255 666 c 2,44,-1
 255 575 l 2,45,46
 255 352 255 352 339.5 238.5 c 128,-1,47
 424 125 424 125 577 125 c 0,48,49
 729 125 729 125 813.5 238.5 c 128,-1,50
 898 352 898 352 898 575 c 2,51,-1
 898 666 l 2,52,53
 898 889 898 889 813.5 1002.5 c 128,-1,54
 729 1116 729 1116 577 1116 c 0,55,42
 424 1116 424 1116 339.5 1002.5 c 128,-1,43
EndSplineSet
Position2: "'cpsp' Capital Spacing lookup 0 subtable" dx=5 dy=0 dh=10 dv=0
EndChar

StartChar: OE
Encoding: 338 338 86
Width: 1485
GlyphClass: 2
Flags: W
AnchorPoint: "Anchor-1" 0 0 basechar 0
AnchorPoint: "Anchor-0" 741 1241 basechar 0
LayerCount: 2
Back
Fore
SplineSet
769 1118 m 1,1,-1
 769 1241 l 1,2,-1
 1408 1241 l 1,3,-1
 1408 1098 l 1,4,-1
 927 1098 l 1,5,-1
 927 709 l 1,6,-1
 1326 709 l 1,7,-1
 1326 563 l 1,8,-1
 927 563 l 1,9,-1
 927 145 l 1,10,-1
 1418 145 l 1,11,-1
 1418 0 l 1,12,-1
 769 0 l 1,13,-1
 769 123 l 1,14,15
 668 -23 668 -23 493 -23 c 0,16,17
 299 -23 299 -23 193 140 c 128,-1,18
 87 303 87 303 87 621 c 0,19,20
 87 940 87 940 193 1102 c 128,-1,21
 299 1264 299 1264 493 1264 c 0,22,0
 666 1264 666 1264 769 1118 c 1,1,-1
322 1002.5 m 128,-1,24
 255 889 255 889 255 666 c 2,25,-1
 255 575 l 2,26,27
 255 352 255 352 322 238.5 c 128,-1,28
 389 125 389 125 511 125 c 0,29,30
 634 125 634 125 701.5 238.5 c 128,-1,31
 769 352 769 352 769 575 c 2,32,-1
 769 666 l 2,33,34
 769 889 769 889 701.5 1002.5 c 128,-1,35
 634 1116 634 1116 511 1116 c 0,36,23
 389 1116 389 1116 322 1002.5 c 128,-1,24
EndSplineSet
Position2: "'cpsp' Capital Spacing lookup 0 subtable" dx=5 dy=0 dh=10 dv=0
EndChar

StartChar: P
Encoding: 80 80 87
Width: 991
GlyphClass: 2
Flags: W
LayerCount: 2
Back
Fore
SplineSet
126 1241 m 1,0,-1
 568 1241 l 2,1,2
 689 1241 689 1241 772.5 1196.5 c 128,-1,3
 856 1152 856 1152 898.5 1071 c 128,-1,4
 941 990 941 990 941 881 c 256,5,6
 941 772 941 772 896 688.5 c 128,-1,7
 851 605 851 605 766.5 558.5 c 128,-1,8
 682 512 682 512 568 512 c 2,9,-1
 286 512 l 1,10,-1
 286 0 l 1,11,-1
 126 0 l 1,12,-1
 126 1241 l 1,0,-1
716 718 m 128,-1,14
 773 779 773 779 773 881 c 0,15,16
 773 982 773 982 718.5 1040 c 128,-1,17
 664 1098 664 1098 564 1098 c 2,18,-1
 286 1098 l 1,19,-1
 286 657 l 1,20,-1
 564 657 l 2,21,13
 659 657 659 657 716 718 c 128,-1,14
EndSplineSet
Position2: "'cpsp' Capital Spacing lookup 0 subtable" dx=5 dy=0 dh=10 dv=0
EndChar

StartChar: Thorn
Encoding: 222 222 88
Width: 991
GlyphClass: 2
Flags: W
LayerCount: 2
Back
Fore
SplineSet
772.5 950.5 m 128,-1,1
 856 906 856 906 898.5 824.5 c 128,-1,2
 941 743 941 743 941 633 c 0,3,4
 941 524 941 524 896 441 c 128,-1,5
 851 358 851 358 766.5 312 c 128,-1,6
 682 266 682 266 568 266 c 2,7,-1
 286 266 l 1,8,-1
 286 0 l 1,9,-1
 126 0 l 1,10,-1
 126 1241 l 1,11,-1
 286 1241 l 1,12,-1
 286 995 l 1,13,-1
 568 995 l 2,14,0
 689 995 689 995 772.5 950.5 c 128,-1,1
564 412 m 2,15,16
 627 412 627 412 674 439.5 c 128,-1,17
 721 467 721 467 747 517 c 128,-1,18
 773 567 773 567 773 633 c 0,19,20
 773 735 773 735 718.5 792.5 c 128,-1,21
 664 850 664 850 564 850 c 2,22,-1
 286 850 l 1,23,-1
 286 412 l 1,24,-1
 564 412 l 2,15,16
EndSplineSet
Position2: "'cpsp' Capital Spacing lookup 0 subtable" dx=5 dy=0 dh=10 dv=0
EndChar

StartChar: Q
Encoding: 81 81 89
Width: 1155
GlyphClass: 2
Flags: W
LayerCount: 2
Back
Fore
SplineSet
215 1101.5 m 128,-1,1
 343 1264 343 1264 577 1264 c 0,2,3
 810 1264 810 1264 938 1101.5 c 128,-1,4
 1066 939 1066 939 1066 621 c 0,5,6
 1066 378 1066 378 989.5 224 c 128,-1,7
 913 70 913 70 771 12 c 1,8,-1
 1027 -225 l 1,9,-1
 814 -225 l 1,10,-1
 599 -23 l 1,11,-1
 577 -23 l 2,12,13
 423 -23 423 -23 313 49 c 128,-1,14
 203 121 203 121 145 264.5 c 128,-1,15
 87 408 87 408 87 621 c 0,16,0
 87 939 87 939 215 1101.5 c 128,-1,1
339.5 238.5 m 128,-1,18
 424 125 424 125 577 125 c 0,19,20
 729 125 729 125 813.5 238.5 c 128,-1,21
 898 352 898 352 898 575 c 2,22,-1
 898 666 l 2,23,24
 898 889 898 889 813.5 1002.5 c 128,-1,25
 729 1116 729 1116 577 1116 c 0,26,27
 424 1116 424 1116 339.5 1002.5 c 128,-1,28
 255 889 255 889 255 666 c 2,29,-1
 255 575 l 2,30,17
 255 352 255 352 339.5 238.5 c 128,-1,18
EndSplineSet
Position2: "'cpsp' Capital Spacing lookup 0 subtable" dx=5 dy=0 dh=10 dv=0
EndChar

StartChar: R
Encoding: 82 82 90
Width: 1071
GlyphClass: 2
Flags: W
AnchorPoint: "Anchor-1" 537 0 basechar 0
AnchorPoint: "Anchor-0" 537 1241 basechar 0
LayerCount: 2
Back
Fore
SplineSet
828 1198 m 128,-1,1
 911 1155 911 1155 953.5 1077.5 c 128,-1,2
 996 1000 996 1000 996 897 c 0,3,4
 996 782 996 782 937.5 697.5 c 128,-1,5
 879 613 879 613 775 578 c 1,6,-1
 1025 0 l 1,7,-1
 849 0 l 1,8,-1
 617 549 l 1,9,-1
 286 549 l 1,10,-1
 286 0 l 1,11,-1
 126 0 l 1,12,-1
 126 1241 l 1,13,-1
 626 1241 l 2,14,0
 745 1241 745 1241 828 1198 c 128,-1,1
620 694 m 2,15,16
 715 694 715 694 772.5 749.5 c 128,-1,17
 830 805 830 805 830 897 c 0,18,19
 830 992 830 992 776 1045 c 128,-1,20
 722 1098 722 1098 620 1098 c 2,21,-1
 286 1098 l 1,22,-1
 286 694 l 1,23,-1
 620 694 l 2,15,16
EndSplineSet
Position2: "'cpsp' Capital Spacing lookup 0 subtable" dx=5 dy=0 dh=10 dv=0
EndChar

StartChar: Racute
Encoding: 340 340 91
Width: 1071
GlyphClass: 2
Flags: W
LayerCount: 2
Back
Fore
SplineSet
386 1360 m 1,0,-1
 542 1599 l 1,1,-1
 706 1599 l 1,2,-1
 708 1593 l 1,3,-1
 513 1360 l 1,4,-1
 386 1360 l 1,0,-1
828 1198 m 128,-1,6
 911 1155 911 1155 953.5 1077.5 c 128,-1,7
 996 1000 996 1000 996 897 c 0,8,9
 996 782 996 782 937.5 697.5 c 128,-1,10
 879 613 879 613 775 578 c 1,11,-1
 1025 0 l 1,12,-1
 849 0 l 1,13,-1
 617 549 l 1,14,-1
 286 549 l 1,15,-1
 286 0 l 1,16,-1
 126 0 l 1,17,-1
 126 1241 l 1,18,-1
 626 1241 l 2,19,5
 745 1241 745 1241 828 1198 c 128,-1,6
620 694 m 2,20,21
 715 694 715 694 772.5 749.5 c 128,-1,22
 830 805 830 805 830 897 c 0,23,24
 830 992 830 992 776 1045 c 128,-1,25
 722 1098 722 1098 620 1098 c 2,26,-1
 286 1098 l 1,27,-1
 286 694 l 1,28,-1
 620 694 l 2,20,21
EndSplineSet
Position2: "'cpsp' Capital Spacing lookup 0 subtable" dx=5 dy=0 dh=10 dv=0
EndChar

StartChar: Rcaron
Encoding: 344 344 92
Width: 1071
GlyphClass: 2
Flags: W
LayerCount: 2
Back
Fore
SplineSet
308 1599 m 1,0,-1
 454 1599 l 1,1,-1
 536 1456 l 1,2,-1
 615 1599 l 1,3,-1
 761 1599 l 1,4,-1
 603 1354 l 1,5,-1
 462 1354 l 1,6,-1
 308 1599 l 1,0,-1
828 1198 m 128,-1,8
 911 1155 911 1155 953.5 1077.5 c 128,-1,9
 996 1000 996 1000 996 897 c 0,10,11
 996 782 996 782 937.5 697.5 c 128,-1,12
 879 613 879 613 775 578 c 1,13,-1
 1025 0 l 1,14,-1
 849 0 l 1,15,-1
 617 549 l 1,16,-1
 286 549 l 1,17,-1
 286 0 l 1,18,-1
 126 0 l 1,19,-1
 126 1241 l 1,20,-1
 626 1241 l 2,21,7
 745 1241 745 1241 828 1198 c 128,-1,8
620 694 m 2,22,23
 715 694 715 694 772.5 749.5 c 128,-1,24
 830 805 830 805 830 897 c 0,25,26
 830 992 830 992 776 1045 c 128,-1,27
 722 1098 722 1098 620 1098 c 2,28,-1
 286 1098 l 1,29,-1
 286 694 l 1,30,-1
 620 694 l 2,22,23
EndSplineSet
Position2: "'cpsp' Capital Spacing lookup 0 subtable" dx=5 dy=0 dh=10 dv=0
EndChar

StartChar: Rcommaaccent
Encoding: 342 342 93
Width: 1071
GlyphClass: 2
Flags: W
LayerCount: 2
Back
Fore
SplineSet
828 1198 m 128,-1,1
 911 1155 911 1155 953.5 1077.5 c 128,-1,2
 996 1000 996 1000 996 897 c 0,3,4
 996 782 996 782 937.5 697.5 c 128,-1,5
 879 613 879 613 775 578 c 1,6,-1
 1025 0 l 1,7,-1
 849 0 l 1,8,-1
 617 549 l 1,9,-1
 286 549 l 1,10,-1
 286 0 l 1,11,-1
 126 0 l 1,12,-1
 126 1241 l 1,13,-1
 626 1241 l 2,14,0
 745 1241 745 1241 828 1198 c 128,-1,1
620 694 m 2,15,16
 715 694 715 694 772.5 749.5 c 128,-1,17
 830 805 830 805 830 897 c 0,18,19
 830 992 830 992 776 1045 c 128,-1,20
 722 1098 722 1098 620 1098 c 2,21,-1
 286 1098 l 1,22,-1
 286 694 l 1,23,-1
 620 694 l 2,15,16
478 -401 m 1,24,-1
 521 -272 l 1,25,-1
 458 -272 l 1,26,-1
 458 -109 l 1,27,-1
 613 -109 l 1,28,-1
 613 -260 l 1,29,-1
 560 -401 l 1,30,-1
 478 -401 l 1,24,-1
EndSplineSet
Position2: "'cpsp' Capital Spacing lookup 0 subtable" dx=5 dy=0 dh=10 dv=0
EndChar

StartChar: S
Encoding: 83 83 94
Width: 991
GlyphClass: 2
Flags: W
AnchorPoint: "Anchor-1" 496 0 basechar 0
AnchorPoint: "Anchor-0" 496 1241 basechar 0
LayerCount: 2
Back
Fore
SplineSet
774.5 1177.5 m 128,-1,1
 882 1091 882 1091 882 913 c 2,2,-1
 882 893 l 1,3,-1
 718 893 l 1,4,-1
 718 920 l 2,5,6
 718 1012 718 1012 656 1064 c 128,-1,7
 594 1116 594 1116 497 1116 c 0,8,9
 393 1116 393 1116 330 1073 c 128,-1,10
 267 1030 267 1030 267 944 c 0,11,12
 267 881 267 881 303.5 840 c 128,-1,13
 340 799 340 799 394.5 774.5 c 128,-1,14
 449 750 449 750 543 719 c 0,15,16
 663 679 663 679 735.5 643.5 c 128,-1,17
 808 608 808 608 860 539 c 128,-1,18
 912 470 912 470 912 358 c 0,19,20
 912 160 912 160 798.5 68.5 c 128,-1,21
 685 -23 685 -23 491 -23 c 0,22,23
 372 -23 372 -23 278 15 c 128,-1,24
 184 53 184 53 128.5 136.5 c 128,-1,25
 73 220 73 220 73 350 c 1,26,-1
 74 379 l 1,27,-1
 75 387 l 1,28,-1
 241 387 l 1,29,-1
 241 380 l 1,30,-1
 239 350 l 1,31,32
 239 239 239 239 306 182 c 128,-1,33
 373 125 373 125 484 125 c 0,34,35
 609 125 609 125 676.5 178 c 128,-1,36
 744 231 744 231 744 332 c 0,37,38
 744 398 744 398 707 441 c 128,-1,39
 670 484 670 484 615.5 509 c 128,-1,40
 561 534 561 534 465 566 c 0,41,42
 346 605 346 605 274 640.5 c 128,-1,43
 202 676 202 676 150.5 746 c 128,-1,44
 99 816 99 816 99 930 c 0,45,46
 99 1041 99 1041 151 1116 c 128,-1,47
 203 1191 203 1191 292 1227.5 c 128,-1,48
 381 1264 381 1264 493 1264 c 0,49,0
 667 1264 667 1264 774.5 1177.5 c 128,-1,1
EndSplineSet
Position2: "'cpsp' Capital Spacing lookup 0 subtable" dx=5 dy=0 dh=10 dv=0
EndChar

StartChar: Sacute
Encoding: 346 346 95
Width: 991
GlyphClass: 2
Flags: W
LayerCount: 2
Back
Fore
SplineSet
386 1360 m 1,0,-1
 542 1599 l 1,1,-1
 706 1599 l 1,2,-1
 708 1593 l 1,3,-1
 511 1360 l 1,4,-1
 386 1360 l 1,0,-1
774.5 1177.5 m 128,-1,6
 882 1091 882 1091 882 913 c 2,7,-1
 882 893 l 1,8,-1
 718 893 l 1,9,-1
 718 920 l 2,10,11
 718 1012 718 1012 656 1064 c 128,-1,12
 594 1116 594 1116 497 1116 c 0,13,14
 393 1116 393 1116 330 1073 c 128,-1,15
 267 1030 267 1030 267 944 c 0,16,17
 267 881 267 881 303.5 840 c 128,-1,18
 340 799 340 799 394.5 774.5 c 128,-1,19
 449 750 449 750 543 719 c 0,20,21
 663 679 663 679 735.5 643.5 c 128,-1,22
 808 608 808 608 860 539 c 128,-1,23
 912 470 912 470 912 358 c 0,24,25
 912 160 912 160 798.5 68.5 c 128,-1,26
 685 -23 685 -23 491 -23 c 0,27,28
 372 -23 372 -23 278 15 c 128,-1,29
 184 53 184 53 128.5 136.5 c 128,-1,30
 73 220 73 220 73 350 c 1,31,-1
 74 379 l 1,32,-1
 75 387 l 1,33,-1
 241 387 l 1,34,-1
 241 380 l 1,35,-1
 239 350 l 1,36,37
 239 239 239 239 306 182 c 128,-1,38
 373 125 373 125 484 125 c 0,39,40
 609 125 609 125 676.5 178 c 128,-1,41
 744 231 744 231 744 332 c 0,42,43
 744 398 744 398 707 441 c 128,-1,44
 670 484 670 484 615.5 509 c 128,-1,45
 561 534 561 534 465 566 c 0,46,47
 346 605 346 605 274 640.5 c 128,-1,48
 202 676 202 676 150.5 746 c 128,-1,49
 99 816 99 816 99 930 c 0,50,51
 99 1041 99 1041 151 1116 c 128,-1,52
 203 1191 203 1191 292 1227.5 c 128,-1,53
 381 1264 381 1264 493 1264 c 0,54,5
 667 1264 667 1264 774.5 1177.5 c 128,-1,6
EndSplineSet
Position2: "'cpsp' Capital Spacing lookup 0 subtable" dx=5 dy=0 dh=10 dv=0
EndChar

StartChar: Scaron
Encoding: 352 352 96
Width: 991
GlyphClass: 2
Flags: W
LayerCount: 2
Back
Fore
SplineSet
413 1599 m 1,0,-1
 493 1456 l 1,1,-1
 574 1599 l 1,2,-1
 720 1599 l 1,3,-1
 564 1354 l 1,4,-1
 423 1354 l 1,5,-1
 269 1599 l 1,6,-1
 413 1599 l 1,0,-1
774.5 1177.5 m 128,-1,8
 882 1091 882 1091 882 913 c 2,9,-1
 882 893 l 1,10,-1
 718 893 l 1,11,-1
 718 920 l 2,12,13
 718 1012 718 1012 656 1064 c 128,-1,14
 594 1116 594 1116 497 1116 c 0,15,16
 393 1116 393 1116 330 1073 c 128,-1,17
 267 1030 267 1030 267 944 c 0,18,19
 267 881 267 881 303.5 840 c 128,-1,20
 340 799 340 799 394.5 774.5 c 128,-1,21
 449 750 449 750 543 719 c 0,22,23
 663 679 663 679 735.5 643.5 c 128,-1,24
 808 608 808 608 860 539 c 128,-1,25
 912 470 912 470 912 358 c 0,26,27
 912 160 912 160 798.5 68.5 c 128,-1,28
 685 -23 685 -23 491 -23 c 0,29,30
 372 -23 372 -23 278 15 c 128,-1,31
 184 53 184 53 128.5 136.5 c 128,-1,32
 73 220 73 220 73 350 c 1,33,-1
 74 379 l 1,34,-1
 75 387 l 1,35,-1
 241 387 l 1,36,-1
 241 380 l 1,37,-1
 239 350 l 1,38,39
 239 239 239 239 306 182 c 128,-1,40
 373 125 373 125 484 125 c 0,41,42
 609 125 609 125 676.5 178 c 128,-1,43
 744 231 744 231 744 332 c 0,44,45
 744 398 744 398 707 441 c 128,-1,46
 670 484 670 484 615.5 509 c 128,-1,47
 561 534 561 534 465 566 c 0,48,49
 346 605 346 605 274 640.5 c 128,-1,50
 202 676 202 676 150.5 746 c 128,-1,51
 99 816 99 816 99 930 c 0,52,53
 99 1041 99 1041 151 1116 c 128,-1,54
 203 1191 203 1191 292 1227.5 c 128,-1,55
 381 1264 381 1264 493 1264 c 0,56,7
 667 1264 667 1264 774.5 1177.5 c 128,-1,8
EndSplineSet
Position2: "'cpsp' Capital Spacing lookup 0 subtable" dx=5 dy=0 dh=10 dv=0
EndChar

StartChar: Scedilla
Encoding: 350 350 97
Width: 991
GlyphClass: 2
Flags: W
LayerCount: 2
Back
Fore
SplineSet
774.5 1177.5 m 128,-1,1
 882 1091 882 1091 882 913 c 2,2,-1
 882 893 l 1,3,-1
 718 893 l 1,4,-1
 718 920 l 2,5,6
 718 1012 718 1012 656 1064 c 128,-1,7
 594 1116 594 1116 497 1116 c 0,8,9
 393 1116 393 1116 330 1073 c 128,-1,10
 267 1030 267 1030 267 944 c 0,11,12
 267 881 267 881 303.5 840 c 128,-1,13
 340 799 340 799 394.5 774.5 c 128,-1,14
 449 750 449 750 543 719 c 0,15,16
 663 679 663 679 735.5 643.5 c 128,-1,17
 808 608 808 608 860 539 c 128,-1,18
 912 470 912 470 912 358 c 0,19,20
 912 168 912 168 808.5 78 c 128,-1,21
 705 -12 705 -12 523 -20 c 1,22,-1
 519 -66 l 1,23,24
 584 -69 584 -69 624.5 -97 c 128,-1,25
 665 -125 665 -125 665 -182 c 0,26,27
 665 -264 665 -264 607 -297 c 128,-1,28
 549 -330 549 -330 476 -330 c 0,29,30
 397 -330 397 -330 325 -315 c 1,31,-1
 325 -227 l 1,32,-1
 462 -227 l 2,33,34
 495 -227 495 -227 511 -217 c 128,-1,35
 527 -207 527 -207 527 -182 c 0,36,37
 527 -160 527 -160 513.5 -149.5 c 128,-1,38
 500 -139 500 -139 466 -139 c 2,39,-1
 407 -139 l 1,40,-1
 425 -18 l 1,41,42
 264 -3 264 -3 168.5 86 c 128,-1,43
 73 175 73 175 73 350 c 1,44,-1
 74 379 l 1,45,-1
 75 387 l 1,46,-1
 241 387 l 1,47,-1
 241 380 l 1,48,-1
 239 350 l 1,49,50
 239 239 239 239 306 182 c 128,-1,51
 373 125 373 125 484 125 c 0,52,53
 609 125 609 125 676.5 178 c 128,-1,54
 744 231 744 231 744 332 c 0,55,56
 744 398 744 398 707 441 c 128,-1,57
 670 484 670 484 615.5 509 c 128,-1,58
 561 534 561 534 465 566 c 0,59,60
 346 605 346 605 274 640.5 c 128,-1,61
 202 676 202 676 150.5 746 c 128,-1,62
 99 816 99 816 99 930 c 0,63,64
 99 1041 99 1041 151 1116 c 128,-1,65
 203 1191 203 1191 292 1227.5 c 128,-1,66
 381 1264 381 1264 493 1264 c 0,67,0
 667 1264 667 1264 774.5 1177.5 c 128,-1,1
EndSplineSet
Substitution2: "'locl' Localized Forms in Latin lookup 6 subtable" Scommaaccent
Substitution2: "'locl' Localized Forms in Latin lookup 5 subtable" Scommaaccent
Substitution2: "'aalt' Access All Alternates lookup 0 subtable" Scommaaccent
Position2: "'cpsp' Capital Spacing lookup 0 subtable" dx=5 dy=0 dh=10 dv=0
EndChar

StartChar: Scircumflex
Encoding: 348 348 98
Width: 991
GlyphClass: 2
Flags: W
LayerCount: 2
Back
Fore
SplineSet
413 1352 m 1,0,-1
 269 1352 l 1,1,-1
 425 1597 l 1,2,-1
 566 1597 l 1,3,-1
 720 1352 l 1,4,-1
 574 1352 l 1,5,-1
 495 1495 l 1,6,-1
 413 1352 l 1,0,-1
774.5 1177.5 m 128,-1,8
 882 1091 882 1091 882 913 c 2,9,-1
 882 893 l 1,10,-1
 718 893 l 1,11,-1
 718 920 l 2,12,13
 718 1012 718 1012 656 1064 c 128,-1,14
 594 1116 594 1116 497 1116 c 0,15,16
 393 1116 393 1116 330 1073 c 128,-1,17
 267 1030 267 1030 267 944 c 0,18,19
 267 881 267 881 303.5 840 c 128,-1,20
 340 799 340 799 394.5 774.5 c 128,-1,21
 449 750 449 750 543 719 c 0,22,23
 663 679 663 679 735.5 643.5 c 128,-1,24
 808 608 808 608 860 539 c 128,-1,25
 912 470 912 470 912 358 c 0,26,27
 912 160 912 160 798.5 68.5 c 128,-1,28
 685 -23 685 -23 491 -23 c 0,29,30
 372 -23 372 -23 278 15 c 128,-1,31
 184 53 184 53 128.5 136.5 c 128,-1,32
 73 220 73 220 73 350 c 1,33,-1
 74 379 l 1,34,-1
 75 387 l 1,35,-1
 241 387 l 1,36,-1
 241 380 l 1,37,-1
 239 350 l 1,38,39
 239 239 239 239 306 182 c 128,-1,40
 373 125 373 125 484 125 c 0,41,42
 609 125 609 125 676.5 178 c 128,-1,43
 744 231 744 231 744 332 c 0,44,45
 744 398 744 398 707 441 c 128,-1,46
 670 484 670 484 615.5 509 c 128,-1,47
 561 534 561 534 465 566 c 0,48,49
 346 605 346 605 274 640.5 c 128,-1,50
 202 676 202 676 150.5 746 c 128,-1,51
 99 816 99 816 99 930 c 0,52,53
 99 1041 99 1041 151 1116 c 128,-1,54
 203 1191 203 1191 292 1227.5 c 128,-1,55
 381 1264 381 1264 493 1264 c 0,56,7
 667 1264 667 1264 774.5 1177.5 c 128,-1,8
EndSplineSet
Position2: "'cpsp' Capital Spacing lookup 0 subtable" dx=5 dy=0 dh=10 dv=0
EndChar

StartChar: T
Encoding: 84 84 100
Width: 907
GlyphClass: 2
Flags: W
AnchorPoint: "Anchor-1" 455 0 basechar 0
AnchorPoint: "Anchor-0" 455 1241 basechar 0
LayerCount: 2
Back
Fore
SplineSet
531 0 m 1,0,-1
 372 0 l 1,1,-1
 372 1098 l 1,2,-1
 34 1098 l 1,3,-1
 34 1241 l 1,4,-1
 869 1241 l 1,5,-1
 869 1098 l 1,6,-1
 531 1098 l 1,7,-1
 531 0 l 1,0,-1
EndSplineSet
Position2: "'cpsp' Capital Spacing lookup 0 subtable" dx=5 dy=0 dh=10 dv=0
EndChar

StartChar: Tbar
Encoding: 358 358 101
Width: 907
GlyphClass: 2
Flags: W
LayerCount: 2
Back
Fore
SplineSet
531 711 m 1,0,-1
 769 711 l 1,1,-1
 769 580 l 1,2,-1
 531 580 l 1,3,-1
 531 0 l 1,4,-1
 372 0 l 1,5,-1
 372 580 l 1,6,-1
 138 580 l 1,7,-1
 138 711 l 1,8,-1
 372 711 l 1,9,-1
 372 1098 l 1,10,-1
 34 1098 l 1,11,-1
 34 1241 l 1,12,-1
 869 1241 l 1,13,-1
 869 1098 l 1,14,-1
 531 1098 l 1,15,-1
 531 711 l 1,0,-1
EndSplineSet
Position2: "'cpsp' Capital Spacing lookup 0 subtable" dx=5 dy=0 dh=10 dv=0
EndChar

StartChar: Tcaron
Encoding: 356 356 102
Width: 907
GlyphClass: 2
Flags: W
LayerCount: 2
Back
Fore
SplineSet
226 1599 m 1,0,-1
 372 1599 l 1,1,-1
 452 1456 l 1,2,-1
 534 1599 l 1,3,-1
 677 1599 l 1,4,-1
 521 1354 l 1,5,-1
 382 1354 l 1,6,-1
 226 1599 l 1,0,-1
531 0 m 1,7,-1
 372 0 l 1,8,-1
 372 1098 l 1,9,-1
 34 1098 l 1,10,-1
 34 1241 l 1,11,-1
 869 1241 l 1,12,-1
 869 1098 l 1,13,-1
 531 1098 l 1,14,-1
 531 0 l 1,7,-1
EndSplineSet
Position2: "'cpsp' Capital Spacing lookup 0 subtable" dx=5 dy=0 dh=10 dv=0
EndChar

StartChar: Tcedilla
Encoding: 354 354 103
Width: 907
GlyphClass: 2
Flags: W
AnchorPoint: "Anchor-1" 455 0 basechar 0
AnchorPoint: "Anchor-0" 455 1241 basechar 0
LayerCount: 2
Back
Fore
SplineSet
476 -66 m 1,0,1
 541 -69 541 -69 582.5 -97 c 128,-1,2
 624 -125 624 -125 624 -182 c 0,3,4
 624 -264 624 -264 566 -297 c 128,-1,5
 508 -330 508 -330 435 -330 c 0,6,7
 356 -330 356 -330 284 -315 c 1,8,-1
 284 -227 l 1,9,-1
 421 -227 l 2,10,11
 453 -227 453 -227 469.5 -217 c 128,-1,12
 486 -207 486 -207 486 -182 c 0,13,14
 486 -160 486 -160 472.5 -149.5 c 128,-1,15
 459 -139 459 -139 425 -139 c 2,16,-1
 365 -139 l 1,17,-1
 387 0 l 1,18,-1
 372 0 l 1,19,-1
 372 1098 l 1,20,-1
 34 1098 l 1,21,-1
 34 1241 l 1,22,-1
 869 1241 l 1,23,-1
 869 1098 l 1,24,-1
 531 1098 l 1,25,-1
 531 0 l 1,26,-1
 487 0 l 1,27,-1
 476 -66 l 1,0,1
EndSplineSet
Substitution2: "'locl' Localized Forms in Latin lookup 6 subtable" uni021A
Substitution2: "'locl' Localized Forms in Latin lookup 5 subtable" uni021A
Substitution2: "'aalt' Access All Alternates lookup 0 subtable" uni021A
Position2: "'cpsp' Capital Spacing lookup 0 subtable" dx=5 dy=0 dh=10 dv=0
EndChar

StartChar: uni021A
Encoding: 538 538 104
Width: 907
GlyphClass: 2
Flags: W
LayerCount: 2
Back
Fore
SplineSet
531 0 m 1,0,-1
 372 0 l 1,1,-1
 372 1098 l 1,2,-1
 34 1098 l 1,3,-1
 34 1241 l 1,4,-1
 869 1241 l 1,5,-1
 869 1098 l 1,6,-1
 531 1098 l 1,7,-1
 531 0 l 1,0,-1
396 -401 m 1,8,-1
 437 -272 l 1,9,-1
 376 -272 l 1,10,-1
 376 -109 l 1,11,-1
 529 -109 l 1,12,-1
 529 -260 l 1,13,-1
 476 -401 l 1,14,-1
 396 -401 l 1,8,-1
EndSplineSet
Position2: "'cpsp' Capital Spacing lookup 0 subtable" dx=5 dy=0 dh=10 dv=0
EndChar

StartChar: U
Encoding: 85 85 105
Width: 1071
GlyphClass: 2
Flags: W
AnchorPoint: "Anchor-1" 0 0 basechar 0
AnchorPoint: "Anchor-0" 537 1241 basechar 0
LayerCount: 2
Back
Fore
SplineSet
836 87 m 128,-1,1
 729 -23 729 -23 536 -23 c 0,2,3
 342 -23 342 -23 234 87 c 128,-1,4
 126 197 126 197 126 403 c 2,5,-1
 126 1241 l 1,6,-1
 286 1241 l 1,7,-1
 286 395 l 2,8,9
 286 264 286 264 352 194.5 c 128,-1,10
 418 125 418 125 536 125 c 256,11,12
 654 125 654 125 719.5 194.5 c 128,-1,13
 785 264 785 264 785 395 c 2,14,-1
 785 1241 l 1,15,-1
 943 1241 l 1,16,-1
 943 403 l 2,17,0
 943 197 943 197 836 87 c 128,-1,1
EndSplineSet
Position2: "'cpsp' Capital Spacing lookup 0 subtable" dx=5 dy=0 dh=10 dv=0
EndChar

StartChar: Uacute
Encoding: 218 218 106
Width: 1071
GlyphClass: 2
Flags: W
LayerCount: 2
Back
Fore
SplineSet
427 1360 m 1,0,-1
 583 1599 l 1,1,-1
 744 1599 l 1,2,-1
 747 1593 l 1,3,-1
 554 1360 l 1,4,-1
 427 1360 l 1,0,-1
836 87 m 128,-1,6
 729 -23 729 -23 536 -23 c 0,7,8
 342 -23 342 -23 234 87 c 128,-1,9
 126 197 126 197 126 403 c 2,10,-1
 126 1241 l 1,11,-1
 286 1241 l 1,12,-1
 286 395 l 2,13,14
 286 264 286 264 352 194.5 c 128,-1,15
 418 125 418 125 536 125 c 256,16,17
 654 125 654 125 719.5 194.5 c 128,-1,18
 785 264 785 264 785 395 c 2,19,-1
 785 1241 l 1,20,-1
 943 1241 l 1,21,-1
 943 403 l 2,22,5
 943 197 943 197 836 87 c 128,-1,6
EndSplineSet
Position2: "'cpsp' Capital Spacing lookup 0 subtable" dx=5 dy=0 dh=10 dv=0
EndChar

StartChar: Ubreve
Encoding: 364 364 107
Width: 1071
GlyphClass: 2
Flags: W
LayerCount: 2
Back
Fore
SplineSet
731.5 1516.5 m 128,-1,1
 704 1476 704 1476 653 1449.5 c 128,-1,2
 602 1423 602 1423 536 1423 c 0,3,4
 469 1423 469 1423 417.5 1449.5 c 128,-1,5
 366 1476 366 1476 338 1516.5 c 128,-1,6
 310 1557 310 1557 310 1599 c 1,7,-1
 429 1599 l 1,8,9
 432 1577 432 1577 462.5 1557.5 c 128,-1,10
 493 1538 493 1538 536 1538 c 0,11,12
 565 1538 565 1538 589 1547.5 c 128,-1,13
 613 1557 613 1557 627.5 1571 c 128,-1,14
 642 1585 642 1585 644 1599 c 1,15,-1
 759 1599 l 1,16,0
 759 1557 759 1557 731.5 1516.5 c 128,-1,1
836 87 m 128,-1,18
 729 -23 729 -23 536 -23 c 0,19,20
 342 -23 342 -23 234 87 c 128,-1,21
 126 197 126 197 126 403 c 2,22,-1
 126 1241 l 1,23,-1
 286 1241 l 1,24,-1
 286 395 l 2,25,26
 286 264 286 264 352 194.5 c 128,-1,27
 418 125 418 125 536 125 c 256,28,29
 654 125 654 125 719.5 194.5 c 128,-1,30
 785 264 785 264 785 395 c 2,31,-1
 785 1241 l 1,32,-1
 943 1241 l 1,33,-1
 943 403 l 2,34,17
 943 197 943 197 836 87 c 128,-1,18
EndSplineSet
Position2: "'cpsp' Capital Spacing lookup 0 subtable" dx=5 dy=0 dh=10 dv=0
EndChar

StartChar: Ucircumflex
Encoding: 219 219 108
Width: 1071
GlyphClass: 2
Flags: W
LayerCount: 2
Back
Fore
SplineSet
538 1495 m 1,0,-1
 454 1352 l 1,1,-1
 308 1352 l 1,2,-1
 464 1597 l 1,3,-1
 605 1597 l 1,4,-1
 761 1352 l 1,5,-1
 615 1352 l 1,6,-1
 538 1495 l 1,0,-1
836 87 m 128,-1,8
 729 -23 729 -23 536 -23 c 0,9,10
 342 -23 342 -23 234 87 c 128,-1,11
 126 197 126 197 126 403 c 2,12,-1
 126 1241 l 1,13,-1
 286 1241 l 1,14,-1
 286 395 l 2,15,16
 286 264 286 264 352 194.5 c 128,-1,17
 418 125 418 125 536 125 c 256,18,19
 654 125 654 125 719.5 194.5 c 128,-1,20
 785 264 785 264 785 395 c 2,21,-1
 785 1241 l 1,22,-1
 943 1241 l 1,23,-1
 943 403 l 2,24,7
 943 197 943 197 836 87 c 128,-1,8
EndSplineSet
Position2: "'cpsp' Capital Spacing lookup 0 subtable" dx=5 dy=0 dh=10 dv=0
EndChar

StartChar: Udieresis
Encoding: 220 220 109
Width: 1071
GlyphClass: 2
Flags: W
LayerCount: 2
Back
Fore
SplineSet
318 1599 m 1,0,-1
 476 1599 l 1,1,-1
 476 1427 l 1,2,-1
 318 1427 l 1,3,-1
 318 1599 l 1,0,-1
591 1599 m 1,4,-1
 751 1599 l 1,5,-1
 751 1427 l 1,6,-1
 591 1427 l 1,7,-1
 591 1599 l 1,4,-1
836 87 m 128,-1,9
 729 -23 729 -23 536 -23 c 0,10,11
 342 -23 342 -23 234 87 c 128,-1,12
 126 197 126 197 126 403 c 2,13,-1
 126 1241 l 1,14,-1
 286 1241 l 1,15,-1
 286 395 l 2,16,17
 286 264 286 264 352 194.5 c 128,-1,18
 418 125 418 125 536 125 c 256,19,20
 654 125 654 125 719.5 194.5 c 128,-1,21
 785 264 785 264 785 395 c 2,22,-1
 785 1241 l 1,23,-1
 943 1241 l 1,24,-1
 943 403 l 2,25,8
 943 197 943 197 836 87 c 128,-1,9
EndSplineSet
Position2: "'cpsp' Capital Spacing lookup 0 subtable" dx=5 dy=0 dh=10 dv=0
EndChar

StartChar: Ugrave
Encoding: 217 217 110
Width: 1071
GlyphClass: 2
Flags: W
LayerCount: 2
Back
Fore
SplineSet
321 1593 m 1,0,-1
 323 1599 l 1,1,-1
 488 1599 l 1,2,-1
 642 1360 l 1,3,-1
 519 1360 l 1,4,-1
 321 1593 l 1,0,-1
836 87 m 128,-1,6
 729 -23 729 -23 536 -23 c 0,7,8
 342 -23 342 -23 234 87 c 128,-1,9
 126 197 126 197 126 403 c 2,10,-1
 126 1241 l 1,11,-1
 286 1241 l 1,12,-1
 286 395 l 2,13,14
 286 264 286 264 352 194.5 c 128,-1,15
 418 125 418 125 536 125 c 256,16,17
 654 125 654 125 719.5 194.5 c 128,-1,18
 785 264 785 264 785 395 c 2,19,-1
 785 1241 l 1,20,-1
 943 1241 l 1,21,-1
 943 403 l 2,22,5
 943 197 943 197 836 87 c 128,-1,6
EndSplineSet
Position2: "'cpsp' Capital Spacing lookup 0 subtable" dx=5 dy=0 dh=10 dv=0
EndChar

StartChar: Uhungarumlaut
Encoding: 368 368 111
Width: 1071
GlyphClass: 2
Flags: W
LayerCount: 2
Back
Fore
SplineSet
361 1360 m 1,0,-1
 474 1599 l 1,1,-1
 636 1599 l 1,2,-1
 638 1593 l 1,3,-1
 486 1360 l 1,4,-1
 361 1360 l 1,0,-1
599 1360 m 1,5,-1
 710 1599 l 1,6,-1
 871 1599 l 1,7,-1
 873 1593 l 1,8,-1
 722 1360 l 1,9,-1
 599 1360 l 1,5,-1
836 87 m 128,-1,11
 729 -23 729 -23 536 -23 c 0,12,13
 342 -23 342 -23 234 87 c 128,-1,14
 126 197 126 197 126 403 c 2,15,-1
 126 1241 l 1,16,-1
 286 1241 l 1,17,-1
 286 395 l 2,18,19
 286 264 286 264 352 194.5 c 128,-1,20
 418 125 418 125 536 125 c 256,21,22
 654 125 654 125 719.5 194.5 c 128,-1,23
 785 264 785 264 785 395 c 2,24,-1
 785 1241 l 1,25,-1
 943 1241 l 1,26,-1
 943 403 l 2,27,10
 943 197 943 197 836 87 c 128,-1,11
EndSplineSet
Position2: "'cpsp' Capital Spacing lookup 0 subtable" dx=5 dy=0 dh=10 dv=0
EndChar

StartChar: Umacron
Encoding: 362 362 112
Width: 1071
GlyphClass: 2
Flags: W
LayerCount: 2
Back
Fore
SplineSet
308 1505 m 1,0,-1
 761 1505 l 1,1,-1
 761 1374 l 1,2,-1
 308 1374 l 1,3,-1
 308 1505 l 1,0,-1
836 87 m 128,-1,5
 729 -23 729 -23 536 -23 c 0,6,7
 342 -23 342 -23 234 87 c 128,-1,8
 126 197 126 197 126 403 c 2,9,-1
 126 1241 l 1,10,-1
 286 1241 l 1,11,-1
 286 395 l 2,12,13
 286 264 286 264 352 194.5 c 128,-1,14
 418 125 418 125 536 125 c 256,15,16
 654 125 654 125 719.5 194.5 c 128,-1,17
 785 264 785 264 785 395 c 2,18,-1
 785 1241 l 1,19,-1
 943 1241 l 1,20,-1
 943 403 l 2,21,4
 943 197 943 197 836 87 c 128,-1,5
EndSplineSet
Position2: "'cpsp' Capital Spacing lookup 0 subtable" dx=5 dy=0 dh=10 dv=0
EndChar

StartChar: Uogonek
Encoding: 370 370 113
Width: 1071
GlyphClass: 2
Flags: W
LayerCount: 2
Back
Fore
SplineSet
943 403 m 2,0,1
 943 252 943 252 885 153 c 128,-1,2
 827 54 827 54 718 8 c 1,3,4
 698 -12 698 -12 683.5 -45 c 128,-1,5
 669 -78 669 -78 669 -113 c 0,6,7
 669 -155 669 -155 689.5 -183 c 128,-1,8
 710 -211 710 -211 753 -211 c 2,9,-1
 808 -211 l 1,10,-1
 808 -305 l 1,11,12
 742 -330 742 -330 697 -330 c 0,13,14
 629 -330 629 -330 578 -291 c 128,-1,15
 527 -252 527 -252 527 -166 c 0,16,17
 527 -121 527 -121 539.5 -86.5 c 128,-1,18
 552 -52 552 -52 576 -21 c 1,19,20
 552 -23 552 -23 536 -23 c 0,21,22
 342 -23 342 -23 234 87 c 128,-1,23
 126 197 126 197 126 403 c 2,24,-1
 126 1241 l 1,25,-1
 286 1241 l 1,26,-1
 286 395 l 2,27,28
 286 264 286 264 352 194.5 c 128,-1,29
 418 125 418 125 536 125 c 256,30,31
 654 125 654 125 719.5 194.5 c 128,-1,32
 785 264 785 264 785 395 c 2,33,-1
 785 1241 l 1,34,-1
 943 1241 l 1,35,-1
 943 403 l 2,0,1
EndSplineSet
Position2: "'cpsp' Capital Spacing lookup 0 subtable" dx=5 dy=0 dh=10 dv=0
EndChar

StartChar: Uring
Encoding: 366 366 114
Width: 1071
GlyphClass: 2
Flags: W
LayerCount: 2
Back
Fore
SplineSet
623 1633 m 128,-1,1
 663 1609 663 1609 686.5 1569 c 128,-1,2
 710 1529 710 1529 710 1483 c 0,3,4
 710 1435 710 1435 686.5 1395 c 128,-1,5
 663 1355 663 1355 623 1332 c 128,-1,6
 583 1309 583 1309 536 1309 c 256,7,8
 489 1309 489 1309 449 1332 c 128,-1,9
 409 1355 409 1355 385 1395 c 128,-1,10
 361 1435 361 1435 361 1483 c 0,11,12
 361 1530 361 1530 384.5 1570 c 128,-1,13
 408 1610 408 1610 448 1633.5 c 128,-1,14
 488 1657 488 1657 536 1657 c 0,15,0
 583 1657 583 1657 623 1633 c 128,-1,1
470 1548 m 128,-1,17
 443 1521 443 1521 443 1483 c 256,18,19
 443 1445 443 1445 470 1418 c 128,-1,20
 497 1391 497 1391 536 1391 c 0,21,22
 573 1391 573 1391 600.5 1418 c 128,-1,23
 628 1445 628 1445 628 1483 c 256,24,25
 628 1521 628 1521 600.5 1548 c 128,-1,26
 573 1575 573 1575 536 1575 c 0,27,16
 497 1575 497 1575 470 1548 c 128,-1,17
836 87 m 128,-1,29
 729 -23 729 -23 536 -23 c 0,30,31
 342 -23 342 -23 234 87 c 128,-1,32
 126 197 126 197 126 403 c 2,33,-1
 126 1241 l 1,34,-1
 286 1241 l 1,35,-1
 286 395 l 2,36,37
 286 264 286 264 352 194.5 c 128,-1,38
 418 125 418 125 536 125 c 256,39,40
 654 125 654 125 719.5 194.5 c 128,-1,41
 785 264 785 264 785 395 c 2,42,-1
 785 1241 l 1,43,-1
 943 1241 l 1,44,-1
 943 403 l 2,45,28
 943 197 943 197 836 87 c 128,-1,29
EndSplineSet
Position2: "'cpsp' Capital Spacing lookup 0 subtable" dx=5 dy=0 dh=10 dv=0
EndChar

StartChar: Utilde
Encoding: 360 360 115
Width: 1071
GlyphClass: 2
Flags: W
LayerCount: 2
Back
Fore
SplineSet
783.5 1511 m 128,-1,1
 767 1468 767 1468 732 1439.5 c 128,-1,2
 697 1411 697 1411 646 1411 c 0,3,4
 619 1411 619 1411 595 1418 c 128,-1,5
 571 1425 571 1425 534 1440 c 0,6,7
 501 1453 501 1453 480.5 1459.5 c 128,-1,8
 460 1466 460 1466 437 1466 c 0,9,10
 384 1466 384 1466 376 1411 c 1,11,-1
 271 1411 l 1,12,13
 271 1455 271 1455 287.5 1498.5 c 128,-1,14
 304 1542 304 1542 339 1570.5 c 128,-1,15
 374 1599 374 1599 425 1599 c 0,16,17
 451 1599 451 1599 474.5 1592 c 128,-1,18
 498 1585 498 1585 534 1570 c 0,19,20
 566 1557 566 1557 587.5 1550.5 c 128,-1,21
 609 1544 609 1544 632 1544 c 0,22,23
 659 1544 659 1544 674.5 1556.5 c 128,-1,24
 690 1569 690 1569 693 1599 c 1,25,-1
 800 1599 l 1,26,0
 800 1554 800 1554 783.5 1511 c 128,-1,1
836 87 m 128,-1,28
 729 -23 729 -23 536 -23 c 0,29,30
 342 -23 342 -23 234 87 c 128,-1,31
 126 197 126 197 126 403 c 2,32,-1
 126 1241 l 1,33,-1
 286 1241 l 1,34,-1
 286 395 l 2,35,36
 286 264 286 264 352 194.5 c 128,-1,37
 418 125 418 125 536 125 c 256,38,39
 654 125 654 125 719.5 194.5 c 128,-1,40
 785 264 785 264 785 395 c 2,41,-1
 785 1241 l 1,42,-1
 943 1241 l 1,43,-1
 943 403 l 2,44,27
 943 197 943 197 836 87 c 128,-1,28
EndSplineSet
Position2: "'cpsp' Capital Spacing lookup 0 subtable" dx=5 dy=0 dh=10 dv=0
EndChar

StartChar: V
Encoding: 86 86 116
Width: 991
GlyphClass: 2
Flags: W
LayerCount: 2
Back
Fore
SplineSet
190 1241 m 1,0,-1
 498 176 l 1,1,-1
 506 176 l 1,2,-1
 821 1241 l 1,3,-1
 975 1241 l 1,4,-1
 598 0 l 1,5,-1
 393 0 l 1,6,-1
 14 1241 l 1,7,-1
 190 1241 l 1,0,-1
EndSplineSet
Position2: "'cpsp' Capital Spacing lookup 0 subtable" dx=5 dy=0 dh=10 dv=0
EndChar

StartChar: W
Encoding: 87 87 117
Width: 1401
GlyphClass: 2
Flags: W
AnchorPoint: "Anchor-1" 0 0 basechar 0
AnchorPoint: "Anchor-0" 700 1241 basechar 0
LayerCount: 2
Back
Fore
SplineSet
715.5 980 m 128,-1,1
 704 1065 704 1065 701 1092 c 1,2,-1
 693 1092 l 1,3,4
 690 1065 690 1065 680 980 c 128,-1,5
 670 895 670 895 661 842 c 2,6,-1
 511 0 l 1,7,-1
 304 0 l 1,8,-1
 17 1241 l 1,9,-1
 185 1241 l 1,10,-1
 376 383 l 2,11,12
 386 338 386 338 398 263 c 128,-1,13
 410 188 410 188 413 164 c 1,14,-1
 421 164 l 1,15,16
 423 183 423 183 431.5 249 c 128,-1,17
 440 315 440 315 452 383 c 2,18,-1
 595 1241 l 1,19,-1
 816 1241 l 1,20,-1
 970 383 l 2,21,22
 980 327 980 327 990 256.5 c 128,-1,23
 1000 186 1000 186 1003 164 c 1,24,-1
 1009 164 l 1,25,26
 1012 187 1012 187 1024 260 c 128,-1,27
 1036 333 1036 333 1048 383 c 2,28,-1
 1238 1241 l 1,29,-1
 1381 1241 l 1,30,-1
 1095 0 l 1,31,-1
 888 0 l 1,32,-1
 736 842 l 2,33,0
 727 895 727 895 715.5 980 c 128,-1,1
EndSplineSet
Position2: "'cpsp' Capital Spacing lookup 0 subtable" dx=5 dy=0 dh=10 dv=0
EndChar

StartChar: Wacute
Encoding: 7810 7810 118
Width: 1401
GlyphClass: 2
Flags: W
LayerCount: 2
Back
Fore
SplineSet
593 1360 m 1,0,-1
 749 1599 l 1,1,-1
 910 1599 l 1,2,-1
 912 1593 l 1,3,-1
 718 1360 l 1,4,-1
 593 1360 l 1,0,-1
736 842 m 2,5,6
 727 895 727 895 715.5 980 c 128,-1,7
 704 1065 704 1065 701 1092 c 1,8,-1
 693 1092 l 1,9,10
 690 1065 690 1065 680 980 c 128,-1,11
 670 895 670 895 661 842 c 2,12,-1
 511 0 l 1,13,-1
 304 0 l 1,14,-1
 17 1241 l 1,15,-1
 185 1241 l 1,16,-1
 376 383 l 2,17,18
 386 338 386 338 398 263 c 128,-1,19
 410 188 410 188 413 164 c 1,20,-1
 421 164 l 1,21,22
 423 183 423 183 431.5 249 c 128,-1,23
 440 315 440 315 452 383 c 2,24,-1
 595 1241 l 1,25,-1
 816 1241 l 1,26,-1
 970 383 l 2,27,28
 980 327 980 327 990 256.5 c 128,-1,29
 1000 186 1000 186 1003 164 c 1,30,-1
 1009 164 l 1,31,32
 1012 187 1012 187 1024 260 c 128,-1,33
 1036 333 1036 333 1048 383 c 2,34,-1
 1238 1241 l 1,35,-1
 1381 1241 l 1,36,-1
 1095 0 l 1,37,-1
 888 0 l 1,38,-1
 736 842 l 2,5,6
EndSplineSet
Position2: "'cpsp' Capital Spacing lookup 0 subtable" dx=5 dy=0 dh=10 dv=0
EndChar

StartChar: Wcircumflex
Encoding: 372 372 119
Width: 1401
GlyphClass: 2
Flags: W
LayerCount: 2
Back
Fore
SplineSet
620 1352 m 1,0,-1
 474 1352 l 1,1,-1
 632 1597 l 1,2,-1
 771 1597 l 1,3,-1
 927 1352 l 1,4,-1
 781 1352 l 1,5,-1
 701 1495 l 1,6,-1
 620 1352 l 1,0,-1
715.5 980 m 128,-1,8
 704 1065 704 1065 701 1092 c 1,9,-1
 693 1092 l 1,10,11
 690 1065 690 1065 680 980 c 128,-1,12
 670 895 670 895 661 842 c 2,13,-1
 511 0 l 1,14,-1
 304 0 l 1,15,-1
 17 1241 l 1,16,-1
 185 1241 l 1,17,-1
 376 383 l 2,18,19
 386 338 386 338 398 263 c 128,-1,20
 410 188 410 188 413 164 c 1,21,-1
 421 164 l 1,22,23
 423 183 423 183 431.5 249 c 128,-1,24
 440 315 440 315 452 383 c 2,25,-1
 595 1241 l 1,26,-1
 816 1241 l 1,27,-1
 970 383 l 2,28,29
 980 327 980 327 990 256.5 c 128,-1,30
 1000 186 1000 186 1003 164 c 1,31,-1
 1009 164 l 1,32,33
 1012 187 1012 187 1024 260 c 128,-1,34
 1036 333 1036 333 1048 383 c 2,35,-1
 1238 1241 l 1,36,-1
 1381 1241 l 1,37,-1
 1095 0 l 1,38,-1
 888 0 l 1,39,-1
 736 842 l 2,40,7
 727 895 727 895 715.5 980 c 128,-1,8
EndSplineSet
Position2: "'cpsp' Capital Spacing lookup 0 subtable" dx=5 dy=0 dh=10 dv=0
EndChar

StartChar: Wdieresis
Encoding: 7812 7812 120
Width: 1401
GlyphClass: 2
Flags: W
LayerCount: 2
Back
Fore
SplineSet
486 1599 m 1,0,-1
 642 1599 l 1,1,-1
 642 1427 l 1,2,-1
 486 1427 l 1,3,-1
 486 1599 l 1,0,-1
757 1599 m 1,4,-1
 914 1599 l 1,5,-1
 914 1427 l 1,6,-1
 757 1427 l 1,7,-1
 757 1599 l 1,4,-1
736 842 m 2,8,9
 727 895 727 895 715.5 980 c 128,-1,10
 704 1065 704 1065 701 1092 c 1,11,-1
 693 1092 l 1,12,13
 690 1065 690 1065 680 980 c 128,-1,14
 670 895 670 895 661 842 c 2,15,-1
 511 0 l 1,16,-1
 304 0 l 1,17,-1
 17 1241 l 1,18,-1
 185 1241 l 1,19,-1
 376 383 l 2,20,21
 386 338 386 338 398 263 c 128,-1,22
 410 188 410 188 413 164 c 1,23,-1
 421 164 l 1,24,25
 423 183 423 183 431.5 249 c 128,-1,26
 440 315 440 315 452 383 c 2,27,-1
 595 1241 l 1,28,-1
 816 1241 l 1,29,-1
 970 383 l 2,30,31
 980 327 980 327 990 256.5 c 128,-1,32
 1000 186 1000 186 1003 164 c 1,33,-1
 1009 164 l 1,34,35
 1012 187 1012 187 1024 260 c 128,-1,36
 1036 333 1036 333 1048 383 c 2,37,-1
 1238 1241 l 1,38,-1
 1381 1241 l 1,39,-1
 1095 0 l 1,40,-1
 888 0 l 1,41,-1
 736 842 l 2,8,9
EndSplineSet
Position2: "'cpsp' Capital Spacing lookup 0 subtable" dx=5 dy=0 dh=10 dv=0
EndChar

StartChar: Wgrave
Encoding: 7808 7808 121
Width: 1401
GlyphClass: 2
Flags: W
LayerCount: 2
Back
Fore
SplineSet
488 1593 m 1,0,-1
 491 1599 l 1,1,-1
 652 1599 l 1,2,-1
 808 1360 l 1,3,-1
 683 1360 l 1,4,-1
 488 1593 l 1,0,-1
736 842 m 2,5,6
 727 895 727 895 715.5 980 c 128,-1,7
 704 1065 704 1065 701 1092 c 1,8,-1
 693 1092 l 1,9,10
 690 1065 690 1065 680 980 c 128,-1,11
 670 895 670 895 661 842 c 2,12,-1
 511 0 l 1,13,-1
 304 0 l 1,14,-1
 17 1241 l 1,15,-1
 185 1241 l 1,16,-1
 376 383 l 2,17,18
 386 338 386 338 398 263 c 128,-1,19
 410 188 410 188 413 164 c 1,20,-1
 421 164 l 1,21,22
 423 183 423 183 431.5 249 c 128,-1,23
 440 315 440 315 452 383 c 2,24,-1
 595 1241 l 1,25,-1
 816 1241 l 1,26,-1
 970 383 l 2,27,28
 980 327 980 327 990 256.5 c 128,-1,29
 1000 186 1000 186 1003 164 c 1,30,-1
 1009 164 l 1,31,32
 1012 187 1012 187 1024 260 c 128,-1,33
 1036 333 1036 333 1048 383 c 2,34,-1
 1238 1241 l 1,35,-1
 1381 1241 l 1,36,-1
 1095 0 l 1,37,-1
 888 0 l 1,38,-1
 736 842 l 2,5,6
EndSplineSet
Position2: "'cpsp' Capital Spacing lookup 0 subtable" dx=5 dy=0 dh=10 dv=0
EndChar

StartChar: X
Encoding: 88 88 122
Width: 991
GlyphClass: 2
Flags: W
LayerCount: 2
Back
Fore
SplineSet
489 507 m 1,0,-1
 178 0 l 1,1,-1
 8 0 l 1,2,-1
 403 645 l 1,3,-1
 43 1241 l 1,4,-1
 231 1241 l 1,5,-1
 500 798 l 1,6,-1
 772 1241 l 1,7,-1
 944 1241 l 1,8,-1
 584 659 l 1,9,-1
 983 0 l 1,10,-1
 795 0 l 1,11,-1
 489 507 l 1,0,-1
EndSplineSet
Position2: "'cpsp' Capital Spacing lookup 0 subtable" dx=5 dy=0 dh=10 dv=0
EndChar

StartChar: Y
Encoding: 89 89 123
Width: 991
GlyphClass: 2
Flags: W
AnchorPoint: "Anchor-1" 0 0 basechar 0
AnchorPoint: "Anchor-0" 496 1241 basechar 0
LayerCount: 2
Back
Fore
SplineSet
416 514 m 1,0,-1
 14 1241 l 1,1,-1
 190 1241 l 1,2,-1
 506 666 l 1,3,-1
 512 666 l 1,4,-1
 821 1241 l 1,5,-1
 975 1241 l 1,6,-1
 575 514 l 1,7,-1
 575 0 l 1,8,-1
 416 0 l 1,9,-1
 416 514 l 1,0,-1
EndSplineSet
Position2: "'cpsp' Capital Spacing lookup 0 subtable" dx=5 dy=0 dh=10 dv=0
EndChar

StartChar: Yacute
Encoding: 221 221 124
Width: 991
GlyphClass: 2
Flags: W
LayerCount: 2
Back
Fore
SplineSet
387 1360 m 1,0,-1
 543 1599 l 1,1,-1
 707 1599 l 1,2,-1
 709 1593 l 1,3,-1
 512 1360 l 1,4,-1
 387 1360 l 1,0,-1
416 0 m 1,5,-1
 416 514 l 1,6,-1
 14 1241 l 1,7,-1
 190 1241 l 1,8,-1
 506 666 l 1,9,-1
 512 666 l 1,10,-1
 821 1241 l 1,11,-1
 975 1241 l 1,12,-1
 575 514 l 1,13,-1
 575 0 l 1,14,-1
 416 0 l 1,5,-1
EndSplineSet
Position2: "'cpsp' Capital Spacing lookup 0 subtable" dx=5 dy=0 dh=10 dv=0
EndChar

StartChar: Ycircumflex
Encoding: 374 374 125
Width: 991
GlyphClass: 2
Flags: W
LayerCount: 2
Back
Fore
SplineSet
414 1352 m 1,0,-1
 270 1352 l 1,1,-1
 426 1597 l 1,2,-1
 567 1597 l 1,3,-1
 721 1352 l 1,4,-1
 575 1352 l 1,5,-1
 496 1495 l 1,6,-1
 414 1352 l 1,0,-1
416 514 m 1,7,-1
 14 1241 l 1,8,-1
 190 1241 l 1,9,-1
 506 666 l 1,10,-1
 512 666 l 1,11,-1
 821 1241 l 1,12,-1
 975 1241 l 1,13,-1
 575 514 l 1,14,-1
 575 0 l 1,15,-1
 416 0 l 1,16,-1
 416 514 l 1,7,-1
EndSplineSet
Position2: "'cpsp' Capital Spacing lookup 0 subtable" dx=5 dy=0 dh=10 dv=0
EndChar

StartChar: Ydieresis
Encoding: 376 376 126
Width: 991
GlyphClass: 2
Flags: W
LayerCount: 2
Back
Fore
SplineSet
281 1599 m 1,0,-1
 438 1599 l 1,1,-1
 438 1427 l 1,2,-1
 281 1427 l 1,3,-1
 281 1599 l 1,0,-1
553 1599 m 1,4,-1
 711 1599 l 1,5,-1
 711 1427 l 1,6,-1
 553 1427 l 1,7,-1
 553 1599 l 1,4,-1
416 0 m 1,8,-1
 416 514 l 1,9,-1
 14 1241 l 1,10,-1
 190 1241 l 1,11,-1
 506 666 l 1,12,-1
 512 666 l 1,13,-1
 821 1241 l 1,14,-1
 975 1241 l 1,15,-1
 575 514 l 1,16,-1
 575 0 l 1,17,-1
 416 0 l 1,8,-1
EndSplineSet
Position2: "'cpsp' Capital Spacing lookup 0 subtable" dx=5 dy=0 dh=10 dv=0
EndChar

StartChar: Ygrave
Encoding: 7922 7922 127
Width: 991
GlyphClass: 2
Flags: W
LayerCount: 2
Back
Fore
SplineSet
283 1593 m 1,0,-1
 285 1599 l 1,1,-1
 446 1599 l 1,2,-1
 602 1360 l 1,3,-1
 477 1360 l 1,4,-1
 283 1593 l 1,0,-1
416 0 m 1,5,-1
 416 514 l 1,6,-1
 14 1241 l 1,7,-1
 190 1241 l 1,8,-1
 506 666 l 1,9,-1
 512 666 l 1,10,-1
 821 1241 l 1,11,-1
 975 1241 l 1,12,-1
 575 514 l 1,13,-1
 575 0 l 1,14,-1
 416 0 l 1,5,-1
EndSplineSet
Position2: "'cpsp' Capital Spacing lookup 0 subtable" dx=5 dy=0 dh=10 dv=0
EndChar

StartChar: Z
Encoding: 90 90 128
Width: 907
GlyphClass: 2
Flags: W
AnchorPoint: "Anchor-1" 0 0 basechar 0
AnchorPoint: "Anchor-0" 455 1241 basechar 0
LayerCount: 2
Back
Fore
SplineSet
865 145 m 1,0,-1
 865 0 l 1,1,-1
 36 0 l 1,2,-1
 36 70 l 1,3,-1
 626 1098 l 1,4,-1
 73 1098 l 1,5,-1
 73 1241 l 1,6,-1
 853 1241 l 1,7,-1
 853 1174 l 1,8,-1
 261 145 l 1,9,-1
 865 145 l 1,0,-1
EndSplineSet
Position2: "'cpsp' Capital Spacing lookup 0 subtable" dx=5 dy=0 dh=10 dv=0
EndChar

StartChar: Zacute
Encoding: 377 377 129
Width: 907
GlyphClass: 2
Flags: W
LayerCount: 2
Back
Fore
SplineSet
345 1360 m 1,0,-1
 501 1599 l 1,1,-1
 663 1599 l 1,2,-1
 665 1593 l 1,3,-1
 470 1360 l 1,4,-1
 345 1360 l 1,0,-1
865 145 m 1,5,-1
 865 0 l 1,6,-1
 36 0 l 1,7,-1
 36 70 l 1,8,-1
 626 1098 l 1,9,-1
 73 1098 l 1,10,-1
 73 1241 l 1,11,-1
 853 1241 l 1,12,-1
 853 1174 l 1,13,-1
 261 145 l 1,14,-1
 865 145 l 1,5,-1
EndSplineSet
Position2: "'cpsp' Capital Spacing lookup 0 subtable" dx=5 dy=0 dh=10 dv=0
EndChar

StartChar: Zcaron
Encoding: 381 381 130
Width: 907
GlyphClass: 2
Flags: W
LayerCount: 2
Back
Fore
SplineSet
226 1599 m 1,0,-1
 372 1599 l 1,1,-1
 452 1456 l 1,2,-1
 534 1599 l 1,3,-1
 677 1599 l 1,4,-1
 521 1354 l 1,5,-1
 382 1354 l 1,6,-1
 226 1599 l 1,0,-1
865 145 m 1,7,-1
 865 0 l 1,8,-1
 36 0 l 1,9,-1
 36 70 l 1,10,-1
 626 1098 l 1,11,-1
 73 1098 l 1,12,-1
 73 1241 l 1,13,-1
 853 1241 l 1,14,-1
 853 1174 l 1,15,-1
 261 145 l 1,16,-1
 865 145 l 1,7,-1
EndSplineSet
Position2: "'cpsp' Capital Spacing lookup 0 subtable" dx=5 dy=0 dh=10 dv=0
EndChar

StartChar: Zdotaccent
Encoding: 379 379 131
Width: 907
GlyphClass: 2
Flags: W
LayerCount: 2
Back
Fore
SplineSet
374 1599 m 1,0,-1
 531 1599 l 1,1,-1
 531 1427 l 1,2,-1
 374 1427 l 1,3,-1
 374 1599 l 1,0,-1
865 145 m 1,4,-1
 865 0 l 1,5,-1
 36 0 l 1,6,-1
 36 70 l 1,7,-1
 626 1098 l 1,8,-1
 73 1098 l 1,9,-1
 73 1241 l 1,10,-1
 853 1241 l 1,11,-1
 853 1174 l 1,12,-1
 261 145 l 1,13,-1
 865 145 l 1,4,-1
EndSplineSet
Position2: "'cpsp' Capital Spacing lookup 0 subtable" dx=5 dy=0 dh=10 dv=0
EndChar

StartChar: a
Encoding: 97 97 132
Width: 825
GlyphClass: 2
Flags: W
AnchorPoint: "Anchor-1" 0 0 basechar 0
AnchorPoint: "Anchor-0" 414 952 basechar 0
LayerCount: 2
Back
Fore
SplineSet
618 906 m 128,-1,1
 691 837 691 837 691 709 c 2,2,-1
 691 174 l 2,3,4
 691 143 691 143 705.5 127 c 128,-1,5
 720 111 720 111 740 111 c 2,6,-1
 800 111 l 1,7,-1
 800 8 l 1,8,9
 785 -1 785 -1 759.5 -7.5 c 128,-1,10
 734 -14 734 -14 701 -14 c 0,11,12
 644 -14 644 -14 604 17.5 c 128,-1,13
 564 49 564 49 552 102 c 1,14,-1
 542 102 l 1,15,16
 505 43 505 43 444.5 10 c 128,-1,17
 384 -23 384 -23 310 -23 c 0,18,19
 213 -23 213 -23 136.5 35 c 128,-1,20
 60 93 60 93 60 246 c 0,21,22
 60 371 60 371 120.5 441.5 c 128,-1,23
 181 512 181 512 285.5 538.5 c 128,-1,24
 390 565 390 565 542 565 c 1,25,-1
 542 688 l 2,26,27
 542 763 542 763 509.5 802.5 c 128,-1,28
 477 842 477 842 392 842 c 0,29,30
 315 842 315 842 280 798.5 c 128,-1,31
 245 755 245 755 245 692 c 2,32,-1
 245 670 l 1,33,-1
 99 670 l 1,34,35
 97 680 97 680 97 711 c 0,36,37
 97 795 97 795 135.5 854.5 c 128,-1,38
 174 914 174 914 243 944.5 c 128,-1,39
 312 975 312 975 402 975 c 0,40,0
 545 975 545 975 618 906 c 128,-1,1
365.5 418 m 128,-1,42
 295 404 295 404 255.5 365.5 c 128,-1,43
 216 327 216 327 216 256 c 0,44,45
 216 177 216 177 247.5 144 c 128,-1,46
 279 111 279 111 345 111 c 0,47,48
 394 111 394 111 439.5 138 c 128,-1,49
 485 165 485 165 513.5 218 c 128,-1,50
 542 271 542 271 542 346 c 2,51,-1
 542 432 l 1,52,41
 436 432 436 432 365.5 418 c 128,-1,42
EndSplineSet
Substitution2: "Single Substitution lookup 36 subtable" ordfeminine
Substitution2: "'aalt' Access All Alternates lookup 0 subtable" ordfeminine
EndChar

StartChar: aacute
Encoding: 225 225 133
Width: 825
GlyphClass: 2
Flags: W
LayerCount: 2
Back
Fore
SplineSet
296 1069 m 1,0,-1
 452 1309 l 1,1,-1
 615 1309 l 1,2,-1
 615 1303 l 1,3,-1
 421 1069 l 1,4,-1
 296 1069 l 1,0,-1
618 906 m 128,-1,6
 691 837 691 837 691 709 c 2,7,-1
 691 174 l 2,8,9
 691 143 691 143 705.5 127 c 128,-1,10
 720 111 720 111 740 111 c 2,11,-1
 800 111 l 1,12,-1
 800 8 l 1,13,14
 785 -1 785 -1 759.5 -7.5 c 128,-1,15
 734 -14 734 -14 701 -14 c 0,16,17
 644 -14 644 -14 604 17.5 c 128,-1,18
 564 49 564 49 552 102 c 1,19,-1
 542 102 l 1,20,21
 505 43 505 43 444.5 10 c 128,-1,22
 384 -23 384 -23 310 -23 c 0,23,24
 213 -23 213 -23 136.5 35 c 128,-1,25
 60 93 60 93 60 246 c 0,26,27
 60 371 60 371 120.5 441.5 c 128,-1,28
 181 512 181 512 285.5 538.5 c 128,-1,29
 390 565 390 565 542 565 c 1,30,-1
 542 688 l 2,31,32
 542 763 542 763 509.5 802.5 c 128,-1,33
 477 842 477 842 392 842 c 0,34,35
 315 842 315 842 280 798.5 c 128,-1,36
 245 755 245 755 245 692 c 2,37,-1
 245 670 l 1,38,-1
 99 670 l 1,39,40
 97 680 97 680 97 711 c 0,41,42
 97 795 97 795 135.5 854.5 c 128,-1,43
 174 914 174 914 243 944.5 c 128,-1,44
 312 975 312 975 402 975 c 0,45,5
 545 975 545 975 618 906 c 128,-1,6
365.5 418 m 128,-1,47
 295 404 295 404 255.5 365.5 c 128,-1,48
 216 327 216 327 216 256 c 0,49,50
 216 177 216 177 247.5 144 c 128,-1,51
 279 111 279 111 345 111 c 0,52,53
 394 111 394 111 439.5 138 c 128,-1,54
 485 165 485 165 513.5 218 c 128,-1,55
 542 271 542 271 542 346 c 2,56,-1
 542 432 l 1,57,46
 436 432 436 432 365.5 418 c 128,-1,47
EndSplineSet
EndChar

StartChar: abreve
Encoding: 259 259 134
Width: 825
GlyphClass: 2
Flags: W
LayerCount: 2
Back
Fore
SplineSet
608.5 1226 m 128,-1,1
 581 1185 581 1185 530 1159 c 128,-1,2
 479 1133 479 1133 413 1133 c 0,3,4
 346 1133 346 1133 294.5 1159 c 128,-1,5
 243 1185 243 1185 215 1226 c 128,-1,6
 187 1267 187 1267 187 1309 c 1,7,-1
 304 1309 l 1,8,9
 309 1287 309 1287 339 1268 c 128,-1,10
 369 1249 369 1249 413 1249 c 0,11,12
 442 1249 442 1249 466 1258.5 c 128,-1,13
 490 1268 490 1268 504.5 1282 c 128,-1,14
 519 1296 519 1296 521 1309 c 1,15,-1
 636 1309 l 1,16,0
 636 1267 636 1267 608.5 1226 c 128,-1,1
618 906 m 128,-1,18
 691 837 691 837 691 709 c 2,19,-1
 691 174 l 2,20,21
 691 143 691 143 705.5 127 c 128,-1,22
 720 111 720 111 740 111 c 2,23,-1
 800 111 l 1,24,-1
 800 8 l 1,25,26
 785 -1 785 -1 759.5 -7.5 c 128,-1,27
 734 -14 734 -14 701 -14 c 0,28,29
 644 -14 644 -14 604 17.5 c 128,-1,30
 564 49 564 49 552 102 c 1,31,-1
 542 102 l 1,32,33
 505 43 505 43 444.5 10 c 128,-1,34
 384 -23 384 -23 310 -23 c 0,35,36
 213 -23 213 -23 136.5 35 c 128,-1,37
 60 93 60 93 60 246 c 0,38,39
 60 371 60 371 120.5 441.5 c 128,-1,40
 181 512 181 512 285.5 538.5 c 128,-1,41
 390 565 390 565 542 565 c 1,42,-1
 542 688 l 2,43,44
 542 763 542 763 509.5 802.5 c 128,-1,45
 477 842 477 842 392 842 c 0,46,47
 315 842 315 842 280 798.5 c 128,-1,48
 245 755 245 755 245 692 c 2,49,-1
 245 670 l 1,50,-1
 99 670 l 1,51,52
 97 680 97 680 97 711 c 0,53,54
 97 795 97 795 135.5 854.5 c 128,-1,55
 174 914 174 914 243 944.5 c 128,-1,56
 312 975 312 975 402 975 c 0,57,17
 545 975 545 975 618 906 c 128,-1,18
365.5 418 m 128,-1,59
 295 404 295 404 255.5 365.5 c 128,-1,60
 216 327 216 327 216 256 c 0,61,62
 216 177 216 177 247.5 144 c 128,-1,63
 279 111 279 111 345 111 c 0,64,65
 394 111 394 111 439.5 138 c 128,-1,66
 485 165 485 165 513.5 218 c 128,-1,67
 542 271 542 271 542 346 c 2,68,-1
 542 432 l 1,69,58
 436 432 436 432 365.5 418 c 128,-1,59
EndSplineSet
EndChar

StartChar: acircumflex
Encoding: 226 226 135
Width: 825
GlyphClass: 2
Flags: W
LayerCount: 2
Back
Fore
SplineSet
333 1063 m 1,0,-1
 187 1063 l 1,1,-1
 341 1307 l 1,2,-1
 484 1307 l 1,3,-1
 638 1063 l 1,4,-1
 493 1063 l 1,5,-1
 413 1206 l 1,6,-1
 333 1063 l 1,0,-1
618 906 m 128,-1,8
 691 837 691 837 691 709 c 2,9,-1
 691 174 l 2,10,11
 691 143 691 143 705.5 127 c 128,-1,12
 720 111 720 111 740 111 c 2,13,-1
 800 111 l 1,14,-1
 800 8 l 1,15,16
 785 -1 785 -1 759.5 -7.5 c 128,-1,17
 734 -14 734 -14 701 -14 c 0,18,19
 644 -14 644 -14 604 17.5 c 128,-1,20
 564 49 564 49 552 102 c 1,21,-1
 542 102 l 1,22,23
 505 43 505 43 444.5 10 c 128,-1,24
 384 -23 384 -23 310 -23 c 0,25,26
 213 -23 213 -23 136.5 35 c 128,-1,27
 60 93 60 93 60 246 c 0,28,29
 60 371 60 371 120.5 441.5 c 128,-1,30
 181 512 181 512 285.5 538.5 c 128,-1,31
 390 565 390 565 542 565 c 1,32,-1
 542 688 l 2,33,34
 542 763 542 763 509.5 802.5 c 128,-1,35
 477 842 477 842 392 842 c 0,36,37
 315 842 315 842 280 798.5 c 128,-1,38
 245 755 245 755 245 692 c 2,39,-1
 245 670 l 1,40,-1
 99 670 l 1,41,42
 97 680 97 680 97 711 c 0,43,44
 97 795 97 795 135.5 854.5 c 128,-1,45
 174 914 174 914 243 944.5 c 128,-1,46
 312 975 312 975 402 975 c 0,47,7
 545 975 545 975 618 906 c 128,-1,8
365.5 418 m 128,-1,49
 295 404 295 404 255.5 365.5 c 128,-1,50
 216 327 216 327 216 256 c 0,51,52
 216 177 216 177 247.5 144 c 128,-1,53
 279 111 279 111 345 111 c 0,54,55
 394 111 394 111 439.5 138 c 128,-1,56
 485 165 485 165 513.5 218 c 128,-1,57
 542 271 542 271 542 346 c 2,58,-1
 542 432 l 1,59,48
 436 432 436 432 365.5 418 c 128,-1,49
EndSplineSet
EndChar

StartChar: adieresis
Encoding: 228 228 136
Width: 825
GlyphClass: 2
Flags: W
LayerCount: 2
Back
Fore
SplineSet
196 1309 m 1,0,-1
 353 1309 l 1,1,-1
 353 1137 l 1,2,-1
 196 1137 l 1,3,-1
 196 1309 l 1,0,-1
468 1309 m 1,4,-1
 628 1309 l 1,5,-1
 628 1137 l 1,6,-1
 468 1137 l 1,7,-1
 468 1309 l 1,4,-1
618 906 m 128,-1,9
 691 837 691 837 691 709 c 2,10,-1
 691 174 l 2,11,12
 691 143 691 143 705.5 127 c 128,-1,13
 720 111 720 111 740 111 c 2,14,-1
 800 111 l 1,15,-1
 800 8 l 1,16,17
 785 -1 785 -1 759.5 -7.5 c 128,-1,18
 734 -14 734 -14 701 -14 c 0,19,20
 644 -14 644 -14 604 17.5 c 128,-1,21
 564 49 564 49 552 102 c 1,22,-1
 542 102 l 1,23,24
 505 43 505 43 444.5 10 c 128,-1,25
 384 -23 384 -23 310 -23 c 0,26,27
 213 -23 213 -23 136.5 35 c 128,-1,28
 60 93 60 93 60 246 c 0,29,30
 60 371 60 371 120.5 441.5 c 128,-1,31
 181 512 181 512 285.5 538.5 c 128,-1,32
 390 565 390 565 542 565 c 1,33,-1
 542 688 l 2,34,35
 542 763 542 763 509.5 802.5 c 128,-1,36
 477 842 477 842 392 842 c 0,37,38
 315 842 315 842 280 798.5 c 128,-1,39
 245 755 245 755 245 692 c 2,40,-1
 245 670 l 1,41,-1
 99 670 l 1,42,43
 97 680 97 680 97 711 c 0,44,45
 97 795 97 795 135.5 854.5 c 128,-1,46
 174 914 174 914 243 944.5 c 128,-1,47
 312 975 312 975 402 975 c 0,48,8
 545 975 545 975 618 906 c 128,-1,9
365.5 418 m 128,-1,50
 295 404 295 404 255.5 365.5 c 128,-1,51
 216 327 216 327 216 256 c 0,52,53
 216 177 216 177 247.5 144 c 128,-1,54
 279 111 279 111 345 111 c 0,55,56
 394 111 394 111 439.5 138 c 128,-1,57
 485 165 485 165 513.5 218 c 128,-1,58
 542 271 542 271 542 346 c 2,59,-1
 542 432 l 1,60,49
 436 432 436 432 365.5 418 c 128,-1,50
EndSplineSet
EndChar

StartChar: agrave
Encoding: 224 224 137
Width: 825
GlyphClass: 2
Flags: W
LayerCount: 2
Back
Fore
SplineSet
192 1303 m 1,0,-1
 194 1309 l 1,1,-1
 355 1309 l 1,2,-1
 511 1069 l 1,3,-1
 386 1069 l 1,4,-1
 192 1303 l 1,0,-1
618 906 m 128,-1,6
 691 837 691 837 691 709 c 2,7,-1
 691 174 l 2,8,9
 691 143 691 143 705.5 127 c 128,-1,10
 720 111 720 111 740 111 c 2,11,-1
 800 111 l 1,12,-1
 800 8 l 1,13,14
 785 -1 785 -1 759.5 -7.5 c 128,-1,15
 734 -14 734 -14 701 -14 c 0,16,17
 644 -14 644 -14 604 17.5 c 128,-1,18
 564 49 564 49 552 102 c 1,19,-1
 542 102 l 1,20,21
 505 43 505 43 444.5 10 c 128,-1,22
 384 -23 384 -23 310 -23 c 0,23,24
 213 -23 213 -23 136.5 35 c 128,-1,25
 60 93 60 93 60 246 c 0,26,27
 60 371 60 371 120.5 441.5 c 128,-1,28
 181 512 181 512 285.5 538.5 c 128,-1,29
 390 565 390 565 542 565 c 1,30,-1
 542 688 l 2,31,32
 542 763 542 763 509.5 802.5 c 128,-1,33
 477 842 477 842 392 842 c 0,34,35
 315 842 315 842 280 798.5 c 128,-1,36
 245 755 245 755 245 692 c 2,37,-1
 245 670 l 1,38,-1
 99 670 l 1,39,40
 97 680 97 680 97 711 c 0,41,42
 97 795 97 795 135.5 854.5 c 128,-1,43
 174 914 174 914 243 944.5 c 128,-1,44
 312 975 312 975 402 975 c 0,45,5
 545 975 545 975 618 906 c 128,-1,6
365.5 418 m 128,-1,47
 295 404 295 404 255.5 365.5 c 128,-1,48
 216 327 216 327 216 256 c 0,49,50
 216 177 216 177 247.5 144 c 128,-1,51
 279 111 279 111 345 111 c 0,52,53
 394 111 394 111 439.5 138 c 128,-1,54
 485 165 485 165 513.5 218 c 128,-1,55
 542 271 542 271 542 346 c 2,56,-1
 542 432 l 1,57,46
 436 432 436 432 365.5 418 c 128,-1,47
EndSplineSet
EndChar

StartChar: amacron
Encoding: 257 257 138
Width: 825
GlyphClass: 2
Flags: W
LayerCount: 2
Back
Fore
SplineSet
640 1214 m 1,0,-1
 640 1085 l 1,1,-1
 185 1085 l 1,2,-1
 185 1214 l 1,3,-1
 640 1214 l 1,0,-1
618 906 m 128,-1,5
 691 837 691 837 691 709 c 2,6,-1
 691 174 l 2,7,8
 691 143 691 143 705.5 127 c 128,-1,9
 720 111 720 111 740 111 c 2,10,-1
 800 111 l 1,11,-1
 800 8 l 1,12,13
 785 -1 785 -1 759.5 -7.5 c 128,-1,14
 734 -14 734 -14 701 -14 c 0,15,16
 644 -14 644 -14 604 17.5 c 128,-1,17
 564 49 564 49 552 102 c 1,18,-1
 542 102 l 1,19,20
 505 43 505 43 444.5 10 c 128,-1,21
 384 -23 384 -23 310 -23 c 0,22,23
 213 -23 213 -23 136.5 35 c 128,-1,24
 60 93 60 93 60 246 c 0,25,26
 60 371 60 371 120.5 441.5 c 128,-1,27
 181 512 181 512 285.5 538.5 c 128,-1,28
 390 565 390 565 542 565 c 1,29,-1
 542 688 l 2,30,31
 542 763 542 763 509.5 802.5 c 128,-1,32
 477 842 477 842 392 842 c 0,33,34
 315 842 315 842 280 798.5 c 128,-1,35
 245 755 245 755 245 692 c 2,36,-1
 245 670 l 1,37,-1
 99 670 l 1,38,39
 97 680 97 680 97 711 c 0,40,41
 97 795 97 795 135.5 854.5 c 128,-1,42
 174 914 174 914 243 944.5 c 128,-1,43
 312 975 312 975 402 975 c 0,44,4
 545 975 545 975 618 906 c 128,-1,5
365.5 418 m 128,-1,46
 295 404 295 404 255.5 365.5 c 128,-1,47
 216 327 216 327 216 256 c 0,48,49
 216 177 216 177 247.5 144 c 128,-1,50
 279 111 279 111 345 111 c 0,51,52
 394 111 394 111 439.5 138 c 128,-1,53
 485 165 485 165 513.5 218 c 128,-1,54
 542 271 542 271 542 346 c 2,55,-1
 542 432 l 1,56,45
 436 432 436 432 365.5 418 c 128,-1,46
EndSplineSet
EndChar

StartChar: aogonek
Encoding: 261 261 139
Width: 825
GlyphClass: 2
Flags: W
LayerCount: 2
Back
Fore
SplineSet
831.5 -323.5 m 128,-1,1
 806 -330 806 -330 781 -330 c 0,2,3
 713 -330 713 -330 662 -291 c 128,-1,4
 611 -252 611 -252 611 -166 c 0,5,6
 611 -117 611 -117 625 -81 c 128,-1,7
 639 -45 639 -45 665 -10 c 1,8,9
 622 -1 622 -1 592.5 28.5 c 128,-1,10
 563 58 563 58 552 102 c 1,11,-1
 542 102 l 1,12,13
 505 43 505 43 444.5 10 c 128,-1,14
 384 -23 384 -23 310 -23 c 0,15,16
 213 -23 213 -23 136.5 35 c 128,-1,17
 60 93 60 93 60 246 c 0,18,19
 60 371 60 371 120.5 441.5 c 128,-1,20
 181 512 181 512 285.5 538.5 c 128,-1,21
 390 565 390 565 542 565 c 1,22,-1
 542 688 l 2,23,24
 542 763 542 763 509.5 802.5 c 128,-1,25
 477 842 477 842 392 842 c 0,26,27
 315 842 315 842 280 798.5 c 128,-1,28
 245 755 245 755 245 692 c 2,29,-1
 245 670 l 1,30,-1
 99 670 l 1,31,32
 97 680 97 680 97 711 c 0,33,34
 97 795 97 795 135.5 854.5 c 128,-1,35
 174 914 174 914 243 944.5 c 128,-1,36
 312 975 312 975 402 975 c 0,37,38
 545 975 545 975 618 906 c 128,-1,39
 691 837 691 837 691 709 c 2,40,-1
 691 174 l 2,41,42
 691 143 691 143 705.5 127 c 128,-1,43
 720 111 720 111 740 111 c 2,44,-1
 800 111 l 1,45,-1
 800 8 l 1,46,47
 780 -16 780 -16 766.5 -48 c 128,-1,48
 753 -80 753 -80 753 -113 c 0,49,50
 753 -156 753 -156 772.5 -183.5 c 128,-1,51
 792 -211 792 -211 835 -211 c 2,52,-1
 892 -211 l 1,53,-1
 892 -305 l 1,54,0
 857 -317 857 -317 831.5 -323.5 c 128,-1,1
365.5 418 m 128,-1,56
 295 404 295 404 255.5 365.5 c 128,-1,57
 216 327 216 327 216 256 c 0,58,59
 216 177 216 177 247.5 144 c 128,-1,60
 279 111 279 111 345 111 c 0,61,62
 394 111 394 111 439.5 138 c 128,-1,63
 485 165 485 165 513.5 218 c 128,-1,64
 542 271 542 271 542 346 c 2,65,-1
 542 432 l 1,66,55
 436 432 436 432 365.5 418 c 128,-1,56
EndSplineSet
EndChar

StartChar: aring
Encoding: 229 229 140
Width: 825
GlyphClass: 2
Flags: W
LayerCount: 2
Back
Fore
SplineSet
499.5 1342.5 m 128,-1,1
 539 1319 539 1319 562 1279 c 128,-1,2
 585 1239 585 1239 585 1194 c 0,3,4
 585 1146 585 1146 561.5 1105.5 c 128,-1,5
 538 1065 538 1065 498.5 1041.5 c 128,-1,6
 459 1018 459 1018 413 1018 c 0,7,8
 366 1018 366 1018 326 1041 c 128,-1,9
 286 1064 286 1064 262.5 1104.5 c 128,-1,10
 239 1145 239 1145 239 1194 c 0,11,12
 239 1240 239 1240 262.5 1279.5 c 128,-1,13
 286 1319 286 1319 325.5 1342.5 c 128,-1,14
 365 1366 365 1366 413 1366 c 0,15,0
 460 1366 460 1366 499.5 1342.5 c 128,-1,1
346 1257.5 m 128,-1,17
 318 1231 318 1231 318 1194 c 0,18,19
 318 1156 318 1156 346 1128 c 128,-1,20
 374 1100 374 1100 413 1100 c 0,21,22
 449 1100 449 1100 477 1128 c 128,-1,23
 505 1156 505 1156 505 1194 c 0,24,25
 505 1230 505 1230 477 1257 c 128,-1,26
 449 1284 449 1284 413 1284 c 0,27,16
 374 1284 374 1284 346 1257.5 c 128,-1,17
618 906 m 128,-1,29
 691 837 691 837 691 709 c 2,30,-1
 691 174 l 2,31,32
 691 143 691 143 705.5 127 c 128,-1,33
 720 111 720 111 740 111 c 2,34,-1
 800 111 l 1,35,-1
 800 8 l 1,36,37
 785 -1 785 -1 759.5 -7.5 c 128,-1,38
 734 -14 734 -14 701 -14 c 0,39,40
 644 -14 644 -14 604 17.5 c 128,-1,41
 564 49 564 49 552 102 c 1,42,-1
 542 102 l 1,43,44
 505 43 505 43 444.5 10 c 128,-1,45
 384 -23 384 -23 310 -23 c 0,46,47
 213 -23 213 -23 136.5 35 c 128,-1,48
 60 93 60 93 60 246 c 0,49,50
 60 371 60 371 120.5 441.5 c 128,-1,51
 181 512 181 512 285.5 538.5 c 128,-1,52
 390 565 390 565 542 565 c 1,53,-1
 542 688 l 2,54,55
 542 763 542 763 509.5 802.5 c 128,-1,56
 477 842 477 842 392 842 c 0,57,58
 315 842 315 842 280 798.5 c 128,-1,59
 245 755 245 755 245 692 c 2,60,-1
 245 670 l 1,61,-1
 99 670 l 1,62,63
 97 680 97 680 97 711 c 0,64,65
 97 795 97 795 135.5 854.5 c 128,-1,66
 174 914 174 914 243 944.5 c 128,-1,67
 312 975 312 975 402 975 c 0,68,28
 545 975 545 975 618 906 c 128,-1,29
365.5 418 m 128,-1,70
 295 404 295 404 255.5 365.5 c 128,-1,71
 216 327 216 327 216 256 c 0,72,73
 216 177 216 177 247.5 144 c 128,-1,74
 279 111 279 111 345 111 c 0,75,76
 394 111 394 111 439.5 138 c 128,-1,77
 485 165 485 165 513.5 218 c 128,-1,78
 542 271 542 271 542 346 c 2,79,-1
 542 432 l 1,80,69
 436 432 436 432 365.5 418 c 128,-1,70
EndSplineSet
EndChar

StartChar: aringacute
Encoding: 507 507 141
Width: 825
GlyphClass: 2
Flags: W
LayerCount: 2
Back
Fore
SplineSet
353 1391 m 1,0,-1
 491 1599 l 1,1,-1
 652 1599 l 1,2,-1
 654 1593 l 1,3,-1
 478 1391 l 1,4,-1
 353 1391 l 1,0,-1
500.5 1328 m 128,-1,6
 540 1306 540 1306 562.5 1268.5 c 128,-1,7
 585 1231 585 1231 585 1186 c 256,8,9
 585 1141 585 1141 562 1103.5 c 128,-1,10
 539 1066 539 1066 499.5 1044 c 128,-1,11
 460 1022 460 1022 413 1022 c 256,12,13
 366 1022 366 1022 326 1043.5 c 128,-1,14
 286 1065 286 1065 262.5 1102.5 c 128,-1,15
 239 1140 239 1140 239 1186 c 0,16,17
 239 1231 239 1231 262 1268.5 c 128,-1,18
 285 1306 285 1306 325 1328 c 128,-1,19
 365 1350 365 1350 413 1350 c 256,20,5
 461 1350 461 1350 500.5 1328 c 128,-1,6
346.5 1246 m 128,-1,22
 318 1222 318 1222 318 1186 c 256,23,24
 318 1150 318 1150 346.5 1125 c 128,-1,25
 375 1100 375 1100 413 1100 c 0,26,27
 449 1100 449 1100 477 1125 c 128,-1,28
 505 1150 505 1150 505 1186 c 256,29,30
 505 1222 505 1222 477 1246 c 128,-1,31
 449 1270 449 1270 413 1270 c 0,32,21
 375 1270 375 1270 346.5 1246 c 128,-1,22
618 906 m 128,-1,34
 691 837 691 837 691 709 c 2,35,-1
 691 174 l 2,36,37
 691 143 691 143 705.5 127 c 128,-1,38
 720 111 720 111 740 111 c 2,39,-1
 800 111 l 1,40,-1
 800 8 l 1,41,42
 785 -1 785 -1 759.5 -7.5 c 128,-1,43
 734 -14 734 -14 701 -14 c 0,44,45
 644 -14 644 -14 604 17.5 c 128,-1,46
 564 49 564 49 552 102 c 1,47,-1
 542 102 l 1,48,49
 505 43 505 43 444.5 10 c 128,-1,50
 384 -23 384 -23 310 -23 c 0,51,52
 213 -23 213 -23 136.5 35 c 128,-1,53
 60 93 60 93 60 246 c 0,54,55
 60 371 60 371 120.5 441.5 c 128,-1,56
 181 512 181 512 285.5 538.5 c 128,-1,57
 390 565 390 565 542 565 c 1,58,-1
 542 688 l 2,59,60
 542 763 542 763 509.5 802.5 c 128,-1,61
 477 842 477 842 392 842 c 0,62,63
 315 842 315 842 280 798.5 c 128,-1,64
 245 755 245 755 245 692 c 2,65,-1
 245 670 l 1,66,-1
 99 670 l 1,67,68
 97 680 97 680 97 711 c 0,69,70
 97 795 97 795 135.5 854.5 c 128,-1,71
 174 914 174 914 243 944.5 c 128,-1,72
 312 975 312 975 402 975 c 0,73,33
 545 975 545 975 618 906 c 128,-1,34
365.5 418 m 128,-1,75
 295 404 295 404 255.5 365.5 c 128,-1,76
 216 327 216 327 216 256 c 0,77,78
 216 177 216 177 247.5 144 c 128,-1,79
 279 111 279 111 345 111 c 0,80,81
 394 111 394 111 439.5 138 c 128,-1,82
 485 165 485 165 513.5 218 c 128,-1,83
 542 271 542 271 542 346 c 2,84,-1
 542 432 l 1,85,74
 436 432 436 432 365.5 418 c 128,-1,75
EndSplineSet
EndChar

StartChar: atilde
Encoding: 227 227 142
Width: 825
GlyphClass: 2
Flags: W
LayerCount: 2
Back
Fore
SplineSet
660.5 1220.5 m 128,-1,1
 644 1177 644 1177 608.5 1148.5 c 128,-1,2
 573 1120 573 1120 521 1120 c 0,3,4
 494 1120 494 1120 469.5 1127.5 c 128,-1,5
 445 1135 445 1135 412 1150 c 0,6,7
 380 1164 380 1164 358.5 1171 c 128,-1,8
 337 1178 337 1178 314 1178 c 0,9,10
 258 1178 258 1178 253 1120 c 1,11,-1
 146 1120 l 1,12,13
 146 1165 146 1165 163.5 1208.5 c 128,-1,14
 181 1252 181 1252 216 1280.5 c 128,-1,15
 251 1309 251 1309 302 1309 c 0,16,17
 328 1309 328 1309 351.5 1302 c 128,-1,18
 375 1295 375 1295 411 1280 c 0,19,20
 441 1267 441 1267 463.5 1260 c 128,-1,21
 486 1253 486 1253 509 1253 c 0,22,23
 565 1253 565 1253 570 1309 c 1,24,-1
 677 1309 l 1,25,0
 677 1264 677 1264 660.5 1220.5 c 128,-1,1
618 906 m 128,-1,27
 691 837 691 837 691 709 c 2,28,-1
 691 174 l 2,29,30
 691 143 691 143 705.5 127 c 128,-1,31
 720 111 720 111 740 111 c 2,32,-1
 800 111 l 1,33,-1
 800 8 l 1,34,35
 785 -1 785 -1 759.5 -7.5 c 128,-1,36
 734 -14 734 -14 701 -14 c 0,37,38
 644 -14 644 -14 604 17.5 c 128,-1,39
 564 49 564 49 552 102 c 1,40,-1
 542 102 l 1,41,42
 505 43 505 43 444.5 10 c 128,-1,43
 384 -23 384 -23 310 -23 c 0,44,45
 213 -23 213 -23 136.5 35 c 128,-1,46
 60 93 60 93 60 246 c 0,47,48
 60 371 60 371 120.5 441.5 c 128,-1,49
 181 512 181 512 285.5 538.5 c 128,-1,50
 390 565 390 565 542 565 c 1,51,-1
 542 688 l 2,52,53
 542 763 542 763 509.5 802.5 c 128,-1,54
 477 842 477 842 392 842 c 0,55,56
 315 842 315 842 280 798.5 c 128,-1,57
 245 755 245 755 245 692 c 2,58,-1
 245 670 l 1,59,-1
 99 670 l 1,60,61
 97 680 97 680 97 711 c 0,62,63
 97 795 97 795 135.5 854.5 c 128,-1,64
 174 914 174 914 243 944.5 c 128,-1,65
 312 975 312 975 402 975 c 0,66,26
 545 975 545 975 618 906 c 128,-1,27
365.5 418 m 128,-1,68
 295 404 295 404 255.5 365.5 c 128,-1,69
 216 327 216 327 216 256 c 0,70,71
 216 177 216 177 247.5 144 c 128,-1,72
 279 111 279 111 345 111 c 0,73,74
 394 111 394 111 439.5 138 c 128,-1,75
 485 165 485 165 513.5 218 c 128,-1,76
 542 271 542 271 542 346 c 2,77,-1
 542 432 l 1,78,67
 436 432 436 432 365.5 418 c 128,-1,68
EndSplineSet
EndChar

StartChar: ae
Encoding: 230 230 143
Width: 1319
GlyphClass: 2
Flags: W
AnchorPoint: "Anchor-1" 0 0 basechar 0
AnchorPoint: "Anchor-0" 662 952 basechar 0
LayerCount: 2
Back
Fore
SplineSet
1147 868.5 m 128,-1,1
 1224 762 1224 762 1224 526 c 2,2,-1
 1224 432 l 1,3,-1
 710 432 l 1,4,5
 710 266 710 266 760 188.5 c 128,-1,6
 810 111 810 111 917 111 c 0,7,8
 964 111 964 111 1000.5 137 c 128,-1,9
 1037 163 1037 163 1057.5 211.5 c 128,-1,10
 1078 260 1078 260 1078 324 c 1,11,-1
 1224 324 l 1,12,13
 1224 219 1224 219 1185 140.5 c 128,-1,14
 1146 62 1146 62 1075.5 19.5 c 128,-1,15
 1005 -23 1005 -23 912 -23 c 0,16,17
 710 -23 710 -23 624 123 c 1,18,19
 571 55 571 55 500.5 16 c 128,-1,20
 430 -23 430 -23 349 -23 c 0,21,22
 234 -23 234 -23 152.5 34.5 c 128,-1,23
 71 92 71 92 71 246 c 0,24,25
 71 371 71 371 131 441.5 c 128,-1,26
 191 512 191 512 296 538.5 c 128,-1,27
 401 565 401 565 554 565 c 1,28,-1
 554 688 l 2,29,30
 554 762 554 762 520.5 802 c 128,-1,31
 487 842 487 842 402 842 c 0,32,33
 325 842 325 842 291 798.5 c 128,-1,34
 257 755 257 755 257 692 c 2,35,-1
 257 670 l 1,36,-1
 110 670 l 1,37,38
 108 680 108 680 108 711 c 0,39,40
 108 795 108 795 146.5 854.5 c 128,-1,41
 185 914 185 914 254 944.5 c 128,-1,42
 323 975 323 975 413 975 c 0,43,44
 499 975 499 975 561.5 947 c 128,-1,45
 624 919 624 919 658 866 c 1,46,47
 746 975 746 975 912 975 c 0,48,0
 1070 975 1070 975 1147 868.5 c 128,-1,1
768 774 m 128,-1,50
 721 706 721 706 710 565 c 1,51,-1
 1068 565 l 1,52,53
 1068 701 1068 701 1028.5 771.5 c 128,-1,54
 989 842 989 842 912 842 c 0,55,49
 815 842 815 842 768 774 c 128,-1,50
376.5 418 m 128,-1,57
 306 404 306 404 266 365.5 c 128,-1,58
 226 327 226 327 226 256 c 0,59,60
 226 177 226 177 257.5 144 c 128,-1,61
 289 111 289 111 355 111 c 0,62,63
 405 111 405 111 450.5 136 c 128,-1,64
 496 161 496 161 525 211 c 128,-1,65
 554 261 554 261 554 332 c 2,66,-1
 554 432 l 1,67,56
 447 432 447 432 376.5 418 c 128,-1,57
EndSplineSet
EndChar

StartChar: aeacute
Encoding: 509 509 144
Width: 1319
GlyphClass: 2
Flags: W
LayerCount: 2
Back
Fore
SplineSet
552 1069 m 1,0,-1
 708 1309 l 1,1,-1
 869 1309 l 1,2,-1
 871 1303 l 1,3,-1
 677 1069 l 1,4,-1
 552 1069 l 1,0,-1
1147 868.5 m 128,-1,6
 1224 762 1224 762 1224 526 c 2,7,-1
 1224 432 l 1,8,-1
 710 432 l 1,9,10
 710 266 710 266 760 188.5 c 128,-1,11
 810 111 810 111 917 111 c 0,12,13
 964 111 964 111 1000.5 137 c 128,-1,14
 1037 163 1037 163 1057.5 211.5 c 128,-1,15
 1078 260 1078 260 1078 324 c 1,16,-1
 1224 324 l 1,17,18
 1224 219 1224 219 1185 140.5 c 128,-1,19
 1146 62 1146 62 1075.5 19.5 c 128,-1,20
 1005 -23 1005 -23 912 -23 c 0,21,22
 710 -23 710 -23 624 123 c 1,23,24
 571 55 571 55 500.5 16 c 128,-1,25
 430 -23 430 -23 349 -23 c 0,26,27
 234 -23 234 -23 152.5 34.5 c 128,-1,28
 71 92 71 92 71 246 c 0,29,30
 71 371 71 371 131 441.5 c 128,-1,31
 191 512 191 512 296 538.5 c 128,-1,32
 401 565 401 565 554 565 c 1,33,-1
 554 688 l 2,34,35
 554 762 554 762 520.5 802 c 128,-1,36
 487 842 487 842 402 842 c 0,37,38
 325 842 325 842 291 798.5 c 128,-1,39
 257 755 257 755 257 692 c 2,40,-1
 257 670 l 1,41,-1
 110 670 l 1,42,43
 108 680 108 680 108 711 c 0,44,45
 108 795 108 795 146.5 854.5 c 128,-1,46
 185 914 185 914 254 944.5 c 128,-1,47
 323 975 323 975 413 975 c 0,48,49
 499 975 499 975 561.5 947 c 128,-1,50
 624 919 624 919 658 866 c 1,51,52
 746 975 746 975 912 975 c 0,53,5
 1070 975 1070 975 1147 868.5 c 128,-1,6
768 774 m 128,-1,55
 721 706 721 706 710 565 c 1,56,-1
 1068 565 l 1,57,58
 1068 701 1068 701 1028.5 771.5 c 128,-1,59
 989 842 989 842 912 842 c 0,60,54
 815 842 815 842 768 774 c 128,-1,55
376.5 418 m 128,-1,62
 306 404 306 404 266 365.5 c 128,-1,63
 226 327 226 327 226 256 c 0,64,65
 226 177 226 177 257.5 144 c 128,-1,66
 289 111 289 111 355 111 c 0,67,68
 405 111 405 111 450.5 136 c 128,-1,69
 496 161 496 161 525 211 c 128,-1,70
 554 261 554 261 554 332 c 2,71,-1
 554 432 l 1,72,61
 447 432 447 432 376.5 418 c 128,-1,62
EndSplineSet
EndChar

StartChar: b
Encoding: 98 98 145
Width: 825
GlyphClass: 2
Flags: W
LayerCount: 2
Back
Fore
SplineSet
344.5 944.5 m 128,-1,1
 399 975 399 975 468 975 c 0,2,3
 550 975 550 975 614 921 c 128,-1,4
 678 867 678 867 715.5 755.5 c 128,-1,5
 753 644 753 644 753 477 c 0,6,7
 753 224 753 224 675.5 100.5 c 128,-1,8
 598 -23 598 -23 458 -23 c 0,9,10
 391 -23 391 -23 336.5 11.5 c 128,-1,11
 282 46 282 46 249 111 c 1,12,-1
 241 111 l 1,13,-1
 220 0 l 1,14,-1
 108 0 l 1,15,-1
 108 1309 l 1,16,-1
 257 1309 l 1,17,-1
 257 862 l 1,18,-1
 265 862 l 1,19,0
 290 914 290 914 344.5 944.5 c 128,-1,1
257 504 m 2,21,-1
 257 442 l 2,22,23
 257 111 257 111 427 111 c 0,24,25
 513 111 513 111 555 189 c 128,-1,26
 597 267 597 267 597 442 c 2,27,-1
 597 510 l 2,28,29
 597 685 597 685 555 763.5 c 128,-1,30
 513 842 513 842 427 842 c 0,31,20
 257 842 257 842 257 504 c 2,21,-1
EndSplineSet
EndChar

StartChar: c
Encoding: 99 99 146
Width: 741
GlyphClass: 2
Flags: W
AnchorPoint: "Anchor-1" 371 0 basechar 0
AnchorPoint: "Anchor-0" 371 952 basechar 0
LayerCount: 2
Back
Fore
SplineSet
611.5 880.5 m 128,-1,1
 681 786 681 786 681 600 c 1,2,-1
 527 600 l 1,3,4
 527 686 527 686 514.5 738 c 128,-1,5
 502 790 502 790 472.5 816 c 128,-1,6
 443 842 443 842 390 842 c 0,7,8
 302 842 302 842 261 759.5 c 128,-1,9
 220 677 220 677 220 510 c 2,10,-1
 220 442 l 2,11,12
 220 275 220 275 261 193 c 128,-1,13
 302 111 302 111 390 111 c 0,14,15
 468 111 468 111 502 170.5 c 128,-1,16
 536 230 536 230 536 352 c 1,17,-1
 681 352 l 1,18,19
 681 248 681 248 650.5 163.5 c 128,-1,20
 620 79 620 79 555 28 c 128,-1,21
 490 -23 490 -23 390 -23 c 0,22,23
 222 -23 222 -23 143.5 97.5 c 128,-1,24
 65 218 65 218 65 475 c 0,25,26
 65 733 65 733 144 854 c 128,-1,27
 223 975 223 975 390 975 c 0,28,0
 542 975 542 975 611.5 880.5 c 128,-1,1
EndSplineSet
EndChar

StartChar: cacute
Encoding: 263 263 147
Width: 741
GlyphClass: 2
Flags: W
LayerCount: 2
Back
Fore
SplineSet
280 1069 m 1,0,-1
 435 1309 l 1,1,-1
 599 1309 l 1,2,-1
 599 1303 l 1,3,-1
 407 1069 l 1,4,-1
 280 1069 l 1,0,-1
611.5 880.5 m 128,-1,6
 681 786 681 786 681 600 c 1,7,-1
 527 600 l 1,8,9
 527 686 527 686 514.5 738 c 128,-1,10
 502 790 502 790 472.5 816 c 128,-1,11
 443 842 443 842 390 842 c 0,12,13
 302 842 302 842 261 759.5 c 128,-1,14
 220 677 220 677 220 510 c 2,15,-1
 220 442 l 2,16,17
 220 275 220 275 261 193 c 128,-1,18
 302 111 302 111 390 111 c 0,19,20
 468 111 468 111 502 170.5 c 128,-1,21
 536 230 536 230 536 352 c 1,22,-1
 681 352 l 1,23,24
 681 248 681 248 650.5 163.5 c 128,-1,25
 620 79 620 79 555 28 c 128,-1,26
 490 -23 490 -23 390 -23 c 0,27,28
 222 -23 222 -23 143.5 97.5 c 128,-1,29
 65 218 65 218 65 475 c 0,30,31
 65 733 65 733 144 854 c 128,-1,32
 223 975 223 975 390 975 c 0,33,5
 542 975 542 975 611.5 880.5 c 128,-1,6
EndSplineSet
EndChar

StartChar: ccaron
Encoding: 269 269 148
Width: 741
GlyphClass: 2
Flags: W
LayerCount: 2
Back
Fore
SplineSet
290 1309 m 1,0,-1
 370 1165 l 1,1,-1
 452 1309 l 1,2,-1
 597 1309 l 1,3,-1
 441 1065 l 1,4,-1
 300 1065 l 1,5,-1
 146 1309 l 1,6,-1
 290 1309 l 1,0,-1
611.5 880.5 m 128,-1,8
 681 786 681 786 681 600 c 1,9,-1
 527 600 l 1,10,11
 527 686 527 686 514.5 738 c 128,-1,12
 502 790 502 790 472.5 816 c 128,-1,13
 443 842 443 842 390 842 c 0,14,15
 302 842 302 842 261 759.5 c 128,-1,16
 220 677 220 677 220 510 c 2,17,-1
 220 442 l 2,18,19
 220 275 220 275 261 193 c 128,-1,20
 302 111 302 111 390 111 c 0,21,22
 468 111 468 111 502 170.5 c 128,-1,23
 536 230 536 230 536 352 c 1,24,-1
 681 352 l 1,25,26
 681 248 681 248 650.5 163.5 c 128,-1,27
 620 79 620 79 555 28 c 128,-1,28
 490 -23 490 -23 390 -23 c 0,29,30
 222 -23 222 -23 143.5 97.5 c 128,-1,31
 65 218 65 218 65 475 c 0,32,33
 65 733 65 733 144 854 c 128,-1,34
 223 975 223 975 390 975 c 0,35,7
 542 975 542 975 611.5 880.5 c 128,-1,8
EndSplineSet
EndChar

StartChar: ccedilla
Encoding: 231 231 149
Width: 741
GlyphClass: 2
Flags: W
LayerCount: 2
Back
Fore
SplineSet
611.5 880.5 m 128,-1,1
 681 786 681 786 681 600 c 1,2,-1
 527 600 l 1,3,4
 527 686 527 686 514.5 738 c 128,-1,5
 502 790 502 790 472.5 816 c 128,-1,6
 443 842 443 842 390 842 c 0,7,8
 302 842 302 842 261 759.5 c 128,-1,9
 220 677 220 677 220 510 c 2,10,-1
 220 442 l 2,11,12
 220 275 220 275 261 193 c 128,-1,13
 302 111 302 111 390 111 c 0,14,15
 468 111 468 111 502 170.5 c 128,-1,16
 536 230 536 230 536 352 c 1,17,-1
 681 352 l 1,18,19
 681 250 681 250 651.5 166.5 c 128,-1,20
 622 83 622 83 558.5 31.5 c 128,-1,21
 495 -20 495 -20 398 -23 c 1,22,-1
 394 -66 l 1,23,24
 459 -69 459 -69 499.5 -97 c 128,-1,25
 540 -125 540 -125 540 -182 c 0,26,27
 540 -264 540 -264 482.5 -297 c 128,-1,28
 425 -330 425 -330 351 -330 c 0,29,30
 272 -330 272 -330 200 -315 c 1,31,-1
 200 -227 l 1,32,-1
 337 -227 l 2,33,34
 370 -227 370 -227 386 -217 c 128,-1,35
 402 -207 402 -207 402 -182 c 0,36,37
 402 -160 402 -160 388.5 -149.5 c 128,-1,38
 375 -139 375 -139 341 -139 c 2,39,-1
 282 -139 l 1,40,-1
 302 -10 l 1,41,42
 180 18 180 18 122.5 136 c 128,-1,43
 65 254 65 254 65 475 c 0,44,45
 65 733 65 733 144 854 c 128,-1,46
 223 975 223 975 390 975 c 0,47,0
 542 975 542 975 611.5 880.5 c 128,-1,1
EndSplineSet
EndChar

StartChar: ccircumflex
Encoding: 265 265 150
Width: 741
GlyphClass: 2
Flags: W
LayerCount: 2
Back
Fore
SplineSet
290 1063 m 1,0,-1
 146 1063 l 1,1,-1
 302 1307 l 1,2,-1
 443 1307 l 1,3,-1
 597 1063 l 1,4,-1
 452 1063 l 1,5,-1
 372 1206 l 1,6,-1
 290 1063 l 1,0,-1
611.5 880.5 m 128,-1,8
 681 786 681 786 681 600 c 1,9,-1
 527 600 l 1,10,11
 527 686 527 686 514.5 738 c 128,-1,12
 502 790 502 790 472.5 816 c 128,-1,13
 443 842 443 842 390 842 c 0,14,15
 302 842 302 842 261 759.5 c 128,-1,16
 220 677 220 677 220 510 c 2,17,-1
 220 442 l 2,18,19
 220 275 220 275 261 193 c 128,-1,20
 302 111 302 111 390 111 c 0,21,22
 468 111 468 111 502 170.5 c 128,-1,23
 536 230 536 230 536 352 c 1,24,-1
 681 352 l 1,25,26
 681 248 681 248 650.5 163.5 c 128,-1,27
 620 79 620 79 555 28 c 128,-1,28
 490 -23 490 -23 390 -23 c 0,29,30
 222 -23 222 -23 143.5 97.5 c 128,-1,31
 65 218 65 218 65 475 c 0,32,33
 65 733 65 733 144 854 c 128,-1,34
 223 975 223 975 390 975 c 0,35,7
 542 975 542 975 611.5 880.5 c 128,-1,8
EndSplineSet
EndChar

StartChar: cdotaccent
Encoding: 267 267 151
Width: 741
GlyphClass: 2
Flags: W
LayerCount: 2
Back
Fore
SplineSet
450 1309 m 1,0,-1
 450 1137 l 1,1,-1
 292 1137 l 1,2,-1
 292 1309 l 1,3,-1
 450 1309 l 1,0,-1
611.5 880.5 m 128,-1,5
 681 786 681 786 681 600 c 1,6,-1
 527 600 l 1,7,8
 527 686 527 686 514.5 738 c 128,-1,9
 502 790 502 790 472.5 816 c 128,-1,10
 443 842 443 842 390 842 c 0,11,12
 302 842 302 842 261 759.5 c 128,-1,13
 220 677 220 677 220 510 c 2,14,-1
 220 442 l 2,15,16
 220 275 220 275 261 193 c 128,-1,17
 302 111 302 111 390 111 c 0,18,19
 468 111 468 111 502 170.5 c 128,-1,20
 536 230 536 230 536 352 c 1,21,-1
 681 352 l 1,22,23
 681 248 681 248 650.5 163.5 c 128,-1,24
 620 79 620 79 555 28 c 128,-1,25
 490 -23 490 -23 390 -23 c 0,26,27
 222 -23 222 -23 143.5 97.5 c 128,-1,28
 65 218 65 218 65 475 c 0,29,30
 65 733 65 733 144 854 c 128,-1,31
 223 975 223 975 390 975 c 0,32,4
 542 975 542 975 611.5 880.5 c 128,-1,5
EndSplineSet
EndChar

StartChar: d
Encoding: 100 100 152
Width: 825
GlyphClass: 2
Flags: W
LayerCount: 2
Back
Fore
SplineSet
574 111 m 1,0,1
 541 46 541 46 487 11.5 c 128,-1,2
 433 -23 433 -23 366 -23 c 0,3,4
 226 -23 226 -23 148.5 100 c 128,-1,5
 71 223 71 223 71 477 c 0,6,7
 71 644 71 644 108.5 755.5 c 128,-1,8
 146 867 146 867 210 921 c 128,-1,9
 274 975 274 975 355 975 c 0,10,11
 425 975 425 975 479 945 c 128,-1,12
 533 915 533 915 558 862 c 1,13,-1
 568 862 l 1,14,-1
 568 1309 l 1,15,-1
 716 1309 l 1,16,-1
 716 0 l 1,17,-1
 603 0 l 1,18,-1
 585 111 l 1,19,-1
 574 111 l 1,0,1
268 763.5 m 128,-1,21
 226 685 226 685 226 510 c 2,22,-1
 226 442 l 2,23,24
 226 268 226 268 268 189.5 c 128,-1,25
 310 111 310 111 396 111 c 0,26,27
 568 111 568 111 568 442 c 2,28,-1
 568 504 l 2,29,30
 568 842 568 842 396 842 c 0,31,20
 310 842 310 842 268 763.5 c 128,-1,21
EndSplineSet
EndChar

StartChar: eth
Encoding: 240 240 153
Width: 825
GlyphClass: 2
Flags: W
LayerCount: 2
Back
Fore
SplineSet
697 821.5 m 128,-1,1
 753 664 753 664 753 475 c 0,2,3
 753 222 753 222 667 99.5 c 128,-1,4
 581 -23 581 -23 413 -23 c 0,5,6
 243 -23 243 -23 157 99 c 128,-1,7
 71 221 71 221 71 475 c 0,8,9
 71 646 71 646 111.5 757.5 c 128,-1,10
 152 869 152 869 224 922 c 128,-1,11
 296 975 296 975 392 975 c 0,12,13
 432 975 432 975 482 952 c 1,14,15
 449 1014 449 1014 382 1104 c 1,16,-1
 167 1085 l 1,17,-1
 167 1194 l 1,18,-1
 296 1206 l 1,19,-1
 280 1224 l 2,20,21
 247 1263 247 1263 210 1303 c 1,22,-1
 214 1309 l 1,23,-1
 374 1309 l 2,24,25
 375 1308 375 1308 415 1265 c 256,26,27
 455 1222 455 1222 456 1221 c 2,28,-1
 667 1241 l 1,29,-1
 667 1130 l 1,30,-1
 538 1118 l 1,31,0
 641 979 641 979 697 821.5 c 128,-1,1
550.5 758 m 128,-1,33
 504 842 504 842 413 842 c 0,34,35
 226 842 226 842 226 510 c 2,36,-1
 226 442 l 2,37,38
 226 111 226 111 413 111 c 0,39,40
 597 111 597 111 597 442 c 2,41,-1
 597 510 l 2,42,32
 597 674 597 674 550.5 758 c 128,-1,33
EndSplineSet
EndChar

StartChar: dcaron
Encoding: 271 271 154
Width: 913
GlyphClass: 2
Flags: W
LayerCount: 2
Back
Fore
SplineSet
574 111 m 1,0,1
 541 46 541 46 487 11.5 c 128,-1,2
 433 -23 433 -23 366 -23 c 0,3,4
 226 -23 226 -23 148.5 100 c 128,-1,5
 71 223 71 223 71 477 c 0,6,7
 71 644 71 644 108.5 755.5 c 128,-1,8
 146 867 146 867 210 921 c 128,-1,9
 274 975 274 975 355 975 c 0,10,11
 425 975 425 975 479 945 c 128,-1,12
 533 915 533 915 558 862 c 1,13,-1
 568 862 l 1,14,-1
 568 1309 l 1,15,-1
 716 1309 l 1,16,-1
 716 0 l 1,17,-1
 603 0 l 1,18,-1
 585 111 l 1,19,-1
 574 111 l 1,0,1
861 1047 m 1,20,-1
 787 1047 l 1,21,-1
 787 1241 l 1,22,-1
 970 1241 l 1,23,-1
 970 1063 l 1,24,-1
 882 821 l 1,25,-1
 787 821 l 1,26,-1
 861 1047 l 1,20,-1
268 763.5 m 128,-1,28
 226 685 226 685 226 510 c 2,29,-1
 226 442 l 2,30,31
 226 268 226 268 268 189.5 c 128,-1,32
 310 111 310 111 396 111 c 0,33,34
 568 111 568 111 568 442 c 2,35,-1
 568 504 l 2,36,37
 568 842 568 842 396 842 c 0,38,27
 310 842 310 842 268 763.5 c 128,-1,28
EndSplineSet
EndChar

StartChar: dcroat
Encoding: 273 273 155
Width: 819
GlyphClass: 2
Flags: W
LayerCount: 2
Back
Fore
SplineSet
820 1055 m 1,0,-1
 716 1055 l 1,1,-1
 716 0 l 1,2,-1
 603 0 l 1,3,-1
 585 111 l 1,4,-1
 574 111 l 1,5,6
 541 46 541 46 487 11.5 c 128,-1,7
 433 -23 433 -23 366 -23 c 0,8,9
 226 -23 226 -23 148.5 100 c 128,-1,10
 71 223 71 223 71 477 c 0,11,12
 71 644 71 644 108.5 755.5 c 128,-1,13
 146 867 146 867 210 921 c 128,-1,14
 274 975 274 975 355 975 c 0,15,16
 425 975 425 975 479 945 c 128,-1,17
 533 915 533 915 558 862 c 1,18,-1
 568 862 l 1,19,-1
 568 1055 l 1,20,-1
 366 1055 l 1,21,-1
 366 1178 l 1,22,-1
 568 1178 l 1,23,-1
 568 1309 l 1,24,-1
 716 1309 l 1,25,-1
 716 1178 l 1,26,-1
 820 1178 l 1,27,-1
 820 1055 l 1,0,-1
268 763.5 m 128,-1,29
 226 685 226 685 226 510 c 2,30,-1
 226 442 l 2,31,32
 226 268 226 268 268 189.5 c 128,-1,33
 310 111 310 111 396 111 c 0,34,35
 568 111 568 111 568 442 c 2,36,-1
 568 504 l 2,37,38
 568 842 568 842 396 842 c 0,39,28
 310 842 310 842 268 763.5 c 128,-1,29
EndSplineSet
EndChar

StartChar: e
Encoding: 101 101 156
Width: 825
GlyphClass: 2
Flags: W
AnchorPoint: "Anchor-1" 414 0 basechar 0
AnchorPoint: "Anchor-0" 414 952 basechar 0
LayerCount: 2
Back
Fore
SplineSet
670 868.5 m 128,-1,1
 747 762 747 762 747 526 c 2,2,-1
 747 432 l 1,3,-1
 230 432 l 1,4,5
 231 267 231 267 282 189 c 128,-1,6
 333 111 333 111 439 111 c 0,7,8
 511 111 511 111 555 169 c 128,-1,9
 599 227 599 227 599 324 c 1,10,-1
 747 324 l 1,11,12
 747 219 747 219 708 140.5 c 128,-1,13
 669 62 669 62 598 19.5 c 128,-1,14
 527 -23 527 -23 435 -23 c 0,15,16
 254 -23 254 -23 164.5 96.5 c 128,-1,17
 75 216 75 216 75 475 c 0,18,19
 75 731 75 731 163.5 853 c 128,-1,20
 252 975 252 975 433 975 c 0,21,0
 593 975 593 975 670 868.5 c 128,-1,1
289.5 774 m 128,-1,23
 242 706 242 706 232 565 c 1,24,-1
 591 565 l 1,25,26
 591 701 591 701 551 771.5 c 128,-1,27
 511 842 511 842 433 842 c 0,28,22
 337 842 337 842 289.5 774 c 128,-1,23
EndSplineSet
EndChar

StartChar: eacute
Encoding: 233 233 157
Width: 825
GlyphClass: 2
Flags: W
LayerCount: 2
Back
Fore
SplineSet
325 1069 m 1,0,-1
 480 1309 l 1,1,-1
 644 1309 l 1,2,-1
 646 1303 l 1,3,-1
 452 1069 l 1,4,-1
 325 1069 l 1,0,-1
670 868.5 m 128,-1,6
 747 762 747 762 747 526 c 2,7,-1
 747 432 l 1,8,-1
 230 432 l 1,9,10
 231 267 231 267 282 189 c 128,-1,11
 333 111 333 111 439 111 c 0,12,13
 511 111 511 111 555 169 c 128,-1,14
 599 227 599 227 599 324 c 1,15,-1
 747 324 l 1,16,17
 747 219 747 219 708 140.5 c 128,-1,18
 669 62 669 62 598 19.5 c 128,-1,19
 527 -23 527 -23 435 -23 c 0,20,21
 254 -23 254 -23 164.5 96.5 c 128,-1,22
 75 216 75 216 75 475 c 0,23,24
 75 731 75 731 163.5 853 c 128,-1,25
 252 975 252 975 433 975 c 0,26,5
 593 975 593 975 670 868.5 c 128,-1,6
289.5 774 m 128,-1,28
 242 706 242 706 232 565 c 1,29,-1
 591 565 l 1,30,31
 591 701 591 701 551 771.5 c 128,-1,32
 511 842 511 842 433 842 c 0,33,27
 337 842 337 842 289.5 774 c 128,-1,28
EndSplineSet
EndChar

StartChar: ebreve
Encoding: 277 277 158
Width: 825
GlyphClass: 2
Flags: W
LayerCount: 2
Back
Fore
SplineSet
608.5 1226 m 128,-1,1
 581 1185 581 1185 530 1159 c 128,-1,2
 479 1133 479 1133 413 1133 c 0,3,4
 346 1133 346 1133 294.5 1159 c 128,-1,5
 243 1185 243 1185 215 1226 c 128,-1,6
 187 1267 187 1267 187 1309 c 1,7,-1
 304 1309 l 1,8,9
 309 1287 309 1287 339 1268 c 128,-1,10
 369 1249 369 1249 413 1249 c 0,11,12
 442 1249 442 1249 466 1258.5 c 128,-1,13
 490 1268 490 1268 504.5 1282 c 128,-1,14
 519 1296 519 1296 521 1309 c 1,15,-1
 636 1309 l 1,16,0
 636 1267 636 1267 608.5 1226 c 128,-1,1
670 868.5 m 128,-1,18
 747 762 747 762 747 526 c 2,19,-1
 747 432 l 1,20,-1
 230 432 l 1,21,22
 231 267 231 267 282 189 c 128,-1,23
 333 111 333 111 439 111 c 0,24,25
 511 111 511 111 555 169 c 128,-1,26
 599 227 599 227 599 324 c 1,27,-1
 747 324 l 1,28,29
 747 219 747 219 708 140.5 c 128,-1,30
 669 62 669 62 598 19.5 c 128,-1,31
 527 -23 527 -23 435 -23 c 0,32,33
 254 -23 254 -23 164.5 96.5 c 128,-1,34
 75 216 75 216 75 475 c 0,35,36
 75 731 75 731 163.5 853 c 128,-1,37
 252 975 252 975 433 975 c 0,38,17
 593 975 593 975 670 868.5 c 128,-1,18
289.5 774 m 128,-1,40
 242 706 242 706 232 565 c 1,41,-1
 591 565 l 1,42,43
 591 701 591 701 551 771.5 c 128,-1,44
 511 842 511 842 433 842 c 0,45,39
 337 842 337 842 289.5 774 c 128,-1,40
EndSplineSet
EndChar

StartChar: ecaron
Encoding: 283 283 159
Width: 825
GlyphClass: 2
Flags: W
LayerCount: 2
Back
Fore
SplineSet
333 1309 m 1,0,-1
 413 1165 l 1,1,-1
 493 1309 l 1,2,-1
 638 1309 l 1,3,-1
 482 1065 l 1,4,-1
 339 1065 l 1,5,-1
 187 1309 l 1,6,-1
 333 1309 l 1,0,-1
670 868.5 m 128,-1,8
 747 762 747 762 747 526 c 2,9,-1
 747 432 l 1,10,-1
 230 432 l 1,11,12
 231 267 231 267 282 189 c 128,-1,13
 333 111 333 111 439 111 c 0,14,15
 511 111 511 111 555 169 c 128,-1,16
 599 227 599 227 599 324 c 1,17,-1
 747 324 l 1,18,19
 747 219 747 219 708 140.5 c 128,-1,20
 669 62 669 62 598 19.5 c 128,-1,21
 527 -23 527 -23 435 -23 c 0,22,23
 254 -23 254 -23 164.5 96.5 c 128,-1,24
 75 216 75 216 75 475 c 0,25,26
 75 731 75 731 163.5 853 c 128,-1,27
 252 975 252 975 433 975 c 0,28,7
 593 975 593 975 670 868.5 c 128,-1,8
289.5 774 m 128,-1,30
 242 706 242 706 232 565 c 1,31,-1
 591 565 l 1,32,33
 591 701 591 701 551 771.5 c 128,-1,34
 511 842 511 842 433 842 c 0,35,29
 337 842 337 842 289.5 774 c 128,-1,30
EndSplineSet
EndChar

StartChar: ecircumflex
Encoding: 234 234 160
Width: 825
GlyphClass: 2
Flags: W
LayerCount: 2
Back
Fore
SplineSet
333 1063 m 1,0,-1
 187 1063 l 1,1,-1
 341 1307 l 1,2,-1
 484 1307 l 1,3,-1
 638 1063 l 1,4,-1
 493 1063 l 1,5,-1
 413 1206 l 1,6,-1
 333 1063 l 1,0,-1
670 868.5 m 128,-1,8
 747 762 747 762 747 526 c 2,9,-1
 747 432 l 1,10,-1
 230 432 l 1,11,12
 231 267 231 267 282 189 c 128,-1,13
 333 111 333 111 439 111 c 0,14,15
 511 111 511 111 555 169 c 128,-1,16
 599 227 599 227 599 324 c 1,17,-1
 747 324 l 1,18,19
 747 219 747 219 708 140.5 c 128,-1,20
 669 62 669 62 598 19.5 c 128,-1,21
 527 -23 527 -23 435 -23 c 0,22,23
 254 -23 254 -23 164.5 96.5 c 128,-1,24
 75 216 75 216 75 475 c 0,25,26
 75 731 75 731 163.5 853 c 128,-1,27
 252 975 252 975 433 975 c 0,28,7
 593 975 593 975 670 868.5 c 128,-1,8
289.5 774 m 128,-1,30
 242 706 242 706 232 565 c 1,31,-1
 591 565 l 1,32,33
 591 701 591 701 551 771.5 c 128,-1,34
 511 842 511 842 433 842 c 0,35,29
 337 842 337 842 289.5 774 c 128,-1,30
EndSplineSet
EndChar

StartChar: edieresis
Encoding: 235 235 161
Width: 825
GlyphClass: 2
Flags: W
LayerCount: 2
Back
Fore
SplineSet
196 1309 m 1,0,-1
 353 1309 l 1,1,-1
 353 1137 l 1,2,-1
 196 1137 l 1,3,-1
 196 1309 l 1,0,-1
468 1309 m 1,4,-1
 628 1309 l 1,5,-1
 628 1137 l 1,6,-1
 468 1137 l 1,7,-1
 468 1309 l 1,4,-1
670 868.5 m 128,-1,9
 747 762 747 762 747 526 c 2,10,-1
 747 432 l 1,11,-1
 230 432 l 1,12,13
 231 267 231 267 282 189 c 128,-1,14
 333 111 333 111 439 111 c 0,15,16
 511 111 511 111 555 169 c 128,-1,17
 599 227 599 227 599 324 c 1,18,-1
 747 324 l 1,19,20
 747 219 747 219 708 140.5 c 128,-1,21
 669 62 669 62 598 19.5 c 128,-1,22
 527 -23 527 -23 435 -23 c 0,23,24
 254 -23 254 -23 164.5 96.5 c 128,-1,25
 75 216 75 216 75 475 c 0,26,27
 75 731 75 731 163.5 853 c 128,-1,28
 252 975 252 975 433 975 c 0,29,8
 593 975 593 975 670 868.5 c 128,-1,9
289.5 774 m 128,-1,31
 242 706 242 706 232 565 c 1,32,-1
 591 565 l 1,33,34
 591 701 591 701 551 771.5 c 128,-1,35
 511 842 511 842 433 842 c 0,36,30
 337 842 337 842 289.5 774 c 128,-1,31
EndSplineSet
EndChar

StartChar: edotaccent
Encoding: 279 279 162
Width: 825
GlyphClass: 2
Flags: W
LayerCount: 2
Back
Fore
SplineSet
491 1309 m 1,0,-1
 491 1137 l 1,1,-1
 335 1137 l 1,2,-1
 335 1309 l 1,3,-1
 491 1309 l 1,0,-1
670 868.5 m 128,-1,5
 747 762 747 762 747 526 c 2,6,-1
 747 432 l 1,7,-1
 230 432 l 1,8,9
 231 267 231 267 282 189 c 128,-1,10
 333 111 333 111 439 111 c 0,11,12
 511 111 511 111 555 169 c 128,-1,13
 599 227 599 227 599 324 c 1,14,-1
 747 324 l 1,15,16
 747 219 747 219 708 140.5 c 128,-1,17
 669 62 669 62 598 19.5 c 128,-1,18
 527 -23 527 -23 435 -23 c 0,19,20
 254 -23 254 -23 164.5 96.5 c 128,-1,21
 75 216 75 216 75 475 c 0,22,23
 75 731 75 731 163.5 853 c 128,-1,24
 252 975 252 975 433 975 c 0,25,4
 593 975 593 975 670 868.5 c 128,-1,5
289.5 774 m 128,-1,27
 242 706 242 706 232 565 c 1,28,-1
 591 565 l 1,29,30
 591 701 591 701 551 771.5 c 128,-1,31
 511 842 511 842 433 842 c 0,32,26
 337 842 337 842 289.5 774 c 128,-1,27
EndSplineSet
EndChar

StartChar: egrave
Encoding: 232 232 163
Width: 825
GlyphClass: 2
Flags: W
LayerCount: 2
Back
Fore
SplineSet
220 1303 m 1,0,-1
 222 1309 l 1,1,-1
 384 1309 l 1,2,-1
 540 1069 l 1,3,-1
 415 1069 l 1,4,-1
 220 1303 l 1,0,-1
670 868.5 m 128,-1,6
 747 762 747 762 747 526 c 2,7,-1
 747 432 l 1,8,-1
 230 432 l 1,9,10
 231 267 231 267 282 189 c 128,-1,11
 333 111 333 111 439 111 c 0,12,13
 511 111 511 111 555 169 c 128,-1,14
 599 227 599 227 599 324 c 1,15,-1
 747 324 l 1,16,17
 747 219 747 219 708 140.5 c 128,-1,18
 669 62 669 62 598 19.5 c 128,-1,19
 527 -23 527 -23 435 -23 c 0,20,21
 254 -23 254 -23 164.5 96.5 c 128,-1,22
 75 216 75 216 75 475 c 0,23,24
 75 731 75 731 163.5 853 c 128,-1,25
 252 975 252 975 433 975 c 0,26,5
 593 975 593 975 670 868.5 c 128,-1,6
289.5 774 m 128,-1,28
 242 706 242 706 232 565 c 1,29,-1
 591 565 l 1,30,31
 591 701 591 701 551 771.5 c 128,-1,32
 511 842 511 842 433 842 c 0,33,27
 337 842 337 842 289.5 774 c 128,-1,28
EndSplineSet
EndChar

StartChar: emacron
Encoding: 275 275 164
Width: 825
GlyphClass: 2
Flags: W
LayerCount: 2
Back
Fore
SplineSet
640 1214 m 1,0,-1
 640 1085 l 1,1,-1
 185 1085 l 1,2,-1
 185 1214 l 1,3,-1
 640 1214 l 1,0,-1
670 868.5 m 128,-1,5
 747 762 747 762 747 526 c 2,6,-1
 747 432 l 1,7,-1
 230 432 l 1,8,9
 231 267 231 267 282 189 c 128,-1,10
 333 111 333 111 439 111 c 0,11,12
 511 111 511 111 555 169 c 128,-1,13
 599 227 599 227 599 324 c 1,14,-1
 747 324 l 1,15,16
 747 219 747 219 708 140.5 c 128,-1,17
 669 62 669 62 598 19.5 c 128,-1,18
 527 -23 527 -23 435 -23 c 0,19,20
 254 -23 254 -23 164.5 96.5 c 128,-1,21
 75 216 75 216 75 475 c 0,22,23
 75 731 75 731 163.5 853 c 128,-1,24
 252 975 252 975 433 975 c 0,25,4
 593 975 593 975 670 868.5 c 128,-1,5
289.5 774 m 128,-1,27
 242 706 242 706 232 565 c 1,28,-1
 591 565 l 1,29,30
 591 701 591 701 551 771.5 c 128,-1,31
 511 842 511 842 433 842 c 0,32,26
 337 842 337 842 289.5 774 c 128,-1,27
EndSplineSet
EndChar

StartChar: eogonek
Encoding: 281 281 165
Width: 825
GlyphClass: 2
Flags: W
LayerCount: 2
Back
Fore
SplineSet
230 432 m 1,0,1
 231 267 231 267 282 189 c 128,-1,2
 333 111 333 111 439 111 c 0,3,4
 511 111 511 111 555 169 c 128,-1,5
 599 227 599 227 599 324 c 1,6,-1
 747 324 l 1,7,8
 747 214 747 214 704 134 c 128,-1,9
 661 54 661 54 585 12 c 1,10,11
 564 -10 564 -10 547.5 -44 c 128,-1,12
 531 -78 531 -78 531 -113 c 0,13,14
 531 -155 531 -155 551.5 -183 c 128,-1,15
 572 -211 572 -211 613 -211 c 2,16,-1
 671 -211 l 1,17,-1
 671 -305 l 1,18,19
 636 -317 636 -317 610.5 -323.5 c 128,-1,20
 585 -330 585 -330 560 -330 c 0,21,22
 491 -330 491 -330 440.5 -291 c 128,-1,23
 390 -252 390 -252 390 -166 c 0,24,25
 390 -86 390 -86 438 -23 c 1,26,-1
 435 -23 l 2,27,28
 254 -23 254 -23 164.5 96.5 c 128,-1,29
 75 216 75 216 75 475 c 0,30,31
 75 731 75 731 163.5 853 c 128,-1,32
 252 975 252 975 433 975 c 0,33,34
 593 975 593 975 670 868.5 c 128,-1,35
 747 762 747 762 747 526 c 2,36,-1
 747 432 l 1,37,-1
 230 432 l 1,0,1
551 771.5 m 128,-1,39
 511 842 511 842 433 842 c 0,40,41
 337 842 337 842 289.5 774 c 128,-1,42
 242 706 242 706 232 565 c 1,43,-1
 591 565 l 1,44,38
 591 701 591 701 551 771.5 c 128,-1,39
EndSplineSet
EndChar

StartChar: f
Encoding: 102 102 166
Width: 414
GlyphClass: 2
Flags: W
LayerCount: 2
Back
Fore
SplineSet
353 1317 m 128,-1,1
 388 1311 388 1311 413 1303 c 1,2,-1
 413 1198 l 1,3,-1
 333 1198 l 2,4,5
 290 1198 290 1198 268.5 1176 c 128,-1,6
 247 1154 247 1154 247 1112 c 2,7,-1
 247 952 l 1,8,-1
 413 952 l 1,9,-1
 413 819 l 1,10,-1
 247 819 l 1,11,-1
 247 0 l 1,12,-1
 99 0 l 1,13,-1
 99 819 l 1,14,-1
 15 819 l 1,15,-1
 15 952 l 1,16,-1
 99 952 l 1,17,-1
 99 1104 l 2,18,19
 99 1197 99 1197 143 1260 c 128,-1,20
 187 1323 187 1323 288 1323 c 0,21,0
 318 1323 318 1323 353 1317 c 128,-1,1
EndSplineSet
EndChar

StartChar: g
Encoding: 103 103 167
Width: 825
GlyphClass: 2
Flags: W
AnchorPoint: "Anchor-1" 0 0 basechar 0
AnchorPoint: "Anchor-0" 414 952 basechar 0
LayerCount: 2
Back
Fore
SplineSet
745 958 m 128,-1,1
 703 897 703 897 630 879 c 1,2,3
 714 787 714 787 714 653 c 0,4,5
 714 556 714 556 676.5 484.5 c 128,-1,6
 639 413 639 413 571 374 c 128,-1,7
 503 335 503 335 411 334 c 2,8,-1
 310 334 l 2,9,10
 274 334 274 334 249 309 c 128,-1,11
 224 284 224 284 224 248 c 0,12,13
 224 213 224 213 249.5 188.5 c 128,-1,14
 275 164 275 164 310 164 c 2,15,-1
 583 164 l 2,16,17
 649 164 649 164 700 133.5 c 128,-1,18
 751 103 751 103 778.5 52 c 128,-1,19
 806 1 806 1 806 -59 c 0,20,21
 806 -136 806 -136 774 -197.5 c 128,-1,22
 742 -259 742 -259 679 -294.5 c 128,-1,23
 616 -330 616 -330 527 -330 c 2,24,-1
 257 -330 l 2,25,26
 182 -330 182 -330 129 -299.5 c 128,-1,27
 76 -269 76 -269 49 -217.5 c 128,-1,28
 22 -166 22 -166 22 -102 c 0,29,30
 22 -32 22 -32 55.5 23 c 128,-1,31
 89 78 89 78 146 100 c 1,32,33
 110 123 110 123 89.5 161 c 128,-1,34
 69 199 69 199 69 242 c 0,35,36
 69 299 69 299 105 342.5 c 128,-1,37
 141 386 141 386 202 408 c 1,38,39
 149 450 149 450 120 512.5 c 128,-1,40
 91 575 91 575 91 653 c 0,41,42
 91 752 91 752 128.5 824.5 c 128,-1,43
 166 897 166 897 236.5 936 c 128,-1,44
 307 975 307 975 402 975 c 0,45,46
 475 975 475 975 540 940 c 1,47,48
 599 971 599 971 624 1012 c 128,-1,49
 649 1053 649 1053 658 1106 c 1,50,-1
 787 1106 l 1,51,0
 787 1019 787 1019 745 958 c 128,-1,1
282 797.5 m 128,-1,53
 241 745 241 745 241 653 c 0,54,55
 241 558 241 558 281.5 507.5 c 128,-1,56
 322 457 322 457 400 457 c 0,57,58
 479 457 479 457 521.5 509 c 128,-1,59
 564 561 564 561 564 653 c 0,60,61
 564 749 564 749 522 799.5 c 128,-1,62
 480 850 480 850 400 850 c 0,63,52
 323 850 323 850 282 797.5 c 128,-1,53
199.5 -8 m 128,-1,65
 171 -39 171 -39 171 -88 c 256,66,67
 171 -137 171 -137 200 -169 c 128,-1,68
 229 -201 229 -201 282 -201 c 2,69,-1
 544 -201 l 2,70,71
 591 -201 591 -201 623.5 -168 c 128,-1,72
 656 -135 656 -135 656 -88 c 0,73,74
 656 -40 656 -40 627.5 -8.5 c 128,-1,75
 599 23 599 23 544 23 c 2,76,-1
 282 23 l 2,77,64
 228 23 228 23 199.5 -8 c 128,-1,65
EndSplineSet
EndChar

StartChar: gbreve
Encoding: 287 287 168
Width: 825
GlyphClass: 2
Flags: W
LayerCount: 2
Back
Fore
SplineSet
608.5 1226 m 128,-1,1
 581 1185 581 1185 530 1159 c 128,-1,2
 479 1133 479 1133 413 1133 c 0,3,4
 346 1133 346 1133 294.5 1159 c 128,-1,5
 243 1185 243 1185 215 1226 c 128,-1,6
 187 1267 187 1267 187 1309 c 1,7,-1
 304 1309 l 1,8,9
 309 1287 309 1287 339 1268 c 128,-1,10
 369 1249 369 1249 413 1249 c 0,11,12
 442 1249 442 1249 466 1258.5 c 128,-1,13
 490 1268 490 1268 504.5 1282 c 128,-1,14
 519 1296 519 1296 521 1309 c 1,15,-1
 636 1309 l 1,16,0
 636 1267 636 1267 608.5 1226 c 128,-1,1
745 958 m 128,-1,18
 703 897 703 897 630 879 c 1,19,20
 714 787 714 787 714 653 c 0,21,22
 714 556 714 556 676.5 484.5 c 128,-1,23
 639 413 639 413 571 374 c 128,-1,24
 503 335 503 335 411 334 c 2,25,-1
 310 334 l 2,26,27
 274 334 274 334 249 309 c 128,-1,28
 224 284 224 284 224 248 c 0,29,30
 224 213 224 213 249.5 188.5 c 128,-1,31
 275 164 275 164 310 164 c 2,32,-1
 583 164 l 2,33,34
 649 164 649 164 700 133.5 c 128,-1,35
 751 103 751 103 778.5 52 c 128,-1,36
 806 1 806 1 806 -59 c 0,37,38
 806 -136 806 -136 774 -197.5 c 128,-1,39
 742 -259 742 -259 679 -294.5 c 128,-1,40
 616 -330 616 -330 527 -330 c 2,41,-1
 257 -330 l 2,42,43
 182 -330 182 -330 129 -299.5 c 128,-1,44
 76 -269 76 -269 49 -217.5 c 128,-1,45
 22 -166 22 -166 22 -102 c 0,46,47
 22 -32 22 -32 55.5 23 c 128,-1,48
 89 78 89 78 146 100 c 1,49,50
 110 123 110 123 89.5 161 c 128,-1,51
 69 199 69 199 69 242 c 0,52,53
 69 299 69 299 105 342.5 c 128,-1,54
 141 386 141 386 202 408 c 1,55,56
 149 450 149 450 120 512.5 c 128,-1,57
 91 575 91 575 91 653 c 0,58,59
 91 752 91 752 128.5 824.5 c 128,-1,60
 166 897 166 897 236.5 936 c 128,-1,61
 307 975 307 975 402 975 c 0,62,63
 475 975 475 975 540 940 c 1,64,65
 599 971 599 971 624 1012 c 128,-1,66
 649 1053 649 1053 658 1106 c 1,67,-1
 787 1106 l 1,68,17
 787 1019 787 1019 745 958 c 128,-1,18
282 797.5 m 128,-1,70
 241 745 241 745 241 653 c 0,71,72
 241 558 241 558 281.5 507.5 c 128,-1,73
 322 457 322 457 400 457 c 0,74,75
 479 457 479 457 521.5 509 c 128,-1,76
 564 561 564 561 564 653 c 0,77,78
 564 749 564 749 522 799.5 c 128,-1,79
 480 850 480 850 400 850 c 0,80,69
 323 850 323 850 282 797.5 c 128,-1,70
199.5 -8 m 128,-1,82
 171 -39 171 -39 171 -88 c 256,83,84
 171 -137 171 -137 200 -169 c 128,-1,85
 229 -201 229 -201 282 -201 c 2,86,-1
 544 -201 l 2,87,88
 591 -201 591 -201 623.5 -168 c 128,-1,89
 656 -135 656 -135 656 -88 c 0,90,91
 656 -40 656 -40 627.5 -8.5 c 128,-1,92
 599 23 599 23 544 23 c 2,93,-1
 282 23 l 2,94,81
 228 23 228 23 199.5 -8 c 128,-1,82
EndSplineSet
EndChar

StartChar: gcircumflex
Encoding: 285 285 169
Width: 825
GlyphClass: 2
Flags: W
LayerCount: 2
Back
Fore
SplineSet
333 1063 m 1,0,-1
 187 1063 l 1,1,-1
 341 1307 l 1,2,-1
 484 1307 l 1,3,-1
 638 1063 l 1,4,-1
 493 1063 l 1,5,-1
 413 1206 l 1,6,-1
 333 1063 l 1,0,-1
745 958 m 128,-1,8
 703 897 703 897 630 879 c 1,9,10
 714 787 714 787 714 653 c 0,11,12
 714 556 714 556 676.5 484.5 c 128,-1,13
 639 413 639 413 571 374 c 128,-1,14
 503 335 503 335 411 334 c 2,15,-1
 310 334 l 2,16,17
 274 334 274 334 249 309 c 128,-1,18
 224 284 224 284 224 248 c 0,19,20
 224 213 224 213 249.5 188.5 c 128,-1,21
 275 164 275 164 310 164 c 2,22,-1
 583 164 l 2,23,24
 649 164 649 164 700 133.5 c 128,-1,25
 751 103 751 103 778.5 52 c 128,-1,26
 806 1 806 1 806 -59 c 0,27,28
 806 -136 806 -136 774 -197.5 c 128,-1,29
 742 -259 742 -259 679 -294.5 c 128,-1,30
 616 -330 616 -330 527 -330 c 2,31,-1
 257 -330 l 2,32,33
 182 -330 182 -330 129 -299.5 c 128,-1,34
 76 -269 76 -269 49 -217.5 c 128,-1,35
 22 -166 22 -166 22 -102 c 0,36,37
 22 -32 22 -32 55.5 23 c 128,-1,38
 89 78 89 78 146 100 c 1,39,40
 110 123 110 123 89.5 161 c 128,-1,41
 69 199 69 199 69 242 c 0,42,43
 69 299 69 299 105 342.5 c 128,-1,44
 141 386 141 386 202 408 c 1,45,46
 149 450 149 450 120 512.5 c 128,-1,47
 91 575 91 575 91 653 c 0,48,49
 91 752 91 752 128.5 824.5 c 128,-1,50
 166 897 166 897 236.5 936 c 128,-1,51
 307 975 307 975 402 975 c 0,52,53
 475 975 475 975 540 940 c 1,54,55
 588 963 588 963 614 984.5 c 128,-1,56
 640 1006 640 1006 652.5 1034.5 c 128,-1,57
 665 1063 665 1063 667 1106 c 1,58,-1
 787 1106 l 1,59,7
 787 1019 787 1019 745 958 c 128,-1,8
282 797.5 m 128,-1,61
 241 745 241 745 241 653 c 0,62,63
 241 558 241 558 281.5 507.5 c 128,-1,64
 322 457 322 457 400 457 c 0,65,66
 479 457 479 457 521.5 509 c 128,-1,67
 564 561 564 561 564 653 c 0,68,69
 564 749 564 749 522 799.5 c 128,-1,70
 480 850 480 850 400 850 c 0,71,60
 323 850 323 850 282 797.5 c 128,-1,61
199.5 -8 m 128,-1,73
 171 -39 171 -39 171 -88 c 256,74,75
 171 -137 171 -137 200 -169 c 128,-1,76
 229 -201 229 -201 282 -201 c 2,77,-1
 544 -201 l 2,78,79
 591 -201 591 -201 623.5 -168 c 128,-1,80
 656 -135 656 -135 656 -88 c 0,81,82
 656 -40 656 -40 627.5 -8.5 c 128,-1,83
 599 23 599 23 544 23 c 2,84,-1
 282 23 l 2,85,72
 228 23 228 23 199.5 -8 c 128,-1,73
EndSplineSet
EndChar

StartChar: gcommaaccent
Encoding: 291 291 170
Width: 825
GlyphClass: 2
Flags: W
LayerCount: 2
Back
Fore
SplineSet
462 1077 m 1,0,-1
 306 1077 l 1,1,-1
 306 1229 l 1,2,-1
 361 1370 l 1,3,-1
 441 1370 l 1,4,-1
 400 1241 l 1,5,-1
 462 1241 l 1,6,-1
 462 1077 l 1,0,-1
745 958 m 128,-1,8
 703 897 703 897 630 879 c 1,9,10
 714 787 714 787 714 653 c 0,11,12
 714 556 714 556 676.5 484.5 c 128,-1,13
 639 413 639 413 571 374 c 128,-1,14
 503 335 503 335 411 334 c 2,15,-1
 310 334 l 2,16,17
 274 334 274 334 249 309 c 128,-1,18
 224 284 224 284 224 248 c 0,19,20
 224 213 224 213 249.5 188.5 c 128,-1,21
 275 164 275 164 310 164 c 2,22,-1
 583 164 l 2,23,24
 649 164 649 164 700 133.5 c 128,-1,25
 751 103 751 103 778.5 52 c 128,-1,26
 806 1 806 1 806 -59 c 0,27,28
 806 -136 806 -136 774 -197.5 c 128,-1,29
 742 -259 742 -259 679 -294.5 c 128,-1,30
 616 -330 616 -330 527 -330 c 2,31,-1
 257 -330 l 2,32,33
 182 -330 182 -330 129 -299.5 c 128,-1,34
 76 -269 76 -269 49 -217.5 c 128,-1,35
 22 -166 22 -166 22 -102 c 0,36,37
 22 -32 22 -32 55.5 23 c 128,-1,38
 89 78 89 78 146 100 c 1,39,40
 110 123 110 123 89.5 161 c 128,-1,41
 69 199 69 199 69 242 c 0,42,43
 69 299 69 299 105 342.5 c 128,-1,44
 141 386 141 386 202 408 c 1,45,46
 149 450 149 450 120 512.5 c 128,-1,47
 91 575 91 575 91 653 c 0,48,49
 91 752 91 752 128.5 824.5 c 128,-1,50
 166 897 166 897 236.5 936 c 128,-1,51
 307 975 307 975 402 975 c 0,52,53
 475 975 475 975 540 940 c 1,54,55
 599 971 599 971 624 1012 c 128,-1,56
 649 1053 649 1053 658 1106 c 1,57,-1
 787 1106 l 1,58,7
 787 1019 787 1019 745 958 c 128,-1,8
282 797.5 m 128,-1,60
 241 745 241 745 241 653 c 0,61,62
 241 558 241 558 281.5 507.5 c 128,-1,63
 322 457 322 457 400 457 c 0,64,65
 479 457 479 457 521.5 509 c 128,-1,66
 564 561 564 561 564 653 c 0,67,68
 564 749 564 749 522 799.5 c 128,-1,69
 480 850 480 850 400 850 c 0,70,59
 323 850 323 850 282 797.5 c 128,-1,60
199.5 -8 m 128,-1,72
 171 -39 171 -39 171 -88 c 256,73,74
 171 -137 171 -137 200 -169 c 128,-1,75
 229 -201 229 -201 282 -201 c 2,76,-1
 544 -201 l 2,77,78
 591 -201 591 -201 623.5 -168 c 128,-1,79
 656 -135 656 -135 656 -88 c 0,80,81
 656 -40 656 -40 627.5 -8.5 c 128,-1,82
 599 23 599 23 544 23 c 2,83,-1
 282 23 l 2,84,71
 228 23 228 23 199.5 -8 c 128,-1,72
EndSplineSet
EndChar

StartChar: gdotaccent
Encoding: 289 289 171
Width: 825
GlyphClass: 2
Flags: W
LayerCount: 2
Back
Fore
SplineSet
491 1309 m 1,0,-1
 491 1137 l 1,1,-1
 335 1137 l 1,2,-1
 335 1309 l 1,3,-1
 491 1309 l 1,0,-1
745 958 m 128,-1,5
 703 897 703 897 630 879 c 1,6,7
 714 787 714 787 714 653 c 0,8,9
 714 556 714 556 676.5 484.5 c 128,-1,10
 639 413 639 413 571 374 c 128,-1,11
 503 335 503 335 411 334 c 2,12,-1
 310 334 l 2,13,14
 274 334 274 334 249 309 c 128,-1,15
 224 284 224 284 224 248 c 0,16,17
 224 213 224 213 249.5 188.5 c 128,-1,18
 275 164 275 164 310 164 c 2,19,-1
 583 164 l 2,20,21
 649 164 649 164 700 133.5 c 128,-1,22
 751 103 751 103 778.5 52 c 128,-1,23
 806 1 806 1 806 -59 c 0,24,25
 806 -136 806 -136 774 -197.5 c 128,-1,26
 742 -259 742 -259 679 -294.5 c 128,-1,27
 616 -330 616 -330 527 -330 c 2,28,-1
 257 -330 l 2,29,30
 182 -330 182 -330 129 -299.5 c 128,-1,31
 76 -269 76 -269 49 -217.5 c 128,-1,32
 22 -166 22 -166 22 -102 c 0,33,34
 22 -32 22 -32 55.5 23 c 128,-1,35
 89 78 89 78 146 100 c 1,36,37
 110 123 110 123 89.5 161 c 128,-1,38
 69 199 69 199 69 242 c 0,39,40
 69 299 69 299 105 342.5 c 128,-1,41
 141 386 141 386 202 408 c 1,42,43
 149 450 149 450 120 512.5 c 128,-1,44
 91 575 91 575 91 653 c 0,45,46
 91 752 91 752 128.5 824.5 c 128,-1,47
 166 897 166 897 236.5 936 c 128,-1,48
 307 975 307 975 402 975 c 0,49,50
 475 975 475 975 540 940 c 1,51,52
 599 971 599 971 624 1012 c 128,-1,53
 649 1053 649 1053 658 1106 c 1,54,-1
 787 1106 l 1,55,4
 787 1019 787 1019 745 958 c 128,-1,5
282 797.5 m 128,-1,57
 241 745 241 745 241 653 c 0,58,59
 241 558 241 558 281.5 507.5 c 128,-1,60
 322 457 322 457 400 457 c 0,61,62
 479 457 479 457 521.5 509 c 128,-1,63
 564 561 564 561 564 653 c 0,64,65
 564 749 564 749 522 799.5 c 128,-1,66
 480 850 480 850 400 850 c 0,67,56
 323 850 323 850 282 797.5 c 128,-1,57
199.5 -8 m 128,-1,69
 171 -39 171 -39 171 -88 c 256,70,71
 171 -137 171 -137 200 -169 c 128,-1,72
 229 -201 229 -201 282 -201 c 2,73,-1
 544 -201 l 2,74,75
 591 -201 591 -201 623.5 -168 c 128,-1,76
 656 -135 656 -135 656 -88 c 0,77,78
 656 -40 656 -40 627.5 -8.5 c 128,-1,79
 599 23 599 23 544 23 c 2,80,-1
 282 23 l 2,81,68
 228 23 228 23 199.5 -8 c 128,-1,69
EndSplineSet
EndChar

StartChar: h
Encoding: 104 104 172
Width: 825
GlyphClass: 2
Flags: W
AnchorPoint: "Anchor-1" 0 0 basechar 0
AnchorPoint: "Anchor-0" 414 952 basechar 0
LayerCount: 2
Back
Fore
SplineSet
355.5 945.5 m 128,-1,1
 408 975 408 975 480 975 c 0,2,3
 594 975 594 975 655 906.5 c 128,-1,4
 716 838 716 838 716 686 c 2,5,-1
 716 0 l 1,6,-1
 568 0 l 1,7,-1
 568 676 l 2,8,9
 568 768 568 768 533 805 c 128,-1,10
 498 842 498 842 433 842 c 0,11,12
 385 842 385 842 345 810.5 c 128,-1,13
 305 779 305 779 281 720 c 128,-1,14
 257 661 257 661 257 582 c 2,15,-1
 257 0 l 1,16,-1
 108 0 l 1,17,-1
 108 1309 l 1,18,-1
 257 1309 l 1,19,-1
 257 852 l 1,20,-1
 267 852 l 1,21,0
 303 916 303 916 355.5 945.5 c 128,-1,1
EndSplineSet
EndChar

StartChar: hbar
Encoding: 295 295 173
Width: 825
GlyphClass: 2
Flags: W
LayerCount: 2
Back
Fore
SplineSet
453 1055 m 1,0,-1
 258 1055 l 1,1,-1
 258 852 l 1,2,-1
 268 852 l 1,3,4
 304 916 304 916 356.5 945.5 c 128,-1,5
 409 975 409 975 481 975 c 0,6,7
 595 975 595 975 656 906.5 c 128,-1,8
 717 838 717 838 717 686 c 2,9,-1
 717 0 l 1,10,-1
 569 0 l 1,11,-1
 569 676 l 2,12,13
 569 768 569 768 534 805 c 128,-1,14
 499 842 499 842 434 842 c 0,15,16
 386 842 386 842 346 810.5 c 128,-1,17
 306 779 306 779 282 720 c 128,-1,18
 258 661 258 661 258 582 c 2,19,-1
 258 0 l 1,20,-1
 109 0 l 1,21,-1
 109 1055 l 1,22,-1
 0 1055 l 1,23,-1
 0 1178 l 1,24,-1
 109 1178 l 1,25,-1
 109 1309 l 1,26,-1
 258 1309 l 1,27,-1
 258 1178 l 1,28,-1
 453 1178 l 1,29,-1
 453 1055 l 1,0,-1
EndSplineSet
EndChar

StartChar: hcircumflex
Encoding: 293 293 174
Width: 825
GlyphClass: 2
Flags: W
LayerCount: 2
Back
Fore
SplineSet
106 1352 m 1,0,-1
 -39 1352 l 1,1,-1
 117 1597 l 1,2,-1
 258 1597 l 1,3,-1
 414 1352 l 1,4,-1
 268 1352 l 1,5,-1
 188 1495 l 1,6,-1
 106 1352 l 1,0,-1
356.5 945.5 m 128,-1,8
 409 975 409 975 481 975 c 0,9,10
 595 975 595 975 656 906.5 c 128,-1,11
 717 838 717 838 717 686 c 2,12,-1
 717 0 l 1,13,-1
 569 0 l 1,14,-1
 569 676 l 2,15,16
 569 768 569 768 534 805 c 128,-1,17
 499 842 499 842 434 842 c 0,18,19
 386 842 386 842 346 810.5 c 128,-1,20
 306 779 306 779 282 720 c 128,-1,21
 258 661 258 661 258 582 c 2,22,-1
 258 0 l 1,23,-1
 109 0 l 1,24,-1
 109 1309 l 1,25,-1
 258 1309 l 1,26,-1
 258 852 l 1,27,-1
 268 852 l 1,28,7
 304 916 304 916 356.5 945.5 c 128,-1,8
EndSplineSet
EndChar

StartChar: i
Encoding: 105 105 175
Width: 330
GlyphClass: 2
Flags: W
LayerCount: 2
Back
Fore
SplineSet
239 1309 m 1,0,-1
 239 1130 l 1,1,-1
 89 1130 l 1,2,-1
 89 1309 l 1,3,-1
 239 1309 l 1,0,-1
239 952 m 1,4,-1
 239 0 l 1,5,-1
 89 0 l 1,6,-1
 89 952 l 1,7,-1
 239 952 l 1,4,-1
EndSplineSet
EndChar

StartChar: dotlessi
Encoding: 305 305 176
Width: 414
GlyphClass: 2
Flags: W
AnchorPoint: "Anchor-1" 0 0 basechar 0
AnchorPoint: "Anchor-0" 207 952 basechar 0
LayerCount: 2
Back
Fore
SplineSet
280 952 m 1,0,-1
 280 0 l 1,1,-1
 132 0 l 1,2,-1
 132 952 l 1,3,-1
 280 952 l 1,0,-1
EndSplineSet
EndChar

StartChar: iacute
Encoding: 237 237 177
Width: 414
GlyphClass: 2
Flags: W
LayerCount: 2
Back
Fore
SplineSet
99 1069 m 1,0,-1
 255 1309 l 1,1,-1
 415 1309 l 1,2,-1
 417 1303 l 1,3,-1
 224 1069 l 1,4,-1
 99 1069 l 1,0,-1
132 952 m 1,5,-1
 280 952 l 1,6,-1
 280 0 l 1,7,-1
 132 0 l 1,8,-1
 132 952 l 1,5,-1
EndSplineSet
EndChar

StartChar: ibreve
Encoding: 301 301 178
Width: 414
GlyphClass: 2
Flags: W
LayerCount: 2
Back
Fore
SplineSet
402.5 1226 m 128,-1,1
 375 1185 375 1185 324 1159 c 128,-1,2
 273 1133 273 1133 207 1133 c 0,3,4
 142 1133 142 1133 90.5 1159 c 128,-1,5
 39 1185 39 1185 10.5 1226 c 128,-1,6
 -18 1267 -18 1267 -18 1309 c 1,7,-1
 100 1309 l 1,8,9
 102 1296 102 1296 116.5 1282 c 128,-1,10
 131 1268 131 1268 155 1258.5 c 128,-1,11
 179 1249 179 1249 207 1249 c 0,12,13
 236 1249 236 1249 260 1258.5 c 128,-1,14
 284 1268 284 1268 298.5 1282 c 128,-1,15
 313 1296 313 1296 315 1309 c 1,16,-1
 430 1309 l 1,17,0
 430 1267 430 1267 402.5 1226 c 128,-1,1
281 952 m 1,18,-1
 281 0 l 1,19,-1
 133 0 l 1,20,-1
 133 952 l 1,21,-1
 281 952 l 1,18,-1
EndSplineSet
EndChar

StartChar: icircumflex
Encoding: 238 238 179
Width: 414
GlyphClass: 2
Flags: W
LayerCount: 2
Back
Fore
SplineSet
127 1063 m 1,0,-1
 -20 1063 l 1,1,-1
 137 1307 l 1,2,-1
 279 1307 l 1,3,-1
 432 1063 l 1,4,-1
 289 1063 l 1,5,-1
 209 1206 l 1,6,-1
 127 1063 l 1,0,-1
281 952 m 1,7,-1
 281 0 l 1,8,-1
 133 0 l 1,9,-1
 133 952 l 1,10,-1
 281 952 l 1,7,-1
EndSplineSet
EndChar

StartChar: idieresis
Encoding: 239 239 180
Width: 414
GlyphClass: 2
Flags: W
LayerCount: 2
Back
Fore
SplineSet
-8 1309 m 1,0,-1
 150 1309 l 1,1,-1
 150 1137 l 1,2,-1
 -8 1137 l 1,3,-1
 -8 1309 l 1,0,-1
264 1309 m 1,4,-1
 422 1309 l 1,5,-1
 422 1137 l 1,6,-1
 264 1137 l 1,7,-1
 264 1309 l 1,4,-1
133 952 m 1,8,-1
 281 952 l 1,9,-1
 281 0 l 1,10,-1
 133 0 l 1,11,-1
 133 952 l 1,8,-1
EndSplineSet
EndChar

StartChar: igrave
Encoding: 236 236 181
Width: 414
GlyphClass: 2
Flags: W
LayerCount: 2
Back
Fore
SplineSet
-6 1303 m 1,0,-1
 -4 1309 l 1,1,-1
 160 1309 l 1,2,-1
 315 1069 l 1,3,-1
 190 1069 l 1,4,-1
 -6 1303 l 1,0,-1
133 952 m 1,5,-1
 281 952 l 1,6,-1
 281 0 l 1,7,-1
 133 0 l 1,8,-1
 133 952 l 1,5,-1
EndSplineSet
EndChar

StartChar: ij
Encoding: 307 307 182
Width: 659
GlyphClass: 2
Flags: W
LayerCount: 2
Back
Fore
SplineSet
89 1309 m 1,0,-1
 239 1309 l 1,1,-1
 239 1130 l 1,2,-1
 89 1130 l 1,3,-1
 89 1309 l 1,0,-1
419 1309 m 1,4,-1
 568 1309 l 1,5,-1
 568 1130 l 1,6,-1
 419 1130 l 1,7,-1
 419 1309 l 1,4,-1
89 952 m 1,8,-1
 239 952 l 1,9,-1
 239 0 l 1,10,-1
 89 0 l 1,11,-1
 89 952 l 1,8,-1
523.5 -267 m 128,-1,13
 479 -330 479 -330 380 -330 c 0,14,15
 348 -330 348 -330 314 -323.5 c 128,-1,16
 280 -317 280 -317 255 -307 c 1,17,-1
 255 -205 l 1,18,-1
 335 -205 l 2,19,20
 376 -205 376 -205 397.5 -182.5 c 128,-1,21
 419 -160 419 -160 419 -117 c 2,22,-1
 419 952 l 1,23,-1
 568 952 l 1,24,-1
 568 -111 l 2,25,12
 568 -204 568 -204 523.5 -267 c 128,-1,13
EndSplineSet
EndChar

StartChar: imacron
Encoding: 299 299 183
Width: 414
GlyphClass: 2
Flags: W
LayerCount: 2
Back
Fore
SplineSet
434 1214 m 1,0,-1
 434 1085 l 1,1,-1
 -20 1085 l 1,2,-1
 -20 1214 l 1,3,-1
 434 1214 l 1,0,-1
281 952 m 1,4,-1
 281 0 l 1,5,-1
 133 0 l 1,6,-1
 133 952 l 1,7,-1
 281 952 l 1,4,-1
EndSplineSet
EndChar

StartChar: iogonek
Encoding: 303 303 184
Width: 330
GlyphClass: 2
Flags: W
LayerCount: 2
Back
Fore
SplineSet
85 1309 m 1,0,-1
 245 1309 l 1,1,-1
 245 1137 l 1,2,-1
 85 1137 l 1,3,-1
 85 1309 l 1,0,-1
207 -54 m 128,-1,5
 194 -84 194 -84 194 -113 c 0,6,7
 194 -155 194 -155 214 -183 c 128,-1,8
 234 -211 234 -211 275 -211 c 2,9,-1
 335 -211 l 1,10,-1
 335 -305 l 1,11,12
 265 -330 265 -330 224 -330 c 0,13,14
 155 -330 155 -330 104.5 -291 c 128,-1,15
 54 -252 54 -252 54 -166 c 0,16,17
 54 -113 54 -113 71.5 -74 c 128,-1,18
 89 -35 89 -35 120 0 c 1,19,-1
 89 0 l 1,20,-1
 89 952 l 1,21,-1
 239 952 l 1,22,-1
 239 0 l 1,23,4
 220 -24 220 -24 207 -54 c 128,-1,5
EndSplineSet
EndChar

StartChar: itilde
Encoding: 297 297 185
Width: 414
GlyphClass: 2
Flags: W
LayerCount: 2
Back
Fore
SplineSet
454.5 1220.5 m 128,-1,1
 438 1177 438 1177 403 1148.5 c 128,-1,2
 368 1120 368 1120 317 1120 c 0,3,4
 291 1120 291 1120 266.5 1127.5 c 128,-1,5
 242 1135 242 1135 209 1150 c 0,6,7
 175 1164 175 1164 153.5 1171 c 128,-1,8
 132 1178 132 1178 109 1178 c 0,9,10
 55 1178 55 1178 47 1120 c 1,11,-1
 -57 1120 l 1,12,13
 -57 1165 -57 1165 -40.5 1208.5 c 128,-1,14
 -24 1252 -24 1252 10.5 1280.5 c 128,-1,15
 45 1309 45 1309 96 1309 c 0,16,17
 122 1309 122 1309 145.5 1302 c 128,-1,18
 169 1295 169 1295 205 1280 c 0,19,20
 237 1267 237 1267 259 1260 c 128,-1,21
 281 1253 281 1253 305 1253 c 0,22,23
 357 1253 357 1253 367 1309 c 1,24,-1
 471 1309 l 1,25,0
 471 1264 471 1264 454.5 1220.5 c 128,-1,1
281 952 m 1,26,-1
 281 0 l 1,27,-1
 133 0 l 1,28,-1
 133 952 l 1,29,-1
 281 952 l 1,26,-1
EndSplineSet
EndChar

StartChar: j
Encoding: 106 106 186
Width: 330
GlyphClass: 2
Flags: W
LayerCount: 2
Back
Fore
SplineSet
240 1309 m 1,0,-1
 240 1130 l 1,1,-1
 90 1130 l 1,2,-1
 90 1309 l 1,3,-1
 240 1309 l 1,0,-1
195.5 -267 m 128,-1,5
 151 -330 151 -330 51 -330 c 0,6,7
 20 -330 20 -330 -14.5 -323.5 c 128,-1,8
 -49 -317 -49 -317 -74 -307 c 1,9,-1
 -74 -205 l 1,10,-1
 6 -205 l 2,11,12
 47 -205 47 -205 68.5 -182.5 c 128,-1,13
 90 -160 90 -160 90 -117 c 2,14,-1
 90 952 l 1,15,-1
 240 952 l 1,16,-1
 240 -111 l 2,17,4
 240 -204 240 -204 195.5 -267 c 128,-1,5
EndSplineSet
EndChar

StartChar: jcircumflex
Encoding: 309 309 187
Width: 330
GlyphClass: 2
Flags: W
LayerCount: 2
Back
Fore
SplineSet
84 1063 m 1,0,-1
 -61 1063 l 1,1,-1
 94 1307 l 1,2,-1
 236 1307 l 1,3,-1
 391 1063 l 1,4,-1
 246 1063 l 1,5,-1
 166 1206 l 1,6,-1
 84 1063 l 1,0,-1
195.5 -267 m 128,-1,8
 151 -330 151 -330 51 -330 c 0,9,10
 20 -330 20 -330 -14.5 -323.5 c 128,-1,11
 -49 -317 -49 -317 -74 -307 c 1,12,-1
 -74 -205 l 1,13,-1
 6 -205 l 2,14,15
 47 -205 47 -205 68.5 -182.5 c 128,-1,16
 90 -160 90 -160 90 -117 c 2,17,-1
 90 952 l 1,18,-1
 240 952 l 1,19,-1
 240 -111 l 2,20,7
 240 -204 240 -204 195.5 -267 c 128,-1,8
EndSplineSet
EndChar

StartChar: k
Encoding: 107 107 188
Width: 741
GlyphClass: 2
Flags: W
AnchorPoint: "Anchor-1" 371 0 basechar 0
AnchorPoint: "Anchor-0" 0 0 basechar 0
LayerCount: 2
Back
Fore
SplineSet
448 561 m 1,0,-1
 742 0 l 1,1,-1
 574 0 l 1,2,-1
 357 434 l 1,3,-1
 257 324 l 1,4,-1
 257 0 l 1,5,-1
 108 0 l 1,6,-1
 108 1309 l 1,7,-1
 257 1309 l 1,8,-1
 257 510 l 1,9,-1
 564 952 l 1,10,-1
 728 952 l 1,11,-1
 448 561 l 1,0,-1
EndSplineSet
EndChar

StartChar: kcommaaccent
Encoding: 311 311 189
Width: 741
GlyphClass: 2
Flags: W
LayerCount: 2
Back
Fore
SplineSet
448 561 m 1,0,-1
 742 0 l 1,1,-1
 574 0 l 1,2,-1
 357 434 l 1,3,-1
 257 324 l 1,4,-1
 257 0 l 1,5,-1
 108 0 l 1,6,-1
 108 1309 l 1,7,-1
 257 1309 l 1,8,-1
 257 510 l 1,9,-1
 564 952 l 1,10,-1
 728 952 l 1,11,-1
 448 561 l 1,0,-1
355 -272 m 1,12,-1
 294 -272 l 1,13,-1
 294 -109 l 1,14,-1
 448 -109 l 1,15,-1
 448 -260 l 1,16,-1
 396 -401 l 1,17,-1
 314 -401 l 1,18,-1
 355 -272 l 1,12,-1
EndSplineSet
EndChar

StartChar: kgreenlandic
Encoding: 312 312 190
Width: 739
GlyphClass: 2
Flags: W
LayerCount: 2
Back
Fore
SplineSet
357 434 m 1,0,-1
 257 324 l 1,1,-1
 257 0 l 1,2,-1
 108 0 l 1,3,-1
 108 952 l 1,4,-1
 257 952 l 1,5,-1
 257 510 l 1,6,-1
 564 952 l 1,7,-1
 728 952 l 1,8,-1
 448 561 l 1,9,-1
 742 0 l 1,10,-1
 574 0 l 1,11,-1
 357 434 l 1,0,-1
EndSplineSet
EndChar

StartChar: l
Encoding: 108 108 191
Width: 330
GlyphClass: 2
Flags: W
AnchorPoint: "Anchor-1" 164 0 basechar 0
AnchorPoint: "Anchor-0" 164 952 basechar 0
LayerCount: 2
Back
Fore
SplineSet
239 1309 m 1,0,-1
 239 0 l 1,1,-1
 89 0 l 1,2,-1
 89 1309 l 1,3,-1
 239 1309 l 1,0,-1
EndSplineSet
EndChar

StartChar: lacute
Encoding: 314 314 192
Width: 330
GlyphClass: 2
Flags: W
LayerCount: 2
Back
Fore
SplineSet
56 1360 m 1,0,-1
 212 1599 l 1,1,-1
 376 1599 l 1,2,-1
 376 1593 l 1,3,-1
 181 1360 l 1,4,-1
 56 1360 l 1,0,-1
89 1309 m 1,5,-1
 239 1309 l 1,6,-1
 239 0 l 1,7,-1
 89 0 l 1,8,-1
 89 1309 l 1,5,-1
EndSplineSet
EndChar

StartChar: lcaron
Encoding: 318 318 193
Width: 432
GlyphClass: 2
Flags: W
LayerCount: 2
Back
Fore
SplineSet
239 1309 m 1,0,-1
 239 0 l 1,1,-1
 89 0 l 1,2,-1
 89 1309 l 1,3,-1
 239 1309 l 1,0,-1
382 1047 m 1,4,-1
 310 1047 l 1,5,-1
 310 1241 l 1,6,-1
 491 1241 l 1,7,-1
 491 1063 l 1,8,-1
 405 821 l 1,9,-1
 310 821 l 1,10,-1
 382 1047 l 1,4,-1
EndSplineSet
EndChar

StartChar: lcommaaccent
Encoding: 316 316 194
Width: 330
GlyphClass: 2
Flags: W
LayerCount: 2
Back
Fore
SplineSet
239 1309 m 1,0,-1
 239 0 l 1,1,-1
 89 0 l 1,2,-1
 89 1309 l 1,3,-1
 239 1309 l 1,0,-1
149 -272 m 1,4,-1
 87 -272 l 1,5,-1
 87 -109 l 1,6,-1
 241 -109 l 1,7,-1
 241 -260 l 1,8,-1
 189 -401 l 1,9,-1
 110 -401 l 1,10,-1
 149 -272 l 1,4,-1
EndSplineSet
EndChar

StartChar: ldot
Encoding: 320 320 195
Width: 586
GlyphClass: 2
Flags: W
LayerCount: 2
Back
Fore
SplineSet
239 1309 m 1,0,-1
 239 0 l 1,1,-1
 89 0 l 1,2,-1
 89 1309 l 1,3,-1
 239 1309 l 1,0,-1
493 723 m 1,4,-1
 493 522 l 1,5,-1
 310 522 l 1,6,-1
 310 723 l 1,7,-1
 493 723 l 1,4,-1
EndSplineSet
Ligature2: "Ligature Substitution lookup 35 subtable" l periodcentered
EndChar

StartChar: lslash
Encoding: 322 322 196
Width: 330
GlyphClass: 2
Flags: W
LayerCount: 2
Back
Fore
SplineSet
240 578 m 1,0,-1
 240 0 l 1,1,-1
 90 0 l 1,2,-1
 90 444 l 1,3,-1
 -39 334 l 1,4,-1
 -39 461 l 1,5,-1
 90 575 l 1,6,-1
 90 1309 l 1,7,-1
 240 1309 l 1,8,-1
 240 709 l 1,9,-1
 397 848 l 1,10,-1
 397 717 l 1,11,-1
 240 578 l 1,0,-1
EndSplineSet
EndChar

StartChar: m
Encoding: 109 109 197
Width: 1237
GlyphClass: 2
Flags: W
LayerCount: 2
Back
Fore
SplineSet
1127 686 m 2,1,-1
 1127 0 l 1,2,-1
 978 0 l 1,3,-1
 978 676 l 2,4,5
 978 768 978 768 946 805 c 128,-1,6
 914 842 914 842 855 842 c 0,7,8
 811 842 811 842 774 810.5 c 128,-1,9
 737 779 737 779 715 720 c 128,-1,10
 693 661 693 661 693 582 c 2,11,-1
 693 0 l 1,12,-1
 544 0 l 1,13,-1
 544 676 l 2,14,15
 544 768 544 768 511.5 805 c 128,-1,16
 479 842 479 842 421 842 c 0,17,18
 376 842 376 842 339 810.5 c 128,-1,19
 302 779 302 779 279.5 720 c 128,-1,20
 257 661 257 661 257 582 c 2,21,-1
 257 0 l 1,22,-1
 108 0 l 1,23,-1
 108 952 l 1,24,-1
 220 952 l 1,25,-1
 241 842 l 1,26,-1
 251 842 l 1,27,28
 323 975 323 975 468 975 c 0,29,30
 541 975 541 975 593.5 941 c 128,-1,31
 646 907 646 907 671 836 c 1,32,33
 708 903 708 903 770 939 c 128,-1,34
 832 975 832 975 902 975 c 0,35,0
 1127 975 1127 975 1127 686 c 2,1,-1
EndSplineSet
EndChar

StartChar: n
Encoding: 110 110 198
Width: 825
GlyphClass: 2
Flags: W
AnchorPoint: "Anchor-1" 414 0 basechar 0
AnchorPoint: "Anchor-0" 414 952 basechar 0
LayerCount: 2
Back
Fore
SplineSet
655 906.5 m 128,-1,1
 716 838 716 838 716 686 c 2,2,-1
 716 0 l 1,3,-1
 568 0 l 1,4,-1
 568 676 l 2,5,6
 568 768 568 768 533 805 c 128,-1,7
 498 842 498 842 433 842 c 0,8,9
 385 842 385 842 345 810.5 c 128,-1,10
 305 779 305 779 281 720 c 128,-1,11
 257 661 257 661 257 582 c 2,12,-1
 257 0 l 1,13,-1
 108 0 l 1,14,-1
 108 952 l 1,15,-1
 220 952 l 1,16,-1
 241 842 l 1,17,-1
 251 842 l 1,18,19
 289 910 289 910 348 942.5 c 128,-1,20
 407 975 407 975 480 975 c 0,21,0
 594 975 594 975 655 906.5 c 128,-1,1
EndSplineSet
Substitution2: "'sups' Superscript lookup 11 subtable" nsuperior
Substitution2: "'aalt' Access All Alternates lookup 0 subtable" nsuperior
EndChar

StartChar: nacute
Encoding: 324 324 199
Width: 825
GlyphClass: 2
Flags: W
LayerCount: 2
Back
Fore
SplineSet
304 1069 m 1,0,-1
 460 1309 l 1,1,-1
 622 1309 l 1,2,-1
 624 1303 l 1,3,-1
 429 1069 l 1,4,-1
 304 1069 l 1,0,-1
655 906.5 m 128,-1,6
 716 838 716 838 716 686 c 2,7,-1
 716 0 l 1,8,-1
 568 0 l 1,9,-1
 568 676 l 2,10,11
 568 768 568 768 533 805 c 128,-1,12
 498 842 498 842 433 842 c 0,13,14
 385 842 385 842 345 810.5 c 128,-1,15
 305 779 305 779 281 720 c 128,-1,16
 257 661 257 661 257 582 c 2,17,-1
 257 0 l 1,18,-1
 108 0 l 1,19,-1
 108 952 l 1,20,-1
 220 952 l 1,21,-1
 241 842 l 1,22,-1
 251 842 l 1,23,24
 289 910 289 910 348 942.5 c 128,-1,25
 407 975 407 975 480 975 c 0,26,5
 594 975 594 975 655 906.5 c 128,-1,6
EndSplineSet
EndChar

StartChar: napostrophe
Encoding: 329 329 200
Width: 1038
GlyphClass: 2
Flags: W
LayerCount: 2
Back
Fore
SplineSet
105 946 m 1,0,-1
 146 1075 l 1,1,-1
 85 1075 l 1,2,-1
 85 1241 l 1,3,-1
 241 1241 l 1,4,-1
 241 1087 l 1,5,-1
 187 946 l 1,6,-1
 105 946 l 1,0,-1
866 906.5 m 128,-1,8
 927 838 927 838 927 686 c 2,9,-1
 927 0 l 1,10,-1
 779 0 l 1,11,-1
 779 676 l 2,12,13
 779 768 779 768 744 805 c 128,-1,14
 709 842 709 842 644 842 c 0,15,16
 597 842 597 842 557 810.5 c 128,-1,17
 517 779 517 779 492.5 720 c 128,-1,18
 468 661 468 661 468 582 c 2,19,-1
 468 0 l 1,20,-1
 318 0 l 1,21,-1
 318 952 l 1,22,-1
 431 952 l 1,23,-1
 452 842 l 1,24,-1
 462 842 l 1,25,26
 500 910 500 910 559.5 942.5 c 128,-1,27
 619 975 619 975 693 975 c 0,28,7
 805 975 805 975 866 906.5 c 128,-1,8
EndSplineSet
EndChar

StartChar: ncaron
Encoding: 328 328 201
Width: 825
GlyphClass: 2
Flags: W
LayerCount: 2
Back
Fore
SplineSet
333 1309 m 1,0,-1
 413 1165 l 1,1,-1
 493 1309 l 1,2,-1
 638 1309 l 1,3,-1
 482 1065 l 1,4,-1
 339 1065 l 1,5,-1
 187 1309 l 1,6,-1
 333 1309 l 1,0,-1
655 906.5 m 128,-1,8
 716 838 716 838 716 686 c 2,9,-1
 716 0 l 1,10,-1
 568 0 l 1,11,-1
 568 676 l 2,12,13
 568 768 568 768 533 805 c 128,-1,14
 498 842 498 842 433 842 c 0,15,16
 385 842 385 842 345 810.5 c 128,-1,17
 305 779 305 779 281 720 c 128,-1,18
 257 661 257 661 257 582 c 2,19,-1
 257 0 l 1,20,-1
 108 0 l 1,21,-1
 108 952 l 1,22,-1
 220 952 l 1,23,-1
 241 842 l 1,24,-1
 251 842 l 1,25,26
 289 910 289 910 348 942.5 c 128,-1,27
 407 975 407 975 480 975 c 0,28,7
 594 975 594 975 655 906.5 c 128,-1,8
EndSplineSet
EndChar

StartChar: ncommaaccent
Encoding: 326 326 202
Width: 825
GlyphClass: 2
Flags: W
LayerCount: 2
Back
Fore
SplineSet
655 906.5 m 128,-1,1
 716 838 716 838 716 686 c 2,2,-1
 716 0 l 1,3,-1
 568 0 l 1,4,-1
 568 676 l 2,5,6
 568 768 568 768 533 805 c 128,-1,7
 498 842 498 842 433 842 c 0,8,9
 385 842 385 842 345 810.5 c 128,-1,10
 305 779 305 779 281 720 c 128,-1,11
 257 661 257 661 257 582 c 2,12,-1
 257 0 l 1,13,-1
 108 0 l 1,14,-1
 108 952 l 1,15,-1
 220 952 l 1,16,-1
 241 842 l 1,17,-1
 251 842 l 1,18,19
 289 910 289 910 348 942.5 c 128,-1,20
 407 975 407 975 480 975 c 0,21,0
 594 975 594 975 655 906.5 c 128,-1,1
396 -272 m 1,22,-1
 335 -272 l 1,23,-1
 335 -109 l 1,24,-1
 491 -109 l 1,25,-1
 491 -260 l 1,26,-1
 437 -401 l 1,27,-1
 355 -401 l 1,28,-1
 396 -272 l 1,22,-1
EndSplineSet
EndChar

StartChar: eng
Encoding: 331 331 203
Width: 825
GlyphClass: 2
Flags: W
LayerCount: 2
Back
Fore
SplineSet
655 906.5 m 128,-1,1
 716 838 716 838 716 686 c 2,2,-1
 716 -111 l 2,3,4
 716 -204 716 -204 672 -267 c 128,-1,5
 628 -330 628 -330 527 -330 c 0,6,7
 496 -330 496 -330 461.5 -323.5 c 128,-1,8
 427 -317 427 -317 402 -307 c 1,9,-1
 402 -205 l 1,10,-1
 482 -205 l 2,11,12
 524 -205 524 -205 546 -182.5 c 128,-1,13
 568 -160 568 -160 568 -117 c 2,14,-1
 568 676 l 2,15,16
 568 768 568 768 533 805 c 128,-1,17
 498 842 498 842 433 842 c 0,18,19
 385 842 385 842 345 810.5 c 128,-1,20
 305 779 305 779 281 720 c 128,-1,21
 257 661 257 661 257 582 c 2,22,-1
 257 0 l 1,23,-1
 108 0 l 1,24,-1
 108 952 l 1,25,-1
 220 952 l 1,26,-1
 241 842 l 1,27,-1
 251 842 l 1,28,29
 289 910 289 910 348 942.5 c 128,-1,30
 407 975 407 975 480 975 c 0,31,0
 594 975 594 975 655 906.5 c 128,-1,1
EndSplineSet
EndChar

StartChar: ntilde
Encoding: 241 241 204
Width: 825
GlyphClass: 2
Flags: W
LayerCount: 2
Back
Fore
SplineSet
660.5 1220.5 m 128,-1,1
 644 1177 644 1177 608.5 1148.5 c 128,-1,2
 573 1120 573 1120 521 1120 c 0,3,4
 494 1120 494 1120 469.5 1127.5 c 128,-1,5
 445 1135 445 1135 412 1150 c 0,6,7
 380 1164 380 1164 358.5 1171 c 128,-1,8
 337 1178 337 1178 314 1178 c 0,9,10
 258 1178 258 1178 253 1120 c 1,11,-1
 146 1120 l 1,12,13
 146 1165 146 1165 163.5 1208.5 c 128,-1,14
 181 1252 181 1252 216 1280.5 c 128,-1,15
 251 1309 251 1309 302 1309 c 0,16,17
 328 1309 328 1309 351.5 1302 c 128,-1,18
 375 1295 375 1295 411 1280 c 0,19,20
 441 1267 441 1267 463.5 1260 c 128,-1,21
 486 1253 486 1253 509 1253 c 0,22,23
 565 1253 565 1253 570 1309 c 1,24,-1
 677 1309 l 1,25,0
 677 1264 677 1264 660.5 1220.5 c 128,-1,1
655 906.5 m 128,-1,27
 716 838 716 838 716 686 c 2,28,-1
 716 0 l 1,29,-1
 568 0 l 1,30,-1
 568 676 l 2,31,32
 568 768 568 768 533 805 c 128,-1,33
 498 842 498 842 433 842 c 0,34,35
 385 842 385 842 345 810.5 c 128,-1,36
 305 779 305 779 281 720 c 128,-1,37
 257 661 257 661 257 582 c 2,38,-1
 257 0 l 1,39,-1
 108 0 l 1,40,-1
 108 952 l 1,41,-1
 220 952 l 1,42,-1
 241 842 l 1,43,-1
 251 842 l 1,44,45
 289 910 289 910 348 942.5 c 128,-1,46
 407 975 407 975 480 975 c 0,47,26
 594 975 594 975 655 906.5 c 128,-1,27
EndSplineSet
EndChar

StartChar: o
Encoding: 111 111 205
Width: 825
GlyphClass: 2
Flags: W
AnchorPoint: "Anchor-1" 0 0 basechar 0
AnchorPoint: "Anchor-0" 414 952 basechar 0
LayerCount: 2
Back
Fore
SplineSet
667 852 m 128,-1,1
 753 729 753 729 753 475 c 0,2,3
 753 222 753 222 667 99.5 c 128,-1,4
 581 -23 581 -23 413 -23 c 0,5,6
 243 -23 243 -23 157 99 c 128,-1,7
 71 221 71 221 71 475 c 0,8,9
 71 730 71 730 157 852.5 c 128,-1,10
 243 975 243 975 413 975 c 0,11,0
 581 975 581 975 667 852 c 128,-1,1
226 510 m 2,13,-1
 226 442 l 2,14,15
 226 111 226 111 413 111 c 0,16,17
 597 111 597 111 597 442 c 2,18,-1
 597 510 l 2,19,20
 597 842 597 842 413 842 c 0,21,12
 226 842 226 842 226 510 c 2,13,-1
EndSplineSet
Substitution2: "Single Substitution lookup 36 subtable" ordmasculine
Substitution2: "'aalt' Access All Alternates lookup 0 subtable" ordmasculine
EndChar

StartChar: oacute
Encoding: 243 243 206
Width: 825
GlyphClass: 2
Flags: W
LayerCount: 2
Back
Fore
SplineSet
304 1069 m 1,0,-1
 460 1309 l 1,1,-1
 622 1309 l 1,2,-1
 624 1303 l 1,3,-1
 429 1069 l 1,4,-1
 304 1069 l 1,0,-1
667 852 m 128,-1,6
 753 729 753 729 753 475 c 0,7,8
 753 222 753 222 667 99.5 c 128,-1,9
 581 -23 581 -23 413 -23 c 0,10,11
 243 -23 243 -23 157 99 c 128,-1,12
 71 221 71 221 71 475 c 0,13,14
 71 730 71 730 157 852.5 c 128,-1,15
 243 975 243 975 413 975 c 0,16,5
 581 975 581 975 667 852 c 128,-1,6
226 510 m 2,18,-1
 226 442 l 2,19,20
 226 111 226 111 413 111 c 0,21,22
 597 111 597 111 597 442 c 2,23,-1
 597 510 l 2,24,25
 597 842 597 842 413 842 c 0,26,17
 226 842 226 842 226 510 c 2,18,-1
EndSplineSet
EndChar

StartChar: obreve
Encoding: 335 335 207
Width: 825
GlyphClass: 2
Flags: W
LayerCount: 2
Back
Fore
SplineSet
608.5 1226 m 128,-1,1
 581 1185 581 1185 530 1159 c 128,-1,2
 479 1133 479 1133 413 1133 c 0,3,4
 346 1133 346 1133 294.5 1159 c 128,-1,5
 243 1185 243 1185 215 1226 c 128,-1,6
 187 1267 187 1267 187 1309 c 1,7,-1
 304 1309 l 1,8,9
 309 1287 309 1287 339 1268 c 128,-1,10
 369 1249 369 1249 413 1249 c 0,11,12
 442 1249 442 1249 466 1258.5 c 128,-1,13
 490 1268 490 1268 504.5 1282 c 128,-1,14
 519 1296 519 1296 521 1309 c 1,15,-1
 636 1309 l 1,16,0
 636 1267 636 1267 608.5 1226 c 128,-1,1
667 852 m 128,-1,18
 753 729 753 729 753 475 c 0,19,20
 753 222 753 222 667 99.5 c 128,-1,21
 581 -23 581 -23 413 -23 c 0,22,23
 243 -23 243 -23 157 99 c 128,-1,24
 71 221 71 221 71 475 c 0,25,26
 71 730 71 730 157 852.5 c 128,-1,27
 243 975 243 975 413 975 c 0,28,17
 581 975 581 975 667 852 c 128,-1,18
226 510 m 2,30,-1
 226 442 l 2,31,32
 226 111 226 111 413 111 c 0,33,34
 597 111 597 111 597 442 c 2,35,-1
 597 510 l 2,36,37
 597 842 597 842 413 842 c 0,38,29
 226 842 226 842 226 510 c 2,30,-1
EndSplineSet
EndChar

StartChar: ocircumflex
Encoding: 244 244 208
Width: 825
GlyphClass: 2
Flags: W
LayerCount: 2
Back
Fore
SplineSet
333 1063 m 1,0,-1
 187 1063 l 1,1,-1
 341 1307 l 1,2,-1
 484 1307 l 1,3,-1
 638 1063 l 1,4,-1
 493 1063 l 1,5,-1
 413 1206 l 1,6,-1
 333 1063 l 1,0,-1
667 852 m 128,-1,8
 753 729 753 729 753 475 c 0,9,10
 753 222 753 222 667 99.5 c 128,-1,11
 581 -23 581 -23 413 -23 c 0,12,13
 243 -23 243 -23 157 99 c 128,-1,14
 71 221 71 221 71 475 c 0,15,16
 71 730 71 730 157 852.5 c 128,-1,17
 243 975 243 975 413 975 c 0,18,7
 581 975 581 975 667 852 c 128,-1,8
226 510 m 2,20,-1
 226 442 l 2,21,22
 226 111 226 111 413 111 c 0,23,24
 597 111 597 111 597 442 c 2,25,-1
 597 510 l 2,26,27
 597 842 597 842 413 842 c 0,28,19
 226 842 226 842 226 510 c 2,20,-1
EndSplineSet
EndChar

StartChar: odieresis
Encoding: 246 246 209
Width: 825
GlyphClass: 2
Flags: W
LayerCount: 2
Back
Fore
SplineSet
196 1309 m 1,0,-1
 353 1309 l 1,1,-1
 353 1137 l 1,2,-1
 196 1137 l 1,3,-1
 196 1309 l 1,0,-1
468 1309 m 1,4,-1
 628 1309 l 1,5,-1
 628 1137 l 1,6,-1
 468 1137 l 1,7,-1
 468 1309 l 1,4,-1
667 852 m 128,-1,9
 753 729 753 729 753 475 c 0,10,11
 753 222 753 222 667 99.5 c 128,-1,12
 581 -23 581 -23 413 -23 c 0,13,14
 243 -23 243 -23 157 99 c 128,-1,15
 71 221 71 221 71 475 c 0,16,17
 71 730 71 730 157 852.5 c 128,-1,18
 243 975 243 975 413 975 c 0,19,8
 581 975 581 975 667 852 c 128,-1,9
226 510 m 2,21,-1
 226 442 l 2,22,23
 226 111 226 111 413 111 c 0,24,25
 597 111 597 111 597 442 c 2,26,-1
 597 510 l 2,27,28
 597 842 597 842 413 842 c 0,29,20
 226 842 226 842 226 510 c 2,21,-1
EndSplineSet
EndChar

StartChar: ograve
Encoding: 242 242 210
Width: 825
GlyphClass: 2
Flags: W
LayerCount: 2
Back
Fore
SplineSet
198 1303 m 1,0,-1
 200 1309 l 1,1,-1
 366 1309 l 1,2,-1
 521 1069 l 1,3,-1
 396 1069 l 1,4,-1
 198 1303 l 1,0,-1
667 852 m 128,-1,6
 753 729 753 729 753 475 c 0,7,8
 753 222 753 222 667 99.5 c 128,-1,9
 581 -23 581 -23 413 -23 c 0,10,11
 243 -23 243 -23 157 99 c 128,-1,12
 71 221 71 221 71 475 c 0,13,14
 71 730 71 730 157 852.5 c 128,-1,15
 243 975 243 975 413 975 c 0,16,5
 581 975 581 975 667 852 c 128,-1,6
226 510 m 2,18,-1
 226 442 l 2,19,20
 226 111 226 111 413 111 c 0,21,22
 597 111 597 111 597 442 c 2,23,-1
 597 510 l 2,24,25
 597 842 597 842 413 842 c 0,26,17
 226 842 226 842 226 510 c 2,18,-1
EndSplineSet
EndChar

StartChar: ohungarumlaut
Encoding: 337 337 211
Width: 825
GlyphClass: 2
Flags: W
LayerCount: 2
Back
Fore
SplineSet
349 1309 m 1,0,-1
 513 1309 l 1,1,-1
 515 1303 l 1,2,-1
 364 1069 l 1,3,-1
 239 1069 l 1,4,-1
 349 1309 l 1,0,-1
587 1309 m 1,5,-1
 751 1309 l 1,6,-1
 753 1303 l 1,7,-1
 599 1069 l 1,8,-1
 474 1069 l 1,9,-1
 587 1309 l 1,5,-1
667 852 m 128,-1,11
 753 729 753 729 753 475 c 0,12,13
 753 222 753 222 667 99.5 c 128,-1,14
 581 -23 581 -23 413 -23 c 0,15,16
 243 -23 243 -23 157 99 c 128,-1,17
 71 221 71 221 71 475 c 0,18,19
 71 730 71 730 157 852.5 c 128,-1,20
 243 975 243 975 413 975 c 0,21,10
 581 975 581 975 667 852 c 128,-1,11
226 510 m 2,23,-1
 226 442 l 2,24,25
 226 111 226 111 413 111 c 0,26,27
 597 111 597 111 597 442 c 2,28,-1
 597 510 l 2,29,30
 597 842 597 842 413 842 c 0,31,22
 226 842 226 842 226 510 c 2,23,-1
EndSplineSet
EndChar

StartChar: omacron
Encoding: 333 333 212
Width: 825
GlyphClass: 2
Flags: W
LayerCount: 2
Back
Fore
SplineSet
640 1214 m 1,0,-1
 640 1085 l 1,1,-1
 185 1085 l 1,2,-1
 185 1214 l 1,3,-1
 640 1214 l 1,0,-1
667 852 m 128,-1,5
 753 729 753 729 753 475 c 0,6,7
 753 222 753 222 667 99.5 c 128,-1,8
 581 -23 581 -23 413 -23 c 0,9,10
 243 -23 243 -23 157 99 c 128,-1,11
 71 221 71 221 71 475 c 0,12,13
 71 730 71 730 157 852.5 c 128,-1,14
 243 975 243 975 413 975 c 0,15,4
 581 975 581 975 667 852 c 128,-1,5
226 510 m 2,17,-1
 226 442 l 2,18,19
 226 111 226 111 413 111 c 0,20,21
 597 111 597 111 597 442 c 2,22,-1
 597 510 l 2,23,24
 597 842 597 842 413 842 c 0,25,16
 226 842 226 842 226 510 c 2,17,-1
EndSplineSet
EndChar

StartChar: oslash
Encoding: 248 248 213
Width: 907
GlyphClass: 2
Flags: W
AnchorPoint: "Anchor-1" 0 0 basechar 0
AnchorPoint: "Anchor-0" 455 952 basechar 0
LayerCount: 2
Back
Fore
SplineSet
792 475 m 0,1,2
 792 221 792 221 706.5 99 c 128,-1,3
 621 -23 621 -23 452 -23 c 0,4,5
 335 -23 335 -23 259 35 c 1,6,-1
 210 -57 l 1,7,-1
 112 -57 l 1,8,-1
 196 100 l 1,9,10
 112 220 112 220 112 475 c 256,11,12
 112 730 112 730 197 852.5 c 128,-1,13
 282 975 282 975 452 975 c 0,14,15
 565 975 565 975 642 918 c 1,16,-1
 693 1010 l 1,17,-1
 792 1010 l 1,18,-1
 706 852 l 1,19,0
 792 731 792 731 792 475 c 0,1,2
313.5 758.5 m 128,-1,21
 267 675 267 675 267 510 c 2,22,-1
 267 442 l 2,23,24
 267 324 267 324 286 262 c 1,25,-1
 570 788 l 1,26,27
 524 842 524 842 452 842 c 0,28,20
 360 842 360 842 313.5 758.5 c 128,-1,21
452 111 m 0,30,31
 543 111 543 111 589.5 194.5 c 128,-1,32
 636 278 636 278 636 442 c 2,33,-1
 636 510 l 2,34,35
 636 622 636 622 615 688 c 1,36,-1
 333 164 l 1,37,29
 375 111 375 111 452 111 c 0,30,31
EndSplineSet
EndChar

